<svg width="485" height="107" viewBox="0 0 485 107" fill="none" xmlns="http://www.w3.org/2000/svg">
<path d="M0.151284 1.94868H10.2016V74.0953C10.2016 76.7275 11.5177 78.0436 14.1499 78.0436H19.6536V86.8975H12.5945C5.17642 86.8975 0.151284 81.8723 0.151284 74.5739V1.94868ZM32.839 23.485H42.8893V86.8975H32.839V23.485ZM32.5997 13.5544V2.06832H43.1286V13.5544H32.5997ZM84.9019 83.5474C68.5104 83.5474 56.9047 70.8649 56.9047 52.7983C56.9047 34.7317 68.3907 22.0492 84.7822 22.0492C93.3968 22.0492 100.695 26.4761 103.567 33.5353V23.485H113.138V80.6759C113.138 97.4263 101.652 106.28 85.1412 106.28C71.6212 106.28 61.5709 98.9817 58.6994 87.8546L69.2282 87.1368C71.7408 93.1191 77.2445 96.7084 85.1412 96.7084C96.2683 96.7084 103.088 91.9226 103.088 82.9491V72.5399C99.9773 79.2401 92.9182 83.5474 84.9019 83.5474ZM67.4336 52.7983C67.4336 65.8397 74.373 73.9757 85.5001 73.9757C96.1486 73.9757 103.088 65.8397 103.208 52.7983C103.447 39.7569 96.5076 31.6209 85.5001 31.6209C74.373 31.6209 67.4336 39.7569 67.4336 52.7983ZM129.294 1.94868H139.345V32.0995C142.934 25.16 150.352 22.0492 158.249 22.0492C171.41 22.0492 179.665 31.3816 179.665 46.0981V86.8975H169.615V49.6875C169.615 37.6032 165.188 31.6209 156.095 31.6209C146.045 31.6209 139.345 37.9622 139.345 49.6875V86.8975H129.294V1.94868ZM200.922 9.12745H210.972V23.485H227.843V32.3388H210.972V70.0274C210.972 75.2918 213.485 78.0436 218.51 78.0436H227.603V86.8975H218.51C207.144 86.8975 200.922 80.7955 200.922 70.0274V32.3388H191.59V23.485H200.922V9.12745ZM297.062 1.94868C323.145 1.94868 337.861 17.2634 337.861 44.5427C337.861 71.7024 323.503 86.8975 297.78 86.8975H270.74V1.94868H297.062ZM281.029 76.8472H297.062C317.043 76.8472 327.093 66.079 327.093 44.5427C327.093 22.7671 317.043 11.999 297.062 11.999H281.029V76.8472ZM341.435 86.8975L372.065 1.94868H385.944L416.573 86.8975H405.326L396.832 62.7289H361.177L352.682 86.8975H341.435ZM364.647 52.6787H393.362L379.004 10.9221L364.647 52.6787ZM432.085 59.0199C434.239 70.5059 442.375 78.2829 455.775 78.2829C466.663 78.2829 473.961 73.9757 473.961 65.4808C473.961 56.8663 466.543 51.6018 449.553 47.2946C435.675 43.8248 423.112 37.005 423.112 23.3653C423.112 9.00781 434.598 0.0343446 450.87 0.0343446C469.056 0.0343446 481.14 11.4007 482.935 27.0744L472.167 27.7923C470.611 17.1437 462.475 10.0846 450.75 10.0846C441.059 10.0846 433.88 15.2294 433.88 23.3653C433.88 33.6549 446.203 36.5264 456.972 39.5176C472.406 43.8248 484.729 51.4822 484.729 64.404C484.729 80.1973 470.372 88.3332 454.938 88.3332C436.392 88.3332 422.753 76.9668 421.317 59.7378L432.085 59.0199Z" fill="black"/>
</svg>
