<svg width="286" height="286" viewBox="0 0 286 286" fill="none" xmlns="http://www.w3.org/2000/svg">
<path fill-rule="evenodd" clip-rule="evenodd" d="M128.742 0.147949C124.807 0.147949 121.617 3.33794 121.617 7.27299V91.0445L62.3821 31.8092C59.5996 29.0267 55.0882 29.0267 52.3057 31.8092L32.1531 51.9618C29.3706 54.7443 29.3706 59.2557 32.1531 62.0382L91.3886 121.274L7.61687 121.274C3.68182 121.274 0.491823 124.464 0.491823 128.399L0.491821 156.899C0.491821 160.834 3.68182 164.024 7.61688 164.024L278.369 164.024C282.304 164.024 285.494 160.834 285.494 156.899V128.399C285.494 124.464 282.304 121.274 278.369 121.274L194.597 121.274L253.832 62.0382C256.615 59.2557 256.615 54.7444 253.832 51.9618L233.68 31.8092C230.897 29.0267 226.386 29.0267 223.603 31.8092L164.368 91.0448V7.273C164.368 3.33794 161.178 0.147949 157.243 0.147949H128.742Z" fill="url(#paint0_linear_1_79)" fill-opacity="0.8"/>
<path fill-rule="evenodd" clip-rule="evenodd" d="M62.3819 253.489L142.993 172.878L223.603 253.489C226.386 256.271 230.897 256.271 233.68 253.489L253.832 233.336C256.615 230.553 256.615 226.042 253.832 223.26L148.005 117.432C145.222 114.649 140.711 114.649 137.928 117.432L117.776 137.585C117.601 137.759 117.438 137.94 117.285 138.127L32.1529 223.26C29.3704 226.042 29.3704 230.553 32.1529 233.336L52.3056 253.489C55.0881 256.271 59.5994 256.271 62.3819 253.489ZM128.743 228.149C124.808 228.149 121.618 231.339 121.618 235.274V278.025C121.618 281.96 124.808 285.15 128.743 285.15H157.243C161.178 285.15 164.368 281.96 164.368 278.025V235.274C164.368 231.339 161.178 228.149 157.243 228.149H128.743Z" fill="white"/>
<defs>
<linearGradient id="paint0_linear_1_79" x1="142.993" y1="0.147949" x2="142.993" y2="136.021" gradientUnits="userSpaceOnUse">
<stop offset="0.102191" stop-color="white" stop-opacity="0.14"/>
<stop offset="0.86224" stop-color="white"/>
</linearGradient>
</defs>
</svg>
