<svg width="285" height="285" viewBox="0 0 285 285" fill="none" xmlns="http://www.w3.org/2000/svg">
<path fill-rule="evenodd" clip-rule="evenodd" d="M128.251 0C124.316 0 121.126 3.18999 121.126 7.12504V90.8966L61.8903 31.6612C59.1078 28.8787 54.5964 28.8787 51.8139 31.6612L31.6613 51.8139C28.8788 54.5964 28.8788 59.1077 31.6613 61.8902L90.8968 121.126L7.12505 121.126C3.18999 121.126 0 124.316 0 128.251V156.751C0 160.686 3.19 163.876 7.12505 163.876L277.877 163.876C281.812 163.876 285.002 160.686 285.002 156.751V128.251C285.002 124.316 281.812 121.126 277.877 121.126L194.105 121.126L253.34 61.8902C256.123 59.1077 256.123 54.5964 253.34 51.8139L233.188 31.6612C230.405 28.8787 225.894 28.8787 223.111 31.6612L163.876 90.8968V7.12505C163.876 3.18999 160.686 0 156.751 0H128.251Z" fill="url(#paint0_linear_2_6811)" fill-opacity="0.31"/>
<path fill-rule="evenodd" clip-rule="evenodd" d="M61.89 253.341L142.501 172.73L223.111 253.341C225.894 256.123 230.405 256.123 233.188 253.341L253.34 233.188C256.123 230.405 256.123 225.894 253.34 223.112L147.513 117.284C144.73 114.501 140.219 114.501 137.436 117.284L117.284 137.437C117.109 137.611 116.946 137.792 116.793 137.98L31.661 223.112C28.8785 225.894 28.8785 230.405 31.661 233.188L51.8136 253.341C54.5961 256.123 59.1075 256.123 61.89 253.341ZM128.251 228.001C124.316 228.001 121.126 231.191 121.126 235.126V277.877C121.126 281.812 124.316 285.002 128.251 285.002H156.751C160.686 285.002 163.876 281.812 163.876 277.877V235.126C163.876 231.191 160.686 228.001 156.751 228.001H128.251Z" fill="#FF7B15"/>
<defs>
<linearGradient id="paint0_linear_2_6811" x1="142.501" y1="0" x2="142.501" y2="163.876" gradientUnits="userSpaceOnUse">
<stop offset="0.102191" stop-color="#FF7B15" stop-opacity="0.14"/>
<stop offset="0.86224" stop-color="#FF7B15"/>
</linearGradient>
</defs>
</svg>
