<svg width="1920" height="1080" viewBox="0 0 1920 1080" fill="none" xmlns="http://www.w3.org/2000/svg">
<g clip-path="url(#clip0_2_6751)">
<rect width="1920" height="1080" fill="white"/>
<path d="M823.136 143.075H832.001V206.708C832.001 209.03 833.161 210.191 835.483 210.191H840.337V218H834.111C827.568 218 823.136 213.568 823.136 207.131V143.075ZM851.967 162.07H860.831V218H851.967V162.07ZM851.756 153.311V143.18H861.042V153.311H851.756ZM897.887 215.045C883.429 215.045 873.193 203.859 873.193 187.924C873.193 171.99 883.324 160.804 897.781 160.804C905.379 160.804 911.816 164.708 914.349 170.934V162.07H922.791V212.513C922.791 227.287 912.661 235.096 898.098 235.096C886.173 235.096 877.309 228.658 874.776 218.844L884.062 218.211C886.278 223.487 891.133 226.653 898.098 226.653C907.912 226.653 913.927 222.432 913.927 214.518V205.337C911.183 211.246 904.957 215.045 897.887 215.045ZM882.479 187.924C882.479 199.427 888.6 206.603 898.414 206.603C907.806 206.603 913.927 199.427 914.033 187.924C914.244 176.422 908.123 169.246 898.414 169.246C888.6 169.246 882.479 176.422 882.479 187.924ZM937.041 143.075H945.905V169.668C949.071 163.547 955.614 160.804 962.579 160.804C974.187 160.804 981.469 169.035 981.469 182.015V218H972.604V185.181C972.604 174.522 968.7 169.246 960.679 169.246C951.815 169.246 945.905 174.839 945.905 185.181V218H937.041V143.075ZM1000.22 149.406H1009.08V162.07H1023.96V169.879H1009.08V203.12C1009.08 207.764 1011.3 210.191 1015.73 210.191H1023.75V218H1015.73C1005.7 218 1000.22 212.618 1000.22 203.12V169.879H991.986V162.07H1000.22V149.406ZM1085.01 143.075C1108.02 143.075 1121 156.582 1121 180.643C1121 204.598 1108.33 218 1085.65 218H1061.8V143.075H1085.01ZM1070.87 209.136H1085.01C1102.64 209.136 1111.5 199.638 1111.5 180.643C1111.5 161.437 1102.64 151.939 1085.01 151.939H1070.87V209.136ZM1124.15 218L1151.17 143.075H1163.41L1190.42 218H1180.5L1173.01 196.683H1141.56L1134.07 218H1124.15ZM1144.62 187.819H1169.95L1157.29 150.989L1144.62 187.819ZM1204.1 193.412C1206 203.543 1213.18 210.402 1225 210.402C1234.6 210.402 1241.04 206.603 1241.04 199.11C1241.04 191.512 1234.5 186.869 1219.51 183.07C1207.27 180.01 1196.19 173.995 1196.19 161.964C1196.19 149.301 1206.32 141.386 1220.67 141.386C1236.71 141.386 1247.37 151.411 1248.95 165.236L1239.46 165.869C1238.08 156.477 1230.91 150.251 1220.57 150.251C1212.02 150.251 1205.69 154.788 1205.69 161.964C1205.69 171.04 1216.56 173.572 1226.05 176.211C1239.67 180.01 1250.54 186.764 1250.54 198.161C1250.54 212.09 1237.87 219.266 1224.26 219.266C1207.9 219.266 1195.87 209.241 1194.61 194.045L1204.1 193.412Z" fill="#FF7B15"/>
<path fill-rule="evenodd" clip-rule="evenodd" d="M715.561 116C713.795 116 712.363 117.432 712.363 119.198V156.796L685.777 130.21C684.529 128.961 682.504 128.961 681.255 130.21L672.21 139.255C670.961 140.504 670.961 142.529 672.21 143.777L698.796 170.363L661.198 170.363C659.432 170.363 658 171.795 658 173.561V186.352C658 188.118 659.432 189.55 661.198 189.55L782.716 189.55C784.482 189.55 785.913 188.118 785.913 186.352V173.561C785.913 171.795 784.482 170.363 782.716 170.363H745.118L771.703 143.777C772.952 142.529 772.952 140.504 771.703 139.255L762.659 130.21C761.41 128.961 759.385 128.961 758.136 130.21L731.55 156.796V119.198C731.55 117.432 730.118 116 728.352 116H715.561Z" fill="url(#paint0_linear_2_6751)" fill-opacity="0.31"/>
<path fill-rule="evenodd" clip-rule="evenodd" d="M685.777 229.703L721.957 193.524L758.136 229.703C759.385 230.952 761.41 230.952 762.659 229.703L771.703 220.659C772.952 219.41 772.952 217.385 771.703 216.136L724.206 168.639C722.957 167.39 720.933 167.39 719.684 168.639L710.639 177.684C710.561 177.762 710.488 177.843 710.419 177.927L672.21 216.136C670.961 217.385 670.961 219.41 672.21 220.659L681.255 229.703C682.504 230.952 684.528 230.952 685.777 229.703ZM715.561 218.331C713.795 218.331 712.363 219.763 712.363 221.529V240.716C712.363 242.482 713.795 243.913 715.561 243.913H728.353C730.119 243.913 731.55 242.482 731.55 240.716V221.529C731.55 219.763 730.119 218.331 728.353 218.331H715.561Z" fill="#FF7B15"/>
<g filter="url(#filter0_d_2_6751)">
<g clip-path="url(#clip1_2_6751)">
<g filter="url(#filter1_b_2_6751)">
<path d="M44 321.004C44 312.718 50.7176 306 59.0043 306H1860C1868.28 306 1875 312.718 1875 321.004V390.244H44V321.004Z" fill="#272727"/>
<g clip-path="url(#clip2_2_6751)">
<path d="M1771.41 353.439C1771.95 353.439 1772.4 352.991 1772.4 352.468V339.677L1772.32 337.808L1773.17 338.693L1775.05 340.71C1775.23 340.91 1775.49 341.009 1775.72 341.009C1776.25 341.009 1776.63 340.636 1776.63 340.125C1776.63 339.863 1776.53 339.664 1776.35 339.477L1772.14 335.417C1771.89 335.168 1771.66 335.081 1771.41 335.081C1771.17 335.081 1770.94 335.168 1770.69 335.417L1766.48 339.477C1766.3 339.664 1766.18 339.863 1766.18 340.125C1766.18 340.636 1766.57 341.009 1767.08 341.009C1767.33 341.009 1767.59 340.91 1767.77 340.71L1769.66 338.693L1770.51 337.808L1770.42 339.677V352.468C1770.42 352.991 1770.88 353.439 1771.41 353.439ZM1764.27 363.191H1778.55C1781.15 363.191 1782.46 361.896 1782.46 359.33V346.9C1782.46 344.335 1781.15 343.039 1778.55 343.039H1775.08V345.045H1778.51C1779.75 345.045 1780.46 345.717 1780.46 347.012V359.218C1780.46 360.513 1779.75 361.186 1778.51 361.186H1764.29C1763.05 361.186 1762.36 360.513 1762.36 359.218V347.012C1762.36 345.717 1763.05 345.045 1764.29 345.045H1767.74V343.039H1764.27C1761.66 343.039 1760.35 344.335 1760.35 346.9V359.33C1760.35 361.896 1761.66 363.191 1764.27 363.191Z" fill="white"/>
<path d="M1823.66 357.349H1825.79V359.254C1825.79 361.82 1827.09 363.115 1829.7 363.115H1842.21C1844.8 363.115 1846.11 361.82 1846.11 359.254V346.65C1846.11 344.084 1844.8 342.789 1842.21 342.789H1840.06V340.883C1840.06 338.318 1838.76 337.022 1836.17 337.022H1823.66C1821.05 337.022 1819.75 338.318 1819.75 340.883V353.488C1819.75 356.053 1821.05 357.349 1823.66 357.349ZM1823.69 355.343C1822.44 355.343 1821.76 354.671 1821.76 353.376V340.996C1821.76 339.7 1822.44 339.028 1823.69 339.028H1836.13C1837.36 339.028 1838.06 339.7 1838.06 340.996V342.789H1829.7C1827.09 342.789 1825.79 344.072 1825.79 346.65V355.343H1823.69ZM1829.73 361.11C1828.49 361.11 1827.8 360.437 1827.8 359.142V346.762C1827.8 345.467 1828.49 344.794 1829.73 344.794H1842.17C1843.4 344.794 1844.1 345.467 1844.1 346.762V359.142C1844.1 360.437 1843.4 361.11 1842.17 361.11H1829.73Z" fill="white"/>
</g>
<g clip-path="url(#clip3_2_6751)">
<path d="M253.561 360.526L243.684 350.886C243.447 350.649 243.323 350.363 243.323 350.051C243.323 349.728 243.46 349.416 243.696 349.217L253.561 339.565C253.772 339.353 254.046 339.228 254.37 339.228C255.018 339.228 255.503 339.726 255.503 340.374C255.503 340.673 255.379 340.972 255.18 341.184L246.113 350.051L255.18 358.919C255.379 359.131 255.503 359.417 255.503 359.729C255.503 360.376 255.018 360.862 254.37 360.862C254.046 360.862 253.772 360.738 253.561 360.526Z" fill="#9D9D9D"/>
<path d="M293.989 360.875C294.312 360.875 294.586 360.75 294.798 360.538L304.675 350.886C304.911 350.649 305.036 350.363 305.036 350.051C305.036 349.728 304.911 349.429 304.675 349.217L294.811 339.577C294.586 339.353 294.312 339.228 293.989 339.228C293.341 339.228 292.855 339.726 292.855 340.374C292.855 340.673 292.98 340.972 293.179 341.184L302.246 350.051L293.179 358.919C292.98 359.131 292.855 359.417 292.855 359.729C292.855 360.376 293.341 360.875 293.989 360.875Z" fill="#7A7A7A" fill-opacity="0.25"/>
</g>
<g filter="url(#filter2_i_2_6751)">
<path fill-rule="evenodd" clip-rule="evenodd" d="M90.6793 361.774C97.0408 361.774 102.198 356.617 102.198 350.255C102.198 343.894 97.0408 338.737 90.6793 338.737C84.3179 338.737 79.1609 343.894 79.1609 350.255C79.1609 356.617 84.3179 361.774 90.6793 361.774Z" fill="#F06959"/>
</g>
<path d="M101.823 350.255C101.823 356.41 96.8336 361.399 90.6793 361.399C84.525 361.399 79.536 356.41 79.536 350.255C79.536 344.101 84.525 339.112 90.6793 339.112C96.8336 339.112 101.823 344.101 101.823 350.255Z" stroke="#CE5347" stroke-width="0.750214"/>
<g filter="url(#filter3_i_2_6751)">
<path fill-rule="evenodd" clip-rule="evenodd" d="M133.116 361.774C139.477 361.774 144.634 356.617 144.634 350.255C144.634 343.894 139.477 338.737 133.116 338.737C126.754 338.737 121.597 343.894 121.597 350.255C121.597 356.617 126.754 361.774 133.116 361.774Z" fill="#F4C151"/>
</g>
<path d="M144.259 350.255C144.259 356.41 139.27 361.399 133.116 361.399C126.961 361.399 121.972 356.41 121.972 350.255C121.972 344.101 126.961 339.112 133.116 339.112C139.27 339.112 144.259 344.101 144.259 350.255Z" stroke="#D6A243" stroke-width="0.750214"/>
<g filter="url(#filter4_i_2_6751)">
<path fill-rule="evenodd" clip-rule="evenodd" d="M175.552 361.774C181.913 361.774 187.07 356.617 187.07 350.255C187.07 343.894 181.913 338.737 175.552 338.737C169.19 338.737 164.033 343.894 164.033 350.255C164.033 356.617 169.19 361.774 175.552 361.774Z" fill="#61C454"/>
</g>
<path d="M186.695 350.255C186.695 356.41 181.706 361.399 175.552 361.399C169.398 361.399 164.409 356.41 164.409 350.255C164.409 344.101 169.398 339.112 175.552 339.112C181.706 339.112 186.695 344.101 186.695 350.255Z" stroke="#5BC74B" stroke-width="0.750214"/>
<path d="M382.893 337.872C382.893 330.171 389.136 323.928 396.836 323.928H1542.62C1550.32 323.928 1556.56 330.171 1556.56 337.872V357.271C1556.56 364.972 1550.32 371.214 1542.62 371.214H396.836C389.135 371.214 382.893 364.972 382.893 357.271V337.872Z" fill="#262626" stroke="#333333" stroke-width="1.21247"/>
<path d="M412.446 347.319C412.666 347.319 412.833 347.248 412.956 347.116L416.578 343.477C416.736 343.327 416.798 343.151 416.798 342.949C416.798 342.756 416.719 342.562 416.578 342.422L412.956 338.747C412.833 338.606 412.657 338.536 412.446 338.536C412.051 338.536 411.752 338.852 411.752 339.257C411.752 339.441 411.822 339.617 411.945 339.758L414.292 342.061C413.791 341.973 413.281 341.921 412.771 341.921C408.464 341.921 405 345.376 405 349.684C405 354 408.464 357.464 412.771 357.464C417.079 357.464 420.534 354 420.534 349.684C420.534 349.262 420.236 348.954 419.805 348.954C419.392 348.954 419.119 349.262 419.119 349.684C419.119 353.218 416.297 356.049 412.771 356.049C409.246 356.049 406.415 353.218 406.415 349.684C406.415 346.158 409.246 343.336 412.771 343.336C413.44 343.336 414.055 343.389 414.583 343.503L411.954 346.114C411.822 346.255 411.752 346.431 411.752 346.615C411.752 347.02 412.051 347.319 412.446 347.319Z" fill="#9B9B9B"/>
<path d="M437.222 356.576H445.592C446.726 356.576 447.28 356.014 447.28 354.783V348.33C447.28 347.222 446.823 346.65 445.882 346.554V344.338C445.882 341.024 443.711 339.424 441.407 339.424C439.104 339.424 436.932 341.024 436.932 344.338V346.598C436.071 346.73 435.534 347.292 435.534 348.33V354.783C435.534 356.014 436.088 356.576 437.222 356.576ZM438.348 344.154C438.348 341.947 439.763 340.778 441.407 340.778C443.051 340.778 444.467 341.947 444.467 344.154V346.545L438.348 346.554V344.154Z" fill="#9B9B9B"/>
<path d="M465.411 340.814V355H463.776V340.814H465.411ZM468.327 355V344.361H469.962V355H468.327ZM469.158 342.587C468.84 342.587 468.565 342.479 468.334 342.262C468.108 342.045 467.994 341.784 467.994 341.479C467.994 341.174 468.108 340.913 468.334 340.696C468.565 340.479 468.84 340.371 469.158 340.371C469.477 340.371 469.749 340.479 469.975 340.696C470.206 340.913 470.322 341.174 470.322 341.479C470.322 341.784 470.206 342.045 469.975 342.262C469.749 342.479 469.477 342.587 469.158 342.587ZM477.172 359.211C476.383 359.211 475.704 359.11 475.136 358.907C474.568 358.708 474.094 358.445 473.716 358.117C473.342 357.794 473.044 357.447 472.822 357.078L474.124 356.164C474.272 356.358 474.459 356.579 474.686 356.829C474.912 357.083 475.221 357.302 475.614 357.487C476.011 357.676 476.53 357.771 477.172 357.771C478.031 357.771 478.74 357.563 479.299 357.147C479.857 356.732 480.137 356.081 480.137 355.194V353.033H479.998C479.878 353.227 479.707 353.467 479.486 353.753C479.269 354.035 478.955 354.287 478.544 354.508C478.137 354.725 477.588 354.834 476.895 354.834C476.036 354.834 475.265 354.631 474.582 354.224C473.903 353.818 473.365 353.227 472.968 352.451C472.575 351.675 472.379 350.733 472.379 349.625C472.379 348.535 472.571 347.586 472.954 346.778C473.337 345.965 473.87 345.337 474.554 344.894C475.237 344.446 476.027 344.222 476.923 344.222C477.616 344.222 478.165 344.338 478.571 344.568C478.982 344.795 479.296 345.053 479.513 345.344C479.735 345.631 479.906 345.866 480.026 346.051H480.192V344.361H481.772V355.305C481.772 356.219 481.564 356.963 481.148 357.535C480.737 358.112 480.183 358.535 479.486 358.803C478.793 359.075 478.022 359.211 477.172 359.211ZM477.117 353.365C477.773 353.365 478.327 353.215 478.779 352.915C479.232 352.615 479.576 352.183 479.811 351.62C480.047 351.056 480.165 350.382 480.165 349.597C480.165 348.831 480.049 348.154 479.818 347.568C479.587 346.981 479.246 346.522 478.793 346.189C478.341 345.857 477.782 345.691 477.117 345.691C476.424 345.691 475.847 345.866 475.385 346.217C474.928 346.568 474.584 347.039 474.353 347.63C474.127 348.221 474.014 348.877 474.014 349.597C474.014 350.336 474.129 350.989 474.36 351.557C474.595 352.121 474.942 352.564 475.399 352.887C475.861 353.206 476.433 353.365 477.117 353.365ZM486.321 348.6V355H484.686V340.814H486.321V346.023H486.459C486.708 345.473 487.082 345.037 487.581 344.714C488.085 344.386 488.754 344.222 489.59 344.222C490.315 344.222 490.95 344.368 491.495 344.658C492.04 344.945 492.462 345.386 492.762 345.981C493.067 346.573 493.22 347.325 493.22 348.24V355H491.585V348.35C491.585 347.505 491.365 346.852 490.927 346.39C490.493 345.924 489.89 345.691 489.119 345.691C488.583 345.691 488.103 345.804 487.678 346.03C487.258 346.256 486.925 346.586 486.681 347.02C486.441 347.455 486.321 347.981 486.321 348.6ZM500.759 344.361V345.746H495.245V344.361H500.759ZM496.852 341.812H498.487V351.952C498.487 352.414 498.554 352.76 498.688 352.991C498.827 353.218 499.002 353.37 499.214 353.448C499.432 353.522 499.66 353.559 499.9 353.559C500.08 353.559 500.228 353.55 500.344 353.532C500.459 353.508 500.551 353.49 500.621 353.476L500.953 354.945C500.842 354.986 500.688 355.028 500.489 355.069C500.29 355.115 500.039 355.139 499.734 355.139C499.272 355.139 498.82 355.039 498.376 354.841C497.938 354.642 497.573 354.34 497.282 353.933C496.996 353.527 496.852 353.014 496.852 352.396V341.812ZM507.043 355.222C506.157 355.222 505.374 354.998 504.695 354.55C504.016 354.097 503.485 353.46 503.102 352.638C502.719 351.811 502.527 350.835 502.527 349.708C502.527 348.591 502.719 347.621 503.102 346.799C503.485 345.977 504.019 345.342 504.702 344.894C505.385 344.446 506.175 344.222 507.071 344.222C507.764 344.222 508.311 344.338 508.713 344.568C509.119 344.795 509.428 345.053 509.641 345.344C509.858 345.631 510.026 345.866 510.146 346.051H510.285V340.814H511.92V355H510.34V353.365H510.146C510.026 353.559 509.855 353.804 509.634 354.1C509.412 354.39 509.096 354.651 508.685 354.882C508.274 355.109 507.727 355.222 507.043 355.222ZM507.265 353.753C507.921 353.753 508.475 353.582 508.927 353.241C509.38 352.894 509.724 352.416 509.959 351.807C510.195 351.193 510.313 350.484 510.313 349.68C510.313 348.886 510.197 348.191 509.966 347.595C509.735 346.995 509.394 346.529 508.941 346.196C508.489 345.859 507.93 345.691 507.265 345.691C506.572 345.691 505.995 345.868 505.533 346.224C505.076 346.575 504.732 347.053 504.501 347.658C504.275 348.258 504.162 348.932 504.162 349.68C504.162 350.438 504.277 351.126 504.508 351.744C504.744 352.359 505.09 352.848 505.547 353.213C506.009 353.573 506.581 353.753 507.265 353.753ZM518.193 355.249C517.519 355.249 516.907 355.122 516.358 354.868C515.808 354.61 515.372 354.238 515.049 353.753C514.725 353.264 514.564 352.673 514.564 351.98C514.564 351.37 514.684 350.876 514.924 350.498C515.164 350.114 515.485 349.814 515.887 349.597C516.289 349.38 516.732 349.219 517.217 349.112C517.706 349.001 518.198 348.914 518.692 348.849C519.339 348.766 519.863 348.704 520.264 348.662C520.671 348.616 520.966 348.54 521.151 348.434C521.34 348.327 521.435 348.143 521.435 347.879V347.824C521.435 347.141 521.248 346.609 520.874 346.231C520.505 345.852 519.944 345.663 519.191 345.663C518.41 345.663 517.799 345.834 517.355 346.175C516.912 346.517 516.6 346.882 516.42 347.27L514.869 346.716C515.146 346.069 515.515 345.566 515.977 345.206C516.443 344.841 516.951 344.587 517.501 344.444C518.055 344.296 518.6 344.222 519.135 344.222C519.477 344.222 519.87 344.264 520.313 344.347C520.761 344.425 521.193 344.589 521.608 344.839C522.028 345.088 522.377 345.464 522.654 345.968C522.931 346.471 523.07 347.145 523.07 347.99V355H521.435V353.559H521.352C521.241 353.79 521.056 354.037 520.798 354.3C520.539 354.564 520.195 354.788 519.766 354.972C519.336 355.157 518.812 355.249 518.193 355.249ZM518.443 353.781C519.089 353.781 519.634 353.654 520.077 353.4C520.525 353.146 520.862 352.818 521.089 352.416C521.32 352.015 521.435 351.592 521.435 351.149V349.653C521.366 349.736 521.213 349.812 520.978 349.881C520.747 349.946 520.479 350.004 520.174 350.054C519.874 350.101 519.581 350.142 519.295 350.179C519.013 350.211 518.784 350.239 518.609 350.262C518.184 350.318 517.787 350.408 517.418 350.532C517.053 350.652 516.757 350.835 516.531 351.079C516.309 351.32 516.199 351.647 516.199 352.063C516.199 352.631 516.409 353.061 516.829 353.351C517.254 353.638 517.792 353.781 518.443 353.781ZM533.512 346.743L532.043 347.159C531.951 346.914 531.815 346.676 531.635 346.446C531.459 346.21 531.219 346.016 530.914 345.864C530.609 345.711 530.219 345.635 529.744 345.635C529.092 345.635 528.55 345.785 528.116 346.085C527.686 346.381 527.472 346.757 527.472 347.214C527.472 347.621 527.619 347.942 527.915 348.177C528.21 348.413 528.672 348.609 529.3 348.766L530.88 349.154C531.831 349.385 532.54 349.738 533.006 350.214C533.472 350.685 533.706 351.292 533.706 352.035C533.706 352.645 533.53 353.19 533.179 353.67C532.833 354.15 532.348 354.529 531.725 354.806C531.101 355.083 530.376 355.222 529.55 355.222C528.464 355.222 527.566 354.986 526.855 354.515C526.144 354.044 525.694 353.356 525.504 352.451L527.056 352.063C527.204 352.636 527.483 353.065 527.894 353.351C528.31 353.638 528.852 353.781 529.522 353.781C530.284 353.781 530.889 353.619 531.337 353.296C531.789 352.968 532.016 352.576 532.016 352.118C532.016 351.749 531.886 351.44 531.628 351.19C531.369 350.936 530.972 350.747 530.436 350.622L528.663 350.207C527.689 349.976 526.973 349.618 526.516 349.133C526.063 348.644 525.837 348.032 525.837 347.298C525.837 346.697 526.005 346.166 526.343 345.704C526.684 345.243 527.148 344.88 527.735 344.617C528.326 344.354 528.995 344.222 529.744 344.222C530.796 344.222 531.623 344.453 532.223 344.915C532.828 345.377 533.258 345.986 533.512 346.743ZM537.28 355.111C536.938 355.111 536.645 354.988 536.4 354.744C536.155 354.499 536.033 354.206 536.033 353.864C536.033 353.522 536.155 353.229 536.4 352.984C536.645 352.74 536.938 352.617 537.28 352.617C537.621 352.617 537.915 352.74 538.159 352.984C538.404 353.229 538.526 353.522 538.526 353.864C538.526 354.09 538.469 354.298 538.353 354.487C538.242 354.677 538.092 354.829 537.903 354.945C537.718 355.055 537.511 355.111 537.28 355.111ZM545.704 355.222C544.707 355.222 543.848 354.986 543.127 354.515C542.407 354.044 541.853 353.395 541.465 352.569C541.077 351.742 540.883 350.798 540.883 349.736C540.883 348.655 541.082 347.702 541.479 346.875C541.881 346.044 542.439 345.395 543.155 344.929C543.876 344.458 544.716 344.222 545.676 344.222C546.425 344.222 547.099 344.361 547.699 344.638C548.299 344.915 548.791 345.303 549.174 345.801C549.558 346.3 549.796 346.882 549.888 347.547H548.253C548.129 347.062 547.851 346.633 547.422 346.259C546.997 345.88 546.425 345.691 545.704 345.691C545.067 345.691 544.508 345.857 544.028 346.189C543.552 346.517 543.181 346.981 542.913 347.582C542.65 348.177 542.518 348.877 542.518 349.68C542.518 350.502 542.647 351.218 542.906 351.828C543.169 352.437 543.538 352.91 544.014 353.248C544.494 353.585 545.058 353.753 545.704 353.753C546.129 353.753 546.515 353.679 546.861 353.532C547.207 353.384 547.5 353.171 547.741 352.894C547.981 352.617 548.152 352.285 548.253 351.897H549.888C549.796 352.525 549.567 353.091 549.202 353.594C548.842 354.093 548.364 354.49 547.768 354.785C547.177 355.076 546.489 355.222 545.704 355.222ZM556.522 355.222C555.561 355.222 554.719 354.993 553.994 354.536C553.273 354.079 552.71 353.439 552.303 352.617C551.902 351.795 551.701 350.835 551.701 349.736C551.701 348.627 551.902 347.66 552.303 346.833C552.71 346.007 553.273 345.365 553.994 344.908C554.719 344.451 555.561 344.222 556.522 344.222C557.482 344.222 558.323 344.451 559.043 344.908C559.768 345.365 560.332 346.007 560.733 346.833C561.14 347.66 561.343 348.627 561.343 349.736C561.343 350.835 561.14 351.795 560.733 352.617C560.332 353.439 559.768 354.079 559.043 354.536C558.323 354.993 557.482 355.222 556.522 355.222ZM556.522 353.753C557.251 353.753 557.852 353.566 558.323 353.192C558.794 352.818 559.142 352.326 559.369 351.717C559.595 351.107 559.708 350.447 559.708 349.736C559.708 349.025 559.595 348.362 559.369 347.748C559.142 347.134 558.794 346.637 558.323 346.259C557.852 345.88 557.251 345.691 556.522 345.691C555.792 345.691 555.192 345.88 554.721 346.259C554.25 346.637 553.901 347.134 553.675 347.748C553.449 348.362 553.336 349.025 553.336 349.736C553.336 350.447 553.449 351.107 553.675 351.717C553.901 352.326 554.25 352.818 554.721 353.192C555.192 353.566 555.792 353.753 556.522 353.753Z" fill="#9B9B9B"/>
</g>
<g clip-path="url(#clip4_2_6751)">
<rect width="1831" height="2051.44" transform="translate(44 389.858)" fill="#1A1A1A"/>
</g>
</g>
</g>
<path d="M564.994 639.636V708H554.679V639.636H564.994ZM588.255 677.557V708H578.274V656.727H587.854V665.072H588.488C589.668 662.357 591.515 660.177 594.029 658.53C596.566 656.883 599.76 656.06 603.61 656.06C607.104 656.06 610.163 656.794 612.789 658.263C615.415 659.709 617.452 661.868 618.898 664.739C620.345 667.609 621.068 671.159 621.068 675.387V708H611.087V676.589C611.087 672.872 610.119 669.968 608.183 667.876C606.247 665.762 603.587 664.705 600.205 664.705C597.89 664.705 595.832 665.206 594.029 666.207C592.249 667.209 590.836 668.678 589.79 670.614C588.766 672.527 588.255 674.842 588.255 677.557ZM652.707 709.001C648.568 709.001 644.874 707.944 641.625 705.83C638.398 703.694 635.861 700.656 634.014 696.717C632.189 692.756 631.277 688.005 631.277 682.464C631.277 676.923 632.2 672.183 634.048 668.244C635.917 664.305 638.476 661.289 641.725 659.197C644.974 657.106 648.657 656.06 652.774 656.06C655.956 656.06 658.516 656.594 660.452 657.662C662.41 658.708 663.923 659.932 664.991 661.334C666.082 662.736 666.927 663.971 667.528 665.039H668.129V639.636H678.11V708H668.363V700.022H667.528C666.927 701.112 666.06 702.359 664.925 703.761C663.812 705.163 662.276 706.387 660.318 707.433C658.36 708.478 655.823 709.001 652.707 709.001ZM654.91 700.489C657.781 700.489 660.207 699.733 662.187 698.219C664.19 696.684 665.704 694.559 666.727 691.844C667.773 689.129 668.296 685.969 668.296 682.364C668.296 678.803 667.784 675.687 666.761 673.017C665.737 670.347 664.235 668.266 662.254 666.775C660.274 665.284 657.826 664.538 654.91 664.538C651.906 664.538 649.403 665.317 647.4 666.875C645.397 668.433 643.884 670.558 642.86 673.251C641.859 675.943 641.358 678.981 641.358 682.364C641.358 685.791 641.87 688.873 642.893 691.61C643.917 694.347 645.43 696.517 647.433 698.119C649.458 699.699 651.951 700.489 654.91 700.489ZM713.513 709.035C708.462 709.035 704.111 707.955 700.461 705.797C696.834 703.616 694.03 700.556 692.049 696.617C690.091 692.656 689.112 688.016 689.112 682.697C689.112 677.446 690.091 672.817 692.049 668.811C694.03 664.805 696.789 661.679 700.328 659.431C703.888 657.183 708.05 656.06 712.812 656.06C715.705 656.06 718.509 656.538 721.224 657.495C723.939 658.452 726.376 659.954 728.535 662.001C730.693 664.049 732.396 666.708 733.642 669.979C734.888 673.228 735.511 677.179 735.511 681.83V685.368H694.753V677.891H725.731C725.731 675.265 725.196 672.939 724.128 670.914C723.06 668.867 721.558 667.253 719.622 666.074C717.708 664.894 715.46 664.305 712.879 664.305C710.075 664.305 707.627 664.995 705.535 666.374C703.466 667.732 701.863 669.512 700.728 671.715C699.616 673.896 699.059 676.266 699.059 678.825V684.667C699.059 688.094 699.66 691.009 700.862 693.413C702.086 695.816 703.788 697.652 705.969 698.92C708.15 700.167 710.698 700.79 713.613 700.79C715.505 700.79 717.23 700.523 718.787 699.989C720.345 699.432 721.691 698.609 722.826 697.518C723.961 696.428 724.829 695.082 725.43 693.479L734.877 695.182C734.12 697.964 732.763 700.4 730.804 702.492C728.868 704.562 726.432 706.175 723.494 707.332C720.579 708.467 717.252 709.035 713.513 709.035ZM752.33 656.727L763.646 676.689L775.062 656.727H785.977L769.988 682.364L786.111 708H775.195L763.646 688.839L752.129 708H741.18L757.136 682.364L741.381 656.727H752.33ZM843.156 656.727V664.739H815.15V656.727H843.156ZM822.66 644.443H832.641V692.945C832.641 694.881 832.93 696.339 833.509 697.318C834.088 698.275 834.833 698.932 835.746 699.288C836.68 699.621 837.693 699.788 838.783 699.788C839.584 699.788 840.285 699.733 840.886 699.621C841.487 699.51 841.954 699.421 842.288 699.354L844.091 707.599C843.512 707.822 842.689 708.045 841.621 708.267C840.552 708.512 839.217 708.645 837.615 708.668C834.989 708.712 832.541 708.245 830.271 707.266C828.001 706.286 826.165 704.773 824.763 702.726C823.361 700.679 822.66 698.108 822.66 695.015V644.443ZM864.339 677.557V708H854.358V639.636H864.206V665.072H864.84C866.042 662.313 867.878 660.121 870.348 658.496C872.818 656.872 876.045 656.06 880.028 656.06C883.544 656.06 886.615 656.783 889.241 658.229C891.889 659.676 893.937 661.835 895.383 664.705C896.852 667.554 897.586 671.114 897.586 675.387V708H887.606V676.589C887.606 672.828 886.637 669.913 884.701 667.843C882.765 665.751 880.073 664.705 876.623 664.705C874.264 664.705 872.15 665.206 870.281 666.207C868.434 667.209 866.976 668.678 865.908 670.614C864.862 672.527 864.339 674.842 864.339 677.557ZM932.063 709.035C927.012 709.035 922.661 707.955 919.011 705.797C915.384 703.616 912.58 700.556 910.599 696.617C908.641 692.656 907.662 688.016 907.662 682.697C907.662 677.446 908.641 672.817 910.599 668.811C912.58 664.805 915.34 661.679 918.878 659.431C922.438 657.183 926.6 656.06 931.362 656.06C934.255 656.06 937.059 656.538 939.774 657.495C942.489 658.452 944.926 659.954 947.085 662.001C949.243 664.049 950.946 666.708 952.192 669.979C953.438 673.228 954.061 677.179 954.061 681.83V685.368H913.303V677.891H944.281C944.281 675.265 943.746 672.939 942.678 670.914C941.61 668.867 940.108 667.253 938.172 666.074C936.258 664.894 934.01 664.305 931.429 664.305C928.625 664.305 926.177 664.995 924.085 666.374C922.016 667.732 920.413 669.512 919.278 671.715C918.166 673.896 917.609 676.266 917.609 678.825V684.667C917.609 688.094 918.21 691.009 919.412 693.413C920.636 695.816 922.338 697.652 924.519 698.92C926.7 700.167 929.248 700.79 932.163 700.79C934.055 700.79 935.78 700.523 937.337 699.989C938.895 699.432 940.242 698.609 941.376 697.518C942.511 696.428 943.379 695.082 943.98 693.479L953.427 695.182C952.67 697.964 951.313 700.4 949.354 702.492C947.418 704.562 944.982 706.175 942.044 707.332C939.129 708.467 935.802 709.035 932.063 709.035ZM1012.07 656.727V664.739H984.06V656.727H1012.07ZM991.57 644.443H1001.55V692.945C1001.55 694.881 1001.84 696.339 1002.42 697.318C1003 698.275 1003.74 698.932 1004.66 699.288C1005.59 699.621 1006.6 699.788 1007.69 699.788C1008.49 699.788 1009.2 699.733 1009.8 699.621C1010.4 699.51 1010.86 699.421 1011.2 699.354L1013 707.599C1012.42 707.822 1011.6 708.045 1010.53 708.267C1009.46 708.512 1008.13 708.645 1006.52 708.668C1003.9 708.712 1001.45 708.245 999.181 707.266C996.911 706.286 995.075 704.773 993.673 702.726C992.271 700.679 991.57 698.108 991.57 695.015V644.443ZM1022.17 708V656.727H1031.81V664.872H1032.35C1033.28 662.113 1034.93 659.943 1037.29 658.363C1039.67 656.761 1042.36 655.96 1045.37 655.96C1045.99 655.96 1046.72 655.982 1047.57 656.026C1048.44 656.071 1049.12 656.126 1049.61 656.193V665.74C1049.21 665.629 1048.49 665.506 1047.47 665.373C1046.45 665.217 1045.42 665.139 1044.4 665.139C1042.04 665.139 1039.94 665.64 1038.09 666.641C1036.26 667.621 1034.82 668.989 1033.75 670.747C1032.68 672.483 1032.15 674.464 1032.15 676.689V708H1022.17ZM1077.56 709.035C1072.51 709.035 1068.16 707.955 1064.51 705.797C1060.89 703.616 1058.08 700.556 1056.1 696.617C1054.14 692.656 1053.16 688.016 1053.16 682.697C1053.16 677.446 1054.14 672.817 1056.1 668.811C1058.08 664.805 1060.84 661.679 1064.38 659.431C1067.94 657.183 1072.1 656.06 1076.86 656.06C1079.76 656.06 1082.56 656.538 1085.28 657.495C1087.99 658.452 1090.43 659.954 1092.59 662.001C1094.74 664.049 1096.45 666.708 1097.69 669.979C1098.94 673.228 1099.56 677.179 1099.56 681.83V685.368H1058.81V677.891H1089.78C1089.78 675.265 1089.25 672.939 1088.18 670.914C1087.11 668.867 1085.61 667.253 1083.67 666.074C1081.76 664.894 1079.51 664.305 1076.93 664.305C1074.13 664.305 1071.68 664.995 1069.59 666.374C1067.52 667.732 1065.92 669.512 1064.78 671.715C1063.67 673.896 1063.11 676.266 1063.11 678.825V684.667C1063.11 688.094 1063.71 691.009 1064.91 693.413C1066.14 695.816 1067.84 697.652 1070.02 698.92C1072.2 700.167 1074.75 700.79 1077.67 700.79C1079.56 700.79 1081.28 700.523 1082.84 699.989C1084.4 699.432 1085.74 698.609 1086.88 697.518C1088.01 696.428 1088.88 695.082 1089.48 693.479L1098.93 695.182C1098.17 697.964 1096.81 700.4 1094.86 702.492C1092.92 704.562 1090.48 706.175 1087.55 707.332C1084.63 708.467 1081.3 709.035 1077.56 709.035ZM1131.79 709.035C1126.74 709.035 1122.39 707.955 1118.74 705.797C1115.12 703.616 1112.31 700.556 1110.33 696.617C1108.37 692.656 1107.39 688.016 1107.39 682.697C1107.39 677.446 1108.37 672.817 1110.33 668.811C1112.31 664.805 1115.07 661.679 1118.61 659.431C1122.17 657.183 1126.33 656.06 1131.09 656.06C1133.99 656.06 1136.79 656.538 1139.51 657.495C1142.22 658.452 1144.66 659.954 1146.82 662.001C1148.97 664.049 1150.68 666.708 1151.92 669.979C1153.17 673.228 1153.79 677.179 1153.79 681.83V685.368H1113.03V677.891H1144.01C1144.01 675.265 1143.48 672.939 1142.41 670.914C1141.34 668.867 1139.84 667.253 1137.9 666.074C1135.99 664.894 1133.74 664.305 1131.16 664.305C1128.36 664.305 1125.91 664.995 1123.82 666.374C1121.75 667.732 1120.15 669.512 1119.01 671.715C1117.9 673.896 1117.34 676.266 1117.34 678.825V684.667C1117.34 688.094 1117.94 691.009 1119.14 693.413C1120.37 695.816 1122.07 697.652 1124.25 698.92C1126.43 700.167 1128.98 700.79 1131.9 700.79C1133.79 700.79 1135.51 700.523 1137.07 699.989C1138.63 699.432 1139.97 698.609 1141.11 697.518C1142.24 696.428 1143.11 695.082 1143.71 693.479L1153.16 695.182C1152.4 697.964 1151.04 700.4 1149.09 702.492C1147.15 704.562 1144.71 706.175 1141.78 707.332C1138.86 708.467 1135.53 709.035 1131.79 709.035ZM1202.35 669.245L1193.3 670.847C1192.92 669.69 1192.32 668.589 1191.5 667.543C1190.7 666.497 1189.61 665.64 1188.23 664.972C1186.85 664.305 1185.12 663.971 1183.05 663.971C1180.23 663.971 1177.87 664.605 1175.98 665.874C1174.09 667.12 1173.14 668.733 1173.14 670.714C1173.14 672.427 1173.77 673.807 1175.04 674.853C1176.31 675.899 1178.36 676.756 1181.18 677.423L1189.33 679.293C1194.05 680.383 1197.56 682.063 1199.88 684.333C1202.19 686.603 1203.35 689.552 1203.35 693.179C1203.35 696.25 1202.46 698.987 1200.68 701.391C1198.92 703.772 1196.46 705.641 1193.3 706.999C1190.16 708.356 1186.53 709.035 1182.39 709.035C1176.64 709.035 1171.96 707.811 1168.33 705.363C1164.71 702.893 1162.48 699.388 1161.66 694.848L1171.3 693.379C1171.9 695.894 1173.14 697.797 1175.01 699.087C1176.88 700.356 1179.32 700.99 1182.32 700.99C1185.59 700.99 1188.21 700.311 1190.16 698.954C1192.12 697.574 1193.1 695.894 1193.1 693.913C1193.1 692.311 1192.5 690.965 1191.3 689.874C1190.12 688.784 1188.31 687.96 1185.86 687.404L1177.18 685.501C1172.39 684.411 1168.86 682.675 1166.56 680.294C1164.29 677.913 1163.16 674.897 1163.16 671.248C1163.16 668.221 1164 665.573 1165.7 663.303C1167.39 661.033 1169.72 659.264 1172.71 657.996C1175.69 656.705 1179.1 656.06 1182.95 656.06C1188.49 656.06 1192.86 657.261 1196.04 659.665C1199.22 662.046 1201.32 665.239 1202.35 669.245ZM1243.63 727.227C1242.14 727.227 1240.78 727.105 1239.56 726.86C1238.33 726.638 1237.42 726.393 1236.82 726.126L1239.22 717.947C1241.05 718.437 1242.67 718.648 1244.1 718.582C1245.52 718.515 1246.78 717.981 1247.87 716.979C1248.98 715.978 1249.96 714.342 1250.81 712.072L1252.04 708.668L1233.28 656.727H1243.96L1256.95 696.517H1257.48L1270.47 656.727H1281.18L1260.05 714.843C1259.07 717.513 1257.83 719.772 1256.31 721.619C1254.8 723.489 1253 724.891 1250.91 725.825C1248.81 726.76 1246.39 727.227 1243.63 727.227ZM1309.48 709.035C1304.67 709.035 1300.47 707.933 1296.89 705.73C1293.31 703.527 1290.53 700.445 1288.55 696.484C1286.57 692.522 1285.58 687.894 1285.58 682.597C1285.58 677.279 1286.57 672.628 1288.55 668.644C1290.53 664.661 1293.31 661.567 1296.89 659.364C1300.47 657.161 1304.67 656.06 1309.48 656.06C1314.28 656.06 1318.48 657.161 1322.06 659.364C1325.64 661.567 1328.42 664.661 1330.41 668.644C1332.39 672.628 1333.38 677.279 1333.38 682.597C1333.38 687.894 1332.39 692.522 1330.41 696.484C1328.42 700.445 1325.64 703.527 1322.06 705.73C1318.48 707.933 1314.28 709.035 1309.48 709.035ZM1309.51 700.656C1312.62 700.656 1315.21 699.833 1317.25 698.186C1319.3 696.539 1320.81 694.347 1321.79 691.61C1322.79 688.873 1323.3 685.857 1323.3 682.564C1323.3 679.293 1322.79 676.288 1321.79 673.551C1320.81 670.792 1319.3 668.577 1317.25 666.908C1315.21 665.239 1312.62 664.405 1309.51 664.405C1306.37 664.405 1303.77 665.239 1301.7 666.908C1299.65 668.577 1298.13 670.792 1297.12 673.551C1296.15 676.288 1295.66 679.293 1295.66 682.564C1295.66 685.857 1296.15 688.873 1297.12 691.61C1298.13 694.347 1299.65 696.539 1301.7 698.186C1303.77 699.833 1306.37 700.656 1309.51 700.656ZM1376.06 686.737V656.727H1386.07V708H1376.26V699.121H1375.72C1374.54 701.858 1372.65 704.139 1370.05 705.964C1367.47 707.766 1364.25 708.668 1360.4 708.668C1357.11 708.668 1354.19 707.944 1351.66 706.498C1349.14 705.029 1347.16 702.859 1345.71 699.989C1344.29 697.118 1343.58 693.568 1343.58 689.34V656.727H1353.56V688.138C1353.56 691.632 1354.53 694.414 1356.46 696.484C1358.4 698.553 1360.91 699.588 1364.01 699.588C1365.88 699.588 1367.73 699.121 1369.58 698.186C1371.45 697.251 1373 695.838 1374.22 693.947C1375.47 692.055 1376.08 689.652 1376.06 686.737ZM761.529 823.035C756.566 823.035 752.294 821.911 748.711 819.663C745.15 817.393 742.413 814.267 740.499 810.283C738.585 806.3 737.628 801.738 737.628 796.597C737.628 791.39 738.608 786.795 740.566 782.811C742.524 778.805 745.284 775.679 748.844 773.431C752.405 771.183 756.6 770.06 761.429 770.06C765.323 770.06 768.795 770.783 771.844 772.229C774.892 773.654 777.351 775.656 779.221 778.238C781.112 780.819 782.236 783.835 782.592 787.284H772.878C772.344 784.881 771.12 782.811 769.207 781.075C767.315 779.339 764.778 778.472 761.596 778.472C758.814 778.472 756.377 779.206 754.285 780.675C752.216 782.121 750.602 784.191 749.445 786.884C748.288 789.554 747.709 792.714 747.709 796.364C747.709 800.102 748.277 803.329 749.412 806.044C750.547 808.759 752.149 810.862 754.219 812.353C756.31 813.844 758.77 814.589 761.596 814.589C763.487 814.589 765.201 814.245 766.736 813.555C768.294 812.843 769.596 811.83 770.642 810.517C771.71 809.204 772.456 807.624 772.878 805.777H782.592C782.236 809.093 781.157 812.053 779.354 814.656C777.552 817.26 775.137 819.307 772.111 820.798C769.106 822.289 765.579 823.035 761.529 823.035ZM807.247 823.135C803.998 823.135 801.06 822.534 798.434 821.332C795.808 820.108 793.728 818.339 792.192 816.025C790.679 813.71 789.922 810.873 789.922 807.513C789.922 804.62 790.479 802.239 791.591 800.369C792.704 798.5 794.206 797.02 796.098 795.93C797.989 794.839 800.103 794.016 802.44 793.46C804.777 792.903 807.158 792.48 809.583 792.191C812.655 791.835 815.147 791.546 817.061 791.323C818.975 791.078 820.365 790.689 821.233 790.155C822.101 789.621 822.535 788.753 822.535 787.551V787.317C822.535 784.402 821.712 782.143 820.065 780.541C818.44 778.939 816.015 778.138 812.788 778.138C809.428 778.138 806.78 778.883 804.843 780.374C802.93 781.843 801.605 783.479 800.871 785.281L791.491 783.145C792.604 780.029 794.228 777.515 796.365 775.601C798.523 773.665 801.005 772.263 803.809 771.395C806.613 770.505 809.561 770.06 812.655 770.06C814.702 770.06 816.872 770.304 819.164 770.794C821.478 771.261 823.637 772.129 825.64 773.398C827.665 774.666 829.323 776.48 830.613 778.839C831.904 781.175 832.549 784.213 832.549 787.952V822H822.802V814.99H822.402C821.756 816.281 820.788 817.549 819.498 818.795C818.207 820.042 816.549 821.076 814.524 821.9C812.499 822.723 810.073 823.135 807.247 823.135ZM809.417 815.124C812.176 815.124 814.535 814.578 816.493 813.488C818.474 812.397 819.976 810.973 821 809.215C822.046 807.435 822.569 805.532 822.569 803.507V796.898C822.213 797.254 821.523 797.588 820.499 797.899C819.498 798.188 818.351 798.444 817.061 798.667C815.77 798.867 814.513 799.056 813.289 799.234C812.065 799.39 811.041 799.524 810.218 799.635C808.282 799.88 806.512 800.291 804.91 800.87C803.33 801.449 802.062 802.283 801.105 803.374C800.17 804.442 799.703 805.866 799.703 807.646C799.703 810.116 800.615 811.986 802.44 813.254C804.265 814.5 806.59 815.124 809.417 815.124ZM844.903 822V770.727H854.55V778.872H855.084C856.019 776.113 857.666 773.943 860.025 772.363C862.406 770.761 865.099 769.96 868.103 769.96C868.726 769.96 869.46 769.982 870.306 770.026C871.174 770.071 871.853 770.126 872.342 770.193V779.74C871.942 779.629 871.229 779.506 870.206 779.373C869.182 779.217 868.158 779.139 867.135 779.139C864.776 779.139 862.673 779.64 860.826 780.641C859.001 781.621 857.555 782.989 856.486 784.747C855.418 786.483 854.884 788.464 854.884 790.689V822H844.903ZM900.301 823.035C895.25 823.035 890.899 821.955 887.25 819.797C883.622 817.616 880.818 814.556 878.838 810.617C876.879 806.656 875.9 802.016 875.9 796.697C875.9 791.446 876.879 786.817 878.838 782.811C880.818 778.805 883.578 775.679 887.116 773.431C890.677 771.183 894.838 770.06 899.6 770.06C902.493 770.06 905.297 770.538 908.012 771.495C910.727 772.452 913.164 773.954 915.323 776.001C917.481 778.049 919.184 780.708 920.43 783.979C921.676 787.228 922.299 791.179 922.299 795.83V799.368H881.542V791.891H912.519C912.519 789.265 911.985 786.939 910.917 784.914C909.848 782.867 908.346 781.253 906.41 780.074C904.496 778.894 902.249 778.305 899.667 778.305C896.863 778.305 894.415 778.995 892.324 780.374C890.254 781.732 888.652 783.512 887.517 785.715C886.404 787.896 885.848 790.266 885.848 792.825V798.667C885.848 802.094 886.449 805.009 887.65 807.413C888.874 809.816 890.577 811.652 892.757 812.92C894.938 814.167 897.486 814.79 900.402 814.79C902.293 814.79 904.018 814.523 905.576 813.989C907.133 813.432 908.48 812.609 909.615 811.518C910.75 810.428 911.618 809.082 912.218 807.479L921.665 809.182C920.908 811.964 919.551 814.4 917.593 816.492C915.657 818.562 913.22 820.175 910.282 821.332C907.367 822.467 904.04 823.035 900.301 823.035ZM971.292 823.135C968.042 823.135 965.105 822.534 962.479 821.332C959.853 820.108 957.772 818.339 956.237 816.025C954.724 813.71 953.967 810.873 953.967 807.513C953.967 804.62 954.523 802.239 955.636 800.369C956.749 798.5 958.251 797.02 960.142 795.93C962.034 794.839 964.148 794.016 966.485 793.46C968.821 792.903 971.202 792.48 973.628 792.191C976.699 791.835 979.192 791.546 981.105 791.323C983.019 791.078 984.41 790.689 985.278 790.155C986.146 789.621 986.58 788.753 986.58 787.551V787.317C986.58 784.402 985.756 782.143 984.11 780.541C982.485 778.939 980.06 778.138 976.833 778.138C973.472 778.138 970.824 778.883 968.888 780.374C966.974 781.843 965.65 783.479 964.916 785.281L955.536 783.145C956.649 780.029 958.273 777.515 960.409 775.601C962.568 773.665 965.049 772.263 967.853 771.395C970.657 770.505 973.606 770.06 976.699 770.06C978.747 770.06 980.916 770.304 983.208 770.794C985.523 771.261 987.681 772.129 989.684 773.398C991.709 774.666 993.367 776.48 994.658 778.839C995.949 781.175 996.594 784.213 996.594 787.952V822H986.847V814.99H986.446C985.801 816.281 984.833 817.549 983.542 818.795C982.252 820.042 980.594 821.076 978.568 821.9C976.543 822.723 974.118 823.135 971.292 823.135ZM973.461 815.124C976.221 815.124 978.58 814.578 980.538 813.488C982.519 812.397 984.021 810.973 985.044 809.215C986.09 807.435 986.613 805.532 986.613 803.507V796.898C986.257 797.254 985.567 797.588 984.544 797.899C983.542 798.188 982.396 798.444 981.105 798.667C979.815 798.867 978.557 799.056 977.333 799.234C976.109 799.39 975.086 799.524 974.262 799.635C972.326 799.88 970.557 800.291 968.955 800.87C967.375 801.449 966.106 802.283 965.149 803.374C964.215 804.442 963.747 805.866 963.747 807.646C963.747 810.116 964.66 811.986 966.485 813.254C968.31 814.5 970.635 815.124 973.461 815.124ZM1009.75 822V753.636H1019.73V779.039H1020.33C1020.91 777.971 1021.74 776.736 1022.83 775.334C1023.92 773.932 1025.44 772.708 1027.37 771.662C1029.31 770.594 1031.87 770.06 1035.05 770.06C1039.19 770.06 1042.88 771.106 1046.13 773.197C1049.38 775.289 1051.93 778.305 1053.78 782.244C1055.65 786.183 1056.58 790.923 1056.58 796.464C1056.58 802.005 1055.66 806.756 1053.81 810.717C1051.96 814.656 1049.43 817.694 1046.2 819.83C1042.97 821.944 1039.29 823.001 1035.15 823.001C1032.04 823.001 1029.49 822.478 1027.51 821.433C1025.55 820.387 1024.01 819.163 1022.9 817.761C1021.79 816.359 1020.93 815.112 1020.33 814.022H1019.5V822H1009.75ZM1019.53 796.364C1019.53 799.969 1020.05 803.129 1021.1 805.844C1022.14 808.559 1023.66 810.684 1025.64 812.219C1027.62 813.733 1030.04 814.489 1032.92 814.489C1035.9 814.489 1038.39 813.699 1040.39 812.119C1042.4 810.517 1043.91 808.347 1044.93 805.61C1045.98 802.873 1046.5 799.791 1046.5 796.364C1046.5 792.981 1045.99 789.943 1044.97 787.251C1043.96 784.558 1042.45 782.433 1040.43 780.875C1038.42 779.317 1035.92 778.538 1032.92 778.538C1030.02 778.538 1027.57 779.284 1025.57 780.775C1023.59 782.266 1022.09 784.347 1021.07 787.017C1020.04 789.687 1019.53 792.803 1019.53 796.364ZM1088.45 823.035C1083.64 823.035 1079.45 821.933 1075.86 819.73C1072.28 817.527 1069.5 814.445 1067.52 810.484C1065.54 806.522 1064.55 801.894 1064.55 796.597C1064.55 791.279 1065.54 786.628 1067.52 782.644C1069.5 778.661 1072.28 775.567 1075.86 773.364C1079.45 771.161 1083.64 770.06 1088.45 770.06C1093.25 770.06 1097.45 771.161 1101.03 773.364C1104.61 775.567 1107.4 778.661 1109.38 782.644C1111.36 786.628 1112.35 791.279 1112.35 796.597C1112.35 801.894 1111.36 806.522 1109.38 810.484C1107.4 814.445 1104.61 817.527 1101.03 819.73C1097.45 821.933 1093.25 823.035 1088.45 823.035ZM1088.48 814.656C1091.6 814.656 1094.18 813.833 1096.22 812.186C1098.27 810.539 1099.79 808.347 1100.76 805.61C1101.77 802.873 1102.27 799.857 1102.27 796.564C1102.27 793.293 1101.77 790.288 1100.76 787.551C1099.79 784.792 1098.27 782.577 1096.22 780.908C1094.18 779.239 1091.6 778.405 1088.48 778.405C1085.34 778.405 1082.74 779.239 1080.67 780.908C1078.62 782.577 1077.1 784.792 1076.1 787.551C1075.12 790.288 1074.63 793.293 1074.63 796.564C1074.63 799.857 1075.12 802.873 1076.1 805.61C1077.1 808.347 1078.62 810.539 1080.67 812.186C1082.74 813.833 1085.34 814.656 1088.48 814.656ZM1155.03 800.737V770.727H1165.04V822H1155.23V813.121H1154.69C1153.51 815.858 1151.62 818.139 1149.02 819.964C1146.44 821.766 1143.22 822.668 1139.37 822.668C1136.08 822.668 1133.16 821.944 1130.63 820.498C1128.11 819.029 1126.13 816.859 1124.68 813.989C1123.26 811.118 1122.55 807.568 1122.55 803.34V770.727H1132.53V802.138C1132.53 805.632 1133.5 808.414 1135.43 810.484C1137.37 812.553 1139.88 813.588 1142.98 813.588C1144.85 813.588 1146.7 813.121 1148.55 812.186C1150.42 811.251 1151.97 809.838 1153.19 807.947C1154.44 806.055 1155.05 803.652 1155.03 800.737ZM1201.45 770.727V778.739H1173.44V770.727H1201.45ZM1180.95 758.443H1190.93V806.945C1190.93 808.881 1191.22 810.339 1191.8 811.318C1192.38 812.275 1193.12 812.932 1194.04 813.288C1194.97 813.621 1195.98 813.788 1197.07 813.788C1197.87 813.788 1198.58 813.733 1199.18 813.621C1199.78 813.51 1200.24 813.421 1200.58 813.354L1202.38 821.599C1201.8 821.822 1200.98 822.045 1199.91 822.267C1198.84 822.512 1197.51 822.645 1195.91 822.668C1193.28 822.712 1190.83 822.245 1188.56 821.266C1186.29 820.286 1184.46 818.773 1183.05 816.726C1181.65 814.679 1180.95 812.108 1180.95 809.015V758.443Z" fill="white"/>
</g>
<defs>
<filter id="filter0_d_2_6751" x="-56.5286" y="292.496" width="2032.06" height="1748.78" filterUnits="userSpaceOnUse" color-interpolation-filters="sRGB">
<feFlood flood-opacity="0" result="BackgroundImageFix"/>
<feColorMatrix in="SourceAlpha" type="matrix" values="0 0 0 0 0 0 0 0 0 0 0 0 0 0 0 0 0 0 127 0" result="hardAlpha"/>
<feOffset dy="87.0247"/>
<feGaussianBlur stdDeviation="50.2643"/>
<feColorMatrix type="matrix" values="0 0 0 0 0 0 0 0 0 0 0 0 0 0 0 0 0 0 0.09 0"/>
<feBlend mode="normal" in2="BackgroundImageFix" result="effect1_dropShadow_2_6751"/>
<feBlend mode="normal" in="SourceGraphic" in2="effect1_dropShadow_2_6751" result="shape"/>
</filter>
<filter id="filter1_b_2_6751" x="-16.0171" y="245.983" width="1951.03" height="204.278" filterUnits="userSpaceOnUse" color-interpolation-filters="sRGB">
<feFlood flood-opacity="0" result="BackgroundImageFix"/>
<feGaussianBlur in="BackgroundImageFix" stdDeviation="30.0085"/>
<feComposite in2="SourceAlpha" operator="in" result="effect1_backgroundBlur_2_6751"/>
<feBlend mode="normal" in="SourceGraphic" in2="effect1_backgroundBlur_2_6751" result="shape"/>
</filter>
<filter id="filter2_i_2_6751" x="79.1609" y="338.737" width="23.0369" height="23.0369" filterUnits="userSpaceOnUse" color-interpolation-filters="sRGB">
<feFlood flood-opacity="0" result="BackgroundImageFix"/>
<feBlend mode="normal" in="SourceGraphic" in2="BackgroundImageFix" result="shape"/>
<feColorMatrix in="SourceAlpha" type="matrix" values="0 0 0 0 0 0 0 0 0 0 0 0 0 0 0 0 0 0 127 0" result="hardAlpha"/>
<feOffset/>
<feGaussianBlur stdDeviation="4.50128"/>
<feComposite in2="hardAlpha" operator="arithmetic" k2="-1" k3="1"/>
<feColorMatrix type="matrix" values="0 0 0 0 0.92549 0 0 0 0 0.427451 0 0 0 0 0.384314 0 0 0 1 0"/>
<feBlend mode="normal" in2="shape" result="effect1_innerShadow_2_6751"/>
</filter>
<filter id="filter3_i_2_6751" x="121.597" y="338.737" width="23.0369" height="23.0369" filterUnits="userSpaceOnUse" color-interpolation-filters="sRGB">
<feFlood flood-opacity="0" result="BackgroundImageFix"/>
<feBlend mode="normal" in="SourceGraphic" in2="BackgroundImageFix" result="shape"/>
<feColorMatrix in="SourceAlpha" type="matrix" values="0 0 0 0 0 0 0 0 0 0 0 0 0 0 0 0 0 0 127 0" result="hardAlpha"/>
<feOffset/>
<feGaussianBlur stdDeviation="4.50128"/>
<feComposite in2="hardAlpha" operator="arithmetic" k2="-1" k3="1"/>
<feColorMatrix type="matrix" values="0 0 0 0 0.960784 0 0 0 0 0.768627 0 0 0 0 0.317647 0 0 0 1 0"/>
<feBlend mode="normal" in2="shape" result="effect1_innerShadow_2_6751"/>
</filter>
<filter id="filter4_i_2_6751" x="164.033" y="338.737" width="23.0369" height="23.0369" filterUnits="userSpaceOnUse" color-interpolation-filters="sRGB">
<feFlood flood-opacity="0" result="BackgroundImageFix"/>
<feBlend mode="normal" in="SourceGraphic" in2="BackgroundImageFix" result="shape"/>
<feColorMatrix in="SourceAlpha" type="matrix" values="0 0 0 0 0 0 0 0 0 0 0 0 0 0 0 0 0 0 127 0" result="hardAlpha"/>
<feOffset/>
<feGaussianBlur stdDeviation="4.50128"/>
<feComposite in2="hardAlpha" operator="arithmetic" k2="-1" k3="1"/>
<feColorMatrix type="matrix" values="0 0 0 0 0.407843 0 0 0 0 0.8 0 0 0 0 0.345098 0 0 0 1 0"/>
<feBlend mode="normal" in2="shape" result="effect1_innerShadow_2_6751"/>
</filter>
<linearGradient id="paint0_linear_2_6751" x1="721.957" y1="116" x2="721.957" y2="189.55" gradientUnits="userSpaceOnUse">
<stop offset="0.102191" stop-color="#FF7B15"/>
<stop offset="0.86224" stop-color="#FF7B15"/>
</linearGradient>
<clipPath id="clip0_2_6751">
<rect width="1920" height="1080" fill="white"/>
</clipPath>
<clipPath id="clip1_2_6751">
<rect x="44" y="306" width="1831" height="1547.72" rx="29.5736" fill="white"/>
</clipPath>
<clipPath id="clip2_2_6751">
<rect width="111.032" height="42.012" fill="white" transform="translate(1746.66 329.035)"/>
</clipPath>
<clipPath id="clip3_2_6751">
<rect width="99.0282" height="42.012" fill="white" transform="translate(224.657 329.035)"/>
</clipPath>
<clipPath id="clip4_2_6751">
<rect width="1831" height="2051.44" fill="white" transform="translate(44 389.858)"/>
</clipPath>
</defs>
</svg>
