<svg width="1920" height="1080" viewBox="0 0 1920 1080" fill="none" xmlns="http://www.w3.org/2000/svg">
<g clip-path="url(#clip0_1_253)">
<rect width="1920" height="1080" fill="white"/>
<path d="M823.136 143.075H832.001V206.708C832.001 209.03 833.161 210.191 835.483 210.191H840.337V218H834.111C827.568 218 823.136 213.568 823.136 207.131V143.075ZM851.967 162.07H860.831V218H851.967V162.07ZM851.756 153.311V143.18H861.042V153.311H851.756ZM897.887 215.045C883.429 215.045 873.193 203.859 873.193 187.924C873.193 171.99 883.324 160.804 897.781 160.804C905.379 160.804 911.816 164.708 914.349 170.934V162.07H922.791V212.513C922.791 227.287 912.661 235.096 898.098 235.096C886.173 235.096 877.309 228.658 874.776 218.844L884.062 218.211C886.278 223.487 891.133 226.653 898.098 226.653C907.912 226.653 913.927 222.432 913.927 214.518V205.337C911.183 211.246 904.957 215.045 897.887 215.045ZM882.479 187.924C882.479 199.427 888.6 206.603 898.414 206.603C907.806 206.603 913.927 199.427 914.033 187.924C914.244 176.422 908.123 169.246 898.414 169.246C888.6 169.246 882.479 176.422 882.479 187.924ZM937.041 143.075H945.905V169.668C949.071 163.547 955.614 160.804 962.579 160.804C974.187 160.804 981.469 169.035 981.469 182.015V218H972.604V185.181C972.604 174.522 968.7 169.246 960.679 169.246C951.815 169.246 945.905 174.839 945.905 185.181V218H937.041V143.075ZM1000.22 149.406H1009.08V162.07H1023.96V169.879H1009.08V203.12C1009.08 207.764 1011.3 210.191 1015.73 210.191H1023.75V218H1015.73C1005.7 218 1000.22 212.618 1000.22 203.12V169.879H991.986V162.07H1000.22V149.406ZM1085.01 143.075C1108.02 143.075 1121 156.582 1121 180.643C1121 204.598 1108.33 218 1085.65 218H1061.8V143.075H1085.01ZM1070.87 209.136H1085.01C1102.64 209.136 1111.5 199.638 1111.5 180.643C1111.5 161.437 1102.64 151.939 1085.01 151.939H1070.87V209.136ZM1124.15 218L1151.17 143.075H1163.41L1190.42 218H1180.5L1173.01 196.683H1141.56L1134.07 218H1124.15ZM1144.62 187.819H1169.95L1157.29 150.989L1144.62 187.819ZM1204.1 193.412C1206 203.543 1213.18 210.402 1225 210.402C1234.6 210.402 1241.04 206.603 1241.04 199.11C1241.04 191.512 1234.5 186.869 1219.51 183.07C1207.27 180.01 1196.19 173.995 1196.19 161.964C1196.19 149.301 1206.32 141.386 1220.67 141.386C1236.71 141.386 1247.37 151.411 1248.95 165.236L1239.46 165.869C1238.08 156.477 1230.91 150.251 1220.57 150.251C1212.02 150.251 1205.69 154.788 1205.69 161.964C1205.69 171.04 1216.56 173.572 1226.05 176.211C1239.67 180.01 1250.54 186.764 1250.54 198.161C1250.54 212.09 1237.87 219.266 1224.26 219.266C1207.9 219.266 1195.87 209.241 1194.61 194.045L1204.1 193.412Z" fill="#FF7B15"/>
<path fill-rule="evenodd" clip-rule="evenodd" d="M715.561 116C713.795 116 712.363 117.432 712.363 119.198V156.796L685.777 130.21C684.529 128.961 682.504 128.961 681.255 130.21L672.21 139.255C670.961 140.504 670.961 142.529 672.21 143.777L698.796 170.363L661.198 170.363C659.432 170.363 658 171.795 658 173.561V186.352C658 188.118 659.432 189.55 661.198 189.55L782.716 189.55C784.482 189.55 785.913 188.118 785.913 186.352V173.561C785.913 171.795 784.482 170.363 782.716 170.363H745.118L771.703 143.777C772.952 142.529 772.952 140.504 771.703 139.255L762.659 130.21C761.41 128.961 759.385 128.961 758.136 130.21L731.55 156.796V119.198C731.55 117.432 730.118 116 728.352 116H715.561Z" fill="url(#paint0_linear_1_253)" fill-opacity="0.31"/>
<path fill-rule="evenodd" clip-rule="evenodd" d="M685.777 229.703L721.957 193.524L758.136 229.703C759.385 230.952 761.41 230.952 762.659 229.703L771.703 220.659C772.952 219.41 772.952 217.385 771.703 216.136L724.206 168.639C722.957 167.39 720.933 167.39 719.684 168.639L710.639 177.684C710.561 177.762 710.488 177.843 710.419 177.927L672.21 216.136C670.961 217.385 670.961 219.41 672.21 220.659L681.255 229.703C682.504 230.952 684.528 230.952 685.777 229.703ZM715.561 218.331C713.795 218.331 712.363 219.763 712.363 221.529V240.716C712.363 242.482 713.795 243.913 715.561 243.913H728.353C730.119 243.913 731.55 242.482 731.55 240.716V221.529C731.55 219.763 730.119 218.331 728.353 218.331H715.561Z" fill="#FF7B15"/>
<g filter="url(#filter0_d_1_253)">
<g clip-path="url(#clip1_1_253)">
<g filter="url(#filter1_b_1_253)">
<path d="M44 321.004C44 312.718 50.7176 306 59.0043 306H1860C1868.28 306 1875 312.718 1875 321.004V390.244H44V321.004Z" fill="#272727"/>
<g clip-path="url(#clip2_1_253)">
<path d="M1771.41 353.439C1771.95 353.439 1772.4 352.991 1772.4 352.468V339.677L1772.32 337.808L1773.17 338.693L1775.05 340.71C1775.23 340.91 1775.49 341.009 1775.72 341.009C1776.25 341.009 1776.63 340.636 1776.63 340.125C1776.63 339.863 1776.53 339.664 1776.35 339.477L1772.14 335.417C1771.89 335.168 1771.66 335.081 1771.41 335.081C1771.17 335.081 1770.94 335.168 1770.69 335.417L1766.48 339.477C1766.3 339.664 1766.18 339.863 1766.18 340.125C1766.18 340.636 1766.57 341.009 1767.08 341.009C1767.33 341.009 1767.59 340.91 1767.77 340.71L1769.66 338.693L1770.51 337.808L1770.42 339.677V352.468C1770.42 352.991 1770.88 353.439 1771.41 353.439ZM1764.27 363.191H1778.55C1781.15 363.191 1782.46 361.896 1782.46 359.33V346.9C1782.46 344.335 1781.15 343.039 1778.55 343.039H1775.08V345.045H1778.51C1779.75 345.045 1780.46 345.717 1780.46 347.012V359.218C1780.46 360.513 1779.75 361.186 1778.51 361.186H1764.29C1763.05 361.186 1762.36 360.513 1762.36 359.218V347.012C1762.36 345.717 1763.05 345.045 1764.29 345.045H1767.74V343.039H1764.27C1761.66 343.039 1760.35 344.335 1760.35 346.9V359.33C1760.35 361.896 1761.66 363.191 1764.27 363.191Z" fill="white"/>
<path d="M1823.66 357.349H1825.79V359.254C1825.79 361.82 1827.09 363.115 1829.7 363.115H1842.21C1844.8 363.115 1846.11 361.82 1846.11 359.254V346.65C1846.11 344.084 1844.8 342.789 1842.21 342.789H1840.06V340.884C1840.06 338.318 1838.76 337.023 1836.17 337.023H1823.66C1821.05 337.023 1819.75 338.318 1819.75 340.884V353.488C1819.75 356.053 1821.05 357.349 1823.66 357.349ZM1823.69 355.343C1822.44 355.343 1821.76 354.671 1821.76 353.376V340.996C1821.76 339.7 1822.44 339.028 1823.69 339.028H1836.13C1837.36 339.028 1838.06 339.7 1838.06 340.996V342.789H1829.7C1827.09 342.789 1825.79 344.072 1825.79 346.65V355.343H1823.69ZM1829.73 361.11C1828.49 361.11 1827.8 360.437 1827.8 359.142V346.762C1827.8 345.467 1828.49 344.794 1829.73 344.794H1842.17C1843.4 344.794 1844.1 345.467 1844.1 346.762V359.142C1844.1 360.437 1843.4 361.11 1842.17 361.11H1829.73Z" fill="white"/>
</g>
<g clip-path="url(#clip3_1_253)">
<path d="M253.561 360.526L243.684 350.886C243.447 350.649 243.323 350.363 243.323 350.052C243.323 349.728 243.46 349.416 243.696 349.217L253.561 339.565C253.772 339.353 254.046 339.229 254.37 339.229C255.018 339.229 255.503 339.727 255.503 340.374C255.503 340.673 255.379 340.972 255.18 341.184L246.113 350.052L255.18 358.919C255.379 359.131 255.503 359.418 255.503 359.729C255.503 360.377 255.018 360.862 254.37 360.862C254.046 360.862 253.772 360.738 253.561 360.526Z" fill="#9D9D9D"/>
<path d="M293.989 360.875C294.312 360.875 294.586 360.75 294.798 360.539L304.675 350.886C304.911 350.649 305.036 350.363 305.036 350.052C305.036 349.728 304.911 349.429 304.675 349.217L294.811 339.577C294.586 339.353 294.312 339.229 293.989 339.229C293.341 339.229 292.855 339.727 292.855 340.374C292.855 340.673 292.98 340.972 293.179 341.184L302.246 350.052L293.179 358.919C292.98 359.131 292.855 359.418 292.855 359.729C292.855 360.377 293.341 360.875 293.989 360.875Z" fill="#7A7A7A" fill-opacity="0.25"/>
</g>
<g filter="url(#filter2_i_1_253)">
<path fill-rule="evenodd" clip-rule="evenodd" d="M90.6793 361.774C97.0408 361.774 102.198 356.617 102.198 350.255C102.198 343.894 97.0408 338.737 90.6793 338.737C84.3179 338.737 79.1609 343.894 79.1609 350.255C79.1609 356.617 84.3179 361.774 90.6793 361.774Z" fill="#F06959"/>
</g>
<path d="M101.823 350.255C101.823 356.41 96.8336 361.399 90.6793 361.399C84.525 361.399 79.536 356.41 79.536 350.255C79.536 344.101 84.525 339.112 90.6793 339.112C96.8336 339.112 101.823 344.101 101.823 350.255Z" stroke="#CE5347" stroke-width="0.750214"/>
<g filter="url(#filter3_i_1_253)">
<path fill-rule="evenodd" clip-rule="evenodd" d="M133.116 361.774C139.477 361.774 144.634 356.617 144.634 350.255C144.634 343.894 139.477 338.737 133.116 338.737C126.754 338.737 121.597 343.894 121.597 350.255C121.597 356.617 126.754 361.774 133.116 361.774Z" fill="#F4C151"/>
</g>
<path d="M144.259 350.255C144.259 356.41 139.27 361.399 133.116 361.399C126.961 361.399 121.972 356.41 121.972 350.255C121.972 344.101 126.961 339.112 133.116 339.112C139.27 339.112 144.259 344.101 144.259 350.255Z" stroke="#D6A243" stroke-width="0.750214"/>
<g filter="url(#filter4_i_1_253)">
<path fill-rule="evenodd" clip-rule="evenodd" d="M175.552 361.774C181.913 361.774 187.07 356.617 187.07 350.255C187.07 343.894 181.913 338.737 175.552 338.737C169.19 338.737 164.033 343.894 164.033 350.255C164.033 356.617 169.19 361.774 175.552 361.774Z" fill="#61C454"/>
</g>
<path d="M186.695 350.255C186.695 356.41 181.706 361.399 175.552 361.399C169.398 361.399 164.409 356.41 164.409 350.255C164.409 344.101 169.398 339.112 175.552 339.112C181.706 339.112 186.695 344.101 186.695 350.255Z" stroke="#5BC74B" stroke-width="0.750214"/>
<path d="M382.893 337.872C382.893 330.171 389.136 323.928 396.836 323.928H1542.62C1550.32 323.928 1556.56 330.171 1556.56 337.872V357.271C1556.56 364.972 1550.32 371.214 1542.62 371.214H396.836C389.135 371.214 382.893 364.972 382.893 357.271V337.872Z" fill="#262626" stroke="#333333" stroke-width="1.21247"/>
<path d="M418.446 345.319C418.666 345.319 418.833 345.248 418.956 345.116L422.578 341.477C422.736 341.327 422.798 341.151 422.798 340.949C422.798 340.756 422.719 340.562 422.578 340.422L418.956 336.747C418.833 336.606 418.657 336.536 418.446 336.536C418.051 336.536 417.752 336.852 417.752 337.257C417.752 337.441 417.822 337.617 417.945 337.758L420.292 340.061C419.791 339.973 419.281 339.921 418.771 339.921C414.464 339.921 411 343.376 411 347.684C411 352 414.464 355.464 418.771 355.464C423.079 355.464 426.534 352 426.534 347.684C426.534 347.262 426.236 346.954 425.805 346.954C425.392 346.954 425.119 347.262 425.119 347.684C425.119 351.218 422.297 354.049 418.771 354.049C415.246 354.049 412.415 351.218 412.415 347.684C412.415 344.158 415.246 341.336 418.771 341.336C419.44 341.336 420.055 341.389 420.583 341.503L417.954 344.114C417.822 344.255 417.752 344.431 417.752 344.615C417.752 345.02 418.051 345.319 418.446 345.319Z" fill="#9B9B9B"/>
<path d="M443.222 354.576H451.592C452.726 354.576 453.28 354.014 453.28 352.783V346.33C453.28 345.222 452.823 344.65 451.882 344.554V342.338C451.882 339.024 449.711 337.424 447.407 337.424C445.104 337.424 442.932 339.024 442.932 342.338V344.598C442.071 344.73 441.534 345.292 441.534 346.33V352.783C441.534 354.014 442.088 354.576 443.222 354.576ZM444.348 342.154C444.348 339.947 445.763 338.778 447.407 338.778C449.051 338.778 450.467 339.947 450.467 342.154V344.545L444.348 344.554V342.154Z" fill="#9B9B9B"/>
<path d="M471.411 338.814V353H469.776V338.814H471.411ZM474.327 353V342.361H475.962V353H474.327ZM475.158 340.587C474.84 340.587 474.565 340.479 474.334 340.262C474.108 340.045 473.994 339.784 473.994 339.479C473.994 339.174 474.108 338.913 474.334 338.696C474.565 338.479 474.84 338.371 475.158 338.371C475.477 338.371 475.749 338.479 475.975 338.696C476.206 338.913 476.322 339.174 476.322 339.479C476.322 339.784 476.206 340.045 475.975 340.262C475.749 340.479 475.477 340.587 475.158 340.587ZM483.172 357.211C482.383 357.211 481.704 357.11 481.136 356.907C480.568 356.708 480.094 356.445 479.716 356.117C479.342 355.794 479.044 355.447 478.822 355.078L480.124 354.164C480.272 354.358 480.459 354.579 480.686 354.829C480.912 355.083 481.221 355.302 481.614 355.487C482.011 355.676 482.53 355.771 483.172 355.771C484.031 355.771 484.74 355.563 485.299 355.147C485.857 354.732 486.137 354.081 486.137 353.194V351.033H485.998C485.878 351.227 485.707 351.467 485.486 351.753C485.269 352.035 484.955 352.287 484.544 352.508C484.137 352.725 483.588 352.834 482.895 352.834C482.036 352.834 481.265 352.631 480.582 352.224C479.903 351.818 479.365 351.227 478.968 350.451C478.575 349.675 478.379 348.733 478.379 347.625C478.379 346.535 478.571 345.586 478.954 344.778C479.337 343.965 479.87 343.337 480.554 342.894C481.237 342.446 482.027 342.222 482.923 342.222C483.616 342.222 484.165 342.338 484.571 342.568C484.982 342.795 485.296 343.053 485.513 343.344C485.735 343.631 485.906 343.866 486.026 344.051H486.192V342.361H487.772V353.305C487.772 354.219 487.564 354.963 487.148 355.535C486.737 356.112 486.183 356.535 485.486 356.803C484.793 357.075 484.022 357.211 483.172 357.211ZM483.117 351.365C483.773 351.365 484.327 351.215 484.779 350.915C485.232 350.615 485.576 350.183 485.811 349.62C486.047 349.056 486.165 348.382 486.165 347.597C486.165 346.831 486.049 346.154 485.818 345.568C485.587 344.981 485.246 344.522 484.793 344.189C484.341 343.857 483.782 343.691 483.117 343.691C482.424 343.691 481.847 343.866 481.385 344.217C480.928 344.568 480.584 345.039 480.353 345.63C480.127 346.221 480.014 346.877 480.014 347.597C480.014 348.336 480.129 348.989 480.36 349.557C480.595 350.121 480.942 350.564 481.399 350.887C481.861 351.206 482.433 351.365 483.117 351.365ZM492.321 346.6V353H490.686V338.814H492.321V344.023H492.459C492.708 343.473 493.082 343.037 493.581 342.714C494.085 342.386 494.754 342.222 495.59 342.222C496.315 342.222 496.95 342.368 497.495 342.658C498.04 342.945 498.462 343.386 498.762 343.981C499.067 344.573 499.22 345.325 499.22 346.24V353H497.585V346.35C497.585 345.505 497.365 344.852 496.927 344.39C496.493 343.924 495.89 343.691 495.119 343.691C494.583 343.691 494.103 343.804 493.678 344.03C493.258 344.256 492.925 344.586 492.681 345.02C492.441 345.455 492.321 345.981 492.321 346.6ZM506.759 342.361V343.746H501.245V342.361H506.759ZM502.852 339.812H504.487V349.952C504.487 350.414 504.554 350.76 504.688 350.991C504.827 351.218 505.002 351.37 505.214 351.448C505.432 351.522 505.66 351.559 505.9 351.559C506.08 351.559 506.228 351.55 506.344 351.532C506.459 351.508 506.551 351.49 506.621 351.476L506.953 352.945C506.842 352.986 506.688 353.028 506.489 353.069C506.29 353.115 506.039 353.139 505.734 353.139C505.272 353.139 504.82 353.039 504.376 352.841C503.938 352.642 503.573 352.34 503.282 351.933C502.996 351.527 502.852 351.014 502.852 350.396V339.812ZM513.043 353.222C512.157 353.222 511.374 352.998 510.695 352.55C510.016 352.097 509.485 351.46 509.102 350.638C508.719 349.811 508.527 348.835 508.527 347.708C508.527 346.591 508.719 345.621 509.102 344.799C509.485 343.977 510.019 343.342 510.702 342.894C511.385 342.446 512.175 342.222 513.071 342.222C513.764 342.222 514.311 342.338 514.713 342.568C515.119 342.795 515.428 343.053 515.641 343.344C515.858 343.631 516.026 343.866 516.146 344.051H516.285V338.814H517.92V353H516.34V351.365H516.146C516.026 351.559 515.855 351.804 515.634 352.1C515.412 352.39 515.096 352.651 514.685 352.882C514.274 353.109 513.727 353.222 513.043 353.222ZM513.265 351.753C513.921 351.753 514.475 351.582 514.927 351.241C515.38 350.894 515.724 350.416 515.959 349.807C516.195 349.193 516.313 348.484 516.313 347.68C516.313 346.886 516.197 346.191 515.966 345.595C515.735 344.995 515.394 344.529 514.941 344.196C514.489 343.859 513.93 343.691 513.265 343.691C512.572 343.691 511.995 343.868 511.533 344.224C511.076 344.575 510.732 345.053 510.501 345.658C510.275 346.258 510.162 346.932 510.162 347.68C510.162 348.438 510.277 349.126 510.508 349.744C510.744 350.359 511.09 350.848 511.547 351.213C512.009 351.573 512.581 351.753 513.265 351.753ZM524.193 353.249C523.519 353.249 522.907 353.122 522.358 352.868C521.808 352.61 521.372 352.238 521.049 351.753C520.725 351.264 520.564 350.673 520.564 349.98C520.564 349.37 520.684 348.876 520.924 348.498C521.164 348.114 521.485 347.814 521.887 347.597C522.289 347.38 522.732 347.219 523.217 347.112C523.706 347.001 524.198 346.914 524.692 346.849C525.339 346.766 525.863 346.704 526.264 346.662C526.671 346.616 526.966 346.54 527.151 346.434C527.34 346.327 527.435 346.143 527.435 345.879V345.824C527.435 345.141 527.248 344.609 526.874 344.231C526.505 343.852 525.944 343.663 525.191 343.663C524.41 343.663 523.799 343.834 523.355 344.175C522.912 344.517 522.6 344.882 522.42 345.27L520.869 344.716C521.146 344.069 521.515 343.566 521.977 343.206C522.443 342.841 522.951 342.587 523.501 342.444C524.055 342.296 524.6 342.222 525.135 342.222C525.477 342.222 525.87 342.264 526.313 342.347C526.761 342.425 527.193 342.589 527.608 342.839C528.028 343.088 528.377 343.464 528.654 343.968C528.931 344.471 529.07 345.145 529.07 345.99V353H527.435V351.559H527.352C527.241 351.79 527.056 352.037 526.798 352.3C526.539 352.564 526.195 352.788 525.766 352.972C525.336 353.157 524.812 353.249 524.193 353.249ZM524.443 351.781C525.089 351.781 525.634 351.654 526.077 351.4C526.525 351.146 526.862 350.818 527.089 350.416C527.32 350.015 527.435 349.592 527.435 349.149V347.653C527.366 347.736 527.213 347.812 526.978 347.881C526.747 347.946 526.479 348.004 526.174 348.054C525.874 348.101 525.581 348.142 525.295 348.179C525.013 348.211 524.784 348.239 524.609 348.262C524.184 348.318 523.787 348.408 523.418 348.532C523.053 348.652 522.757 348.835 522.531 349.079C522.309 349.32 522.199 349.647 522.199 350.063C522.199 350.631 522.409 351.061 522.829 351.351C523.254 351.638 523.792 351.781 524.443 351.781ZM539.512 344.743L538.043 345.159C537.951 344.914 537.815 344.676 537.635 344.446C537.459 344.21 537.219 344.016 536.914 343.864C536.609 343.711 536.219 343.635 535.744 343.635C535.092 343.635 534.55 343.785 534.116 344.085C533.686 344.381 533.472 344.757 533.472 345.214C533.472 345.621 533.619 345.942 533.915 346.177C534.21 346.413 534.672 346.609 535.3 346.766L536.88 347.154C537.831 347.385 538.54 347.738 539.006 348.214C539.472 348.685 539.706 349.292 539.706 350.035C539.706 350.645 539.53 351.19 539.179 351.67C538.833 352.15 538.348 352.529 537.725 352.806C537.101 353.083 536.376 353.222 535.55 353.222C534.464 353.222 533.566 352.986 532.855 352.515C532.144 352.044 531.694 351.356 531.504 350.451L533.056 350.063C533.204 350.636 533.483 351.065 533.894 351.351C534.31 351.638 534.852 351.781 535.522 351.781C536.284 351.781 536.889 351.619 537.337 351.296C537.789 350.968 538.016 350.576 538.016 350.118C538.016 349.749 537.886 349.44 537.628 349.19C537.369 348.936 536.972 348.747 536.436 348.622L534.663 348.207C533.689 347.976 532.973 347.618 532.516 347.133C532.063 346.644 531.837 346.032 531.837 345.298C531.837 344.697 532.005 344.166 532.343 343.704C532.684 343.243 533.148 342.88 533.735 342.617C534.326 342.354 534.995 342.222 535.744 342.222C536.796 342.222 537.623 342.453 538.223 342.915C538.828 343.377 539.258 343.986 539.512 344.743ZM543.28 353.111C542.938 353.111 542.645 352.988 542.4 352.744C542.155 352.499 542.033 352.206 542.033 351.864C542.033 351.522 542.155 351.229 542.4 350.984C542.645 350.74 542.938 350.617 543.28 350.617C543.621 350.617 543.915 350.74 544.159 350.984C544.404 351.229 544.526 351.522 544.526 351.864C544.526 352.09 544.469 352.298 544.353 352.487C544.242 352.677 544.092 352.829 543.903 352.945C543.718 353.055 543.511 353.111 543.28 353.111ZM551.704 353.222C550.707 353.222 549.848 352.986 549.127 352.515C548.407 352.044 547.853 351.395 547.465 350.569C547.077 349.742 546.883 348.798 546.883 347.736C546.883 346.655 547.082 345.702 547.479 344.875C547.881 344.044 548.439 343.395 549.155 342.929C549.876 342.458 550.716 342.222 551.676 342.222C552.425 342.222 553.099 342.361 553.699 342.638C554.299 342.915 554.791 343.303 555.174 343.801C555.558 344.3 555.796 344.882 555.888 345.547H554.253C554.129 345.062 553.851 344.633 553.422 344.259C552.997 343.88 552.425 343.691 551.704 343.691C551.067 343.691 550.508 343.857 550.028 344.189C549.552 344.517 549.181 344.981 548.913 345.582C548.65 346.177 548.518 346.877 548.518 347.68C548.518 348.502 548.647 349.218 548.906 349.828C549.169 350.437 549.538 350.91 550.014 351.248C550.494 351.585 551.058 351.753 551.704 351.753C552.129 351.753 552.515 351.679 552.861 351.532C553.207 351.384 553.5 351.171 553.741 350.894C553.981 350.617 554.152 350.285 554.253 349.897H555.888C555.796 350.525 555.567 351.091 555.202 351.594C554.842 352.093 554.364 352.49 553.768 352.785C553.177 353.076 552.489 353.222 551.704 353.222ZM562.522 353.222C561.561 353.222 560.719 352.993 559.994 352.536C559.273 352.079 558.71 351.439 558.303 350.617C557.902 349.795 557.701 348.835 557.701 347.736C557.701 346.627 557.902 345.66 558.303 344.833C558.71 344.007 559.273 343.365 559.994 342.908C560.719 342.451 561.561 342.222 562.522 342.222C563.482 342.222 564.323 342.451 565.043 342.908C565.768 343.365 566.332 344.007 566.733 344.833C567.14 345.66 567.343 346.627 567.343 347.736C567.343 348.835 567.14 349.795 566.733 350.617C566.332 351.439 565.768 352.079 565.043 352.536C564.323 352.993 563.482 353.222 562.522 353.222ZM562.522 351.753C563.251 351.753 563.852 351.566 564.323 351.192C564.794 350.818 565.142 350.326 565.369 349.717C565.595 349.107 565.708 348.447 565.708 347.736C565.708 347.025 565.595 346.362 565.369 345.748C565.142 345.134 564.794 344.637 564.323 344.259C563.852 343.88 563.251 343.691 562.522 343.691C561.792 343.691 561.192 343.88 560.721 344.259C560.25 344.637 559.901 345.134 559.675 345.748C559.449 346.362 559.336 347.025 559.336 347.736C559.336 348.447 559.449 349.107 559.675 349.717C559.901 350.326 560.25 350.818 560.721 351.192C561.192 351.566 561.792 351.753 562.522 351.753Z" fill="#9B9B9B"/>
</g>
<g clip-path="url(#clip4_1_253)">
<rect width="1831" height="2051.44" transform="translate(44 389.858)" fill="#1A1A1A"/>
</g>
</g>
</g>
<path d="M350.363 647V578.636H360.678V638.121H391.655V647H350.363ZM401.681 647V595.727H411.662V647H401.681ZM406.721 587.816C404.985 587.816 403.494 587.237 402.248 586.08C401.024 584.901 400.412 583.499 400.412 581.874C400.412 580.228 401.024 578.826 402.248 577.668C403.494 576.489 404.985 575.899 406.721 575.899C408.457 575.899 409.937 576.489 411.161 577.668C412.407 578.826 413.03 580.228 413.03 581.874C413.03 583.499 412.407 584.901 411.161 586.08C409.937 587.237 408.457 587.816 406.721 587.816ZM445.646 667.295C441.574 667.295 438.069 666.761 435.131 665.693C432.216 664.625 429.835 663.212 427.988 661.454C426.141 659.696 424.761 657.771 423.849 655.679L432.427 652.141C433.028 653.12 433.829 654.155 434.831 655.245C435.854 656.358 437.234 657.304 438.97 658.082C440.728 658.861 442.987 659.251 445.746 659.251C449.529 659.251 452.656 658.327 455.126 656.48C457.596 654.655 458.832 651.74 458.832 647.734V637.653H458.197C457.596 638.744 456.729 639.957 455.594 641.292C454.481 642.627 452.945 643.784 450.987 644.763C449.029 645.743 446.481 646.232 443.343 646.232C439.293 646.232 435.643 645.286 432.394 643.395C429.167 641.481 426.608 638.666 424.716 634.95C422.847 631.211 421.912 626.616 421.912 621.163C421.912 615.711 422.836 611.038 424.683 607.143C426.552 603.249 429.112 600.267 432.361 598.197C435.61 596.106 439.293 595.06 443.41 595.06C446.592 595.06 449.162 595.594 451.121 596.662C453.079 597.708 454.603 598.932 455.694 600.334C456.806 601.736 457.663 602.971 458.264 604.039H458.998V595.727H468.779V648.135C468.779 652.541 467.755 656.157 465.708 658.984C463.661 661.81 460.89 663.902 457.396 665.259C453.925 666.617 450.008 667.295 445.646 667.295ZM445.546 637.954C448.417 637.954 450.842 637.286 452.823 635.951C454.826 634.594 456.339 632.657 457.363 630.143C458.409 627.606 458.932 624.568 458.932 621.03C458.932 617.58 458.42 614.543 457.396 611.917C456.372 609.291 454.87 607.244 452.89 605.775C450.909 604.284 448.461 603.538 445.546 603.538C442.542 603.538 440.038 604.317 438.035 605.875C436.033 607.411 434.519 609.502 433.496 612.151C432.494 614.799 431.993 617.759 431.993 621.03C431.993 624.39 432.505 627.339 433.529 629.876C434.553 632.413 436.066 634.393 438.069 635.817C440.094 637.242 442.586 637.954 445.546 637.954ZM491.205 616.557V647H481.225V578.636H491.072V604.072H491.706C492.908 601.313 494.744 599.121 497.214 597.496C499.684 595.872 502.911 595.06 506.894 595.06C510.41 595.06 513.481 595.783 516.107 597.229C518.756 598.676 520.803 600.835 522.249 603.705C523.718 606.554 524.453 610.114 524.453 614.387V647H514.472V615.589C514.472 611.828 513.504 608.913 511.568 606.843C509.632 604.751 506.939 603.705 503.49 603.705C501.131 603.705 499.016 604.206 497.147 605.207C495.3 606.209 493.842 607.678 492.774 609.614C491.728 611.527 491.205 613.842 491.205 616.557ZM560.765 595.727V603.739H532.759V595.727H560.765ZM540.27 583.443H550.251V631.945C550.251 633.881 550.54 635.339 551.118 636.318C551.697 637.275 552.443 637.932 553.355 638.288C554.29 638.621 555.302 638.788 556.393 638.788C557.194 638.788 557.895 638.733 558.496 638.621C559.096 638.51 559.564 638.421 559.898 638.354L561.7 646.599C561.121 646.822 560.298 647.045 559.23 647.267C558.162 647.512 556.827 647.645 555.224 647.668C552.598 647.712 550.15 647.245 547.88 646.266C545.611 645.286 543.775 643.773 542.373 641.726C540.971 639.679 540.27 637.108 540.27 634.015V583.443ZM594.9 647H572.769V578.636H595.601C602.3 578.636 608.052 580.005 612.859 582.742C617.666 585.457 621.349 589.363 623.908 594.459C626.489 599.533 627.78 605.619 627.78 612.718C627.78 619.839 626.478 625.959 623.875 631.077C621.293 636.196 617.555 640.135 612.659 642.894C607.763 645.631 601.843 647 594.9 647ZM583.083 637.987H594.333C599.54 637.987 603.868 637.008 607.318 635.05C610.767 633.069 613.349 630.21 615.062 626.471C616.776 622.71 617.632 618.126 617.632 612.718C617.632 607.355 616.776 602.804 615.062 599.065C613.371 595.327 610.845 592.489 607.485 590.553C604.124 588.617 599.952 587.649 594.967 587.649H583.083V637.987ZM642.045 647H631.096L655.698 578.636H667.615L692.216 647H681.267L661.94 591.054H661.406L642.045 647ZM643.881 620.229H679.398V628.908H643.881V620.229ZM737.884 596.595C737.528 593.435 736.059 590.987 733.478 589.251C730.896 587.493 727.647 586.614 723.731 586.614C720.927 586.614 718.501 587.059 716.454 587.95C714.406 588.817 712.815 590.019 711.68 591.555C710.567 593.068 710.011 594.793 710.011 596.729C710.011 598.353 710.389 599.755 711.146 600.935C711.925 602.114 712.938 603.104 714.184 603.906C715.452 604.684 716.81 605.341 718.256 605.875C719.703 606.387 721.094 606.81 722.429 607.143L729.105 608.879C731.286 609.413 733.522 610.137 735.814 611.049C738.107 611.961 740.232 613.163 742.19 614.654C744.148 616.145 745.728 617.992 746.93 620.195C748.154 622.398 748.766 625.036 748.766 628.107C748.766 631.979 747.765 635.417 745.762 638.421C743.781 641.425 740.899 643.795 737.116 645.531C733.355 647.267 728.804 648.135 723.464 648.135C718.345 648.135 713.917 647.323 710.178 645.698C706.439 644.074 703.513 641.77 701.399 638.788C699.285 635.784 698.116 632.223 697.894 628.107H708.242C708.442 630.577 709.243 632.635 710.645 634.282C712.07 635.906 713.883 637.119 716.086 637.92C718.312 638.699 720.749 639.089 723.397 639.089C726.312 639.089 728.905 638.633 731.174 637.72C733.467 636.786 735.269 635.495 736.582 633.848C737.895 632.179 738.552 630.232 738.552 628.006C738.552 625.981 737.973 624.323 736.816 623.033C735.681 621.742 734.134 620.674 732.176 619.828C730.24 618.982 728.048 618.237 725.6 617.592L717.522 615.388C712.047 613.897 707.708 611.705 704.503 608.812C701.321 605.92 699.73 602.092 699.73 597.33C699.73 593.391 700.798 589.952 702.934 587.015C705.071 584.077 707.964 581.796 711.613 580.172C715.263 578.525 719.38 577.702 723.964 577.702C728.593 577.702 732.677 578.514 736.215 580.138C739.776 581.763 742.58 584 744.627 586.848C746.674 589.674 747.742 592.923 747.831 596.595H737.884ZM783.288 647V595.727H793.269V647H783.288ZM788.328 587.816C786.592 587.816 785.101 587.237 783.855 586.08C782.631 584.901 782.019 583.499 782.019 581.874C782.019 580.228 782.631 578.826 783.855 577.668C785.101 576.489 786.592 575.899 788.328 575.899C790.064 575.899 791.544 576.489 792.768 577.668C794.014 578.826 794.637 580.228 794.637 581.874C794.637 583.499 794.014 584.901 792.768 586.08C791.544 587.237 790.064 587.816 788.328 587.816ZM844.177 608.245L835.131 609.847C834.753 608.69 834.152 607.589 833.328 606.543C832.527 605.497 831.437 604.64 830.057 603.972C828.677 603.305 826.953 602.971 824.883 602.971C822.057 602.971 819.698 603.605 817.806 604.874C815.915 606.12 814.969 607.733 814.969 609.714C814.969 611.427 815.603 612.807 816.872 613.853C818.14 614.899 820.188 615.756 823.014 616.423L831.159 618.293C835.876 619.383 839.393 621.063 841.707 623.333C844.021 625.603 845.179 628.552 845.179 632.179C845.179 635.25 844.288 637.987 842.508 640.391C840.75 642.772 838.291 644.641 835.131 645.999C831.993 647.356 828.355 648.035 824.215 648.035C818.474 648.035 813.79 646.811 810.162 644.363C806.535 641.893 804.309 638.388 803.486 633.848L813.133 632.379C813.734 634.894 814.969 636.797 816.838 638.087C818.708 639.356 821.144 639.99 824.149 639.99C827.42 639.99 830.035 639.311 831.993 637.954C833.951 636.574 834.931 634.894 834.931 632.913C834.931 631.311 834.33 629.965 833.128 628.874C831.949 627.784 830.135 626.96 827.687 626.404L819.008 624.501C814.224 623.411 810.685 621.675 808.393 619.294C806.123 616.913 804.988 613.897 804.988 610.248C804.988 607.221 805.834 604.573 807.525 602.303C809.216 600.033 811.553 598.264 814.535 596.996C817.517 595.705 820.933 595.06 824.783 595.06C830.324 595.06 834.686 596.261 837.868 598.665C841.05 601.046 843.153 604.239 844.177 608.245ZM894.071 648.135C890.821 648.135 887.884 647.534 885.258 646.332C882.632 645.108 880.551 643.339 879.016 641.025C877.503 638.71 876.746 635.873 876.746 632.513C876.746 629.62 877.302 627.239 878.415 625.369C879.528 623.5 881.03 622.02 882.921 620.93C884.813 619.839 886.927 619.016 889.264 618.46C891.6 617.903 893.981 617.48 896.407 617.191C899.478 616.835 901.971 616.546 903.884 616.323C905.798 616.078 907.189 615.689 908.057 615.155C908.925 614.621 909.359 613.753 909.359 612.551V612.317C909.359 609.402 908.535 607.143 906.889 605.541C905.264 603.939 902.838 603.138 899.612 603.138C896.251 603.138 893.603 603.883 891.667 605.374C889.753 606.843 888.429 608.479 887.695 610.281L878.315 608.145C879.428 605.029 881.052 602.515 883.188 600.601C885.347 598.665 887.828 597.263 890.632 596.395C893.436 595.505 896.385 595.06 899.478 595.06C901.526 595.06 903.695 595.304 905.987 595.794C908.302 596.261 910.46 597.129 912.463 598.398C914.488 599.666 916.146 601.48 917.437 603.839C918.728 606.175 919.373 609.213 919.373 612.952V647H909.626V639.99H909.225C908.58 641.281 907.612 642.549 906.321 643.795C905.03 645.042 903.373 646.076 901.347 646.9C899.322 647.723 896.897 648.135 894.071 648.135ZM896.24 640.124C899 640.124 901.359 639.578 903.317 638.488C905.298 637.397 906.8 635.973 907.823 634.215C908.869 632.435 909.392 630.532 909.392 628.507V621.898C909.036 622.254 908.346 622.588 907.323 622.899C906.321 623.188 905.175 623.444 903.884 623.667C902.594 623.867 901.336 624.056 900.112 624.234C898.888 624.39 897.865 624.524 897.041 624.635C895.105 624.88 893.336 625.291 891.734 625.87C890.154 626.449 888.885 627.283 887.928 628.374C886.994 629.442 886.526 630.866 886.526 632.646C886.526 635.116 887.439 636.986 889.264 638.254C891.088 639.5 893.414 640.124 896.24 640.124ZM965.645 578.636V647H955.664V578.636H965.645ZM978.132 647V595.727H988.113V647H978.132ZM983.173 587.816C981.437 587.816 979.946 587.237 978.7 586.08C977.476 584.901 976.864 583.499 976.864 581.874C976.864 580.228 977.476 578.826 978.7 577.668C979.946 576.489 981.437 575.899 983.173 575.899C984.908 575.899 986.388 576.489 987.612 577.668C988.858 578.826 989.482 580.228 989.482 581.874C989.482 583.499 988.858 584.901 987.612 586.08C986.388 587.237 984.908 587.816 983.173 587.816ZM1022.1 667.295C1018.03 667.295 1014.52 666.761 1011.58 665.693C1008.67 664.625 1006.29 663.212 1004.44 661.454C1002.59 659.696 1001.21 657.771 1000.3 655.679L1008.88 652.141C1009.48 653.12 1010.28 654.155 1011.28 655.245C1012.31 656.358 1013.69 657.304 1015.42 658.082C1017.18 658.861 1019.44 659.251 1022.2 659.251C1025.98 659.251 1029.11 658.327 1031.58 656.48C1034.05 654.655 1035.28 651.74 1035.28 647.734V637.653H1034.65C1034.05 638.744 1033.18 639.957 1032.04 641.292C1030.93 642.627 1029.4 643.784 1027.44 644.763C1025.48 645.743 1022.93 646.232 1019.79 646.232C1015.74 646.232 1012.09 645.286 1008.85 643.395C1005.62 641.481 1003.06 638.666 1001.17 634.95C999.298 631.211 998.364 626.616 998.364 621.163C998.364 615.711 999.287 611.038 1001.13 607.143C1003 603.249 1005.56 600.267 1008.81 598.197C1012.06 596.106 1015.74 595.06 1019.86 595.06C1023.04 595.06 1025.61 595.594 1027.57 596.662C1029.53 597.708 1031.05 598.932 1032.15 600.334C1033.26 601.736 1034.11 602.971 1034.72 604.039H1035.45V595.727H1045.23V648.135C1045.23 652.541 1044.21 656.157 1042.16 658.984C1040.11 661.81 1037.34 663.902 1033.85 665.259C1030.38 666.617 1026.46 667.295 1022.1 667.295ZM1022 637.954C1024.87 637.954 1027.29 637.286 1029.27 635.951C1031.28 634.594 1032.79 632.657 1033.81 630.143C1034.86 627.606 1035.38 624.568 1035.38 621.03C1035.38 617.58 1034.87 614.543 1033.85 611.917C1032.82 609.291 1031.32 607.244 1029.34 605.775C1027.36 604.284 1024.91 603.538 1022 603.538C1018.99 603.538 1016.49 604.317 1014.49 605.875C1012.48 607.411 1010.97 609.502 1009.95 612.151C1008.95 614.799 1008.44 617.759 1008.44 621.03C1008.44 624.39 1008.96 627.339 1009.98 629.876C1011 632.413 1012.52 634.393 1014.52 635.817C1016.55 637.242 1019.04 637.954 1022 637.954ZM1067.66 616.557V647H1057.68V578.636H1067.52V604.072H1068.16C1069.36 601.313 1071.2 599.121 1073.67 597.496C1076.14 595.872 1079.36 595.06 1083.35 595.06C1086.86 595.06 1089.93 595.783 1092.56 597.229C1095.21 598.676 1097.25 600.835 1098.7 603.705C1100.17 606.554 1100.9 610.114 1100.9 614.387V647H1090.92V615.589C1090.92 611.828 1089.96 608.913 1088.02 606.843C1086.08 604.751 1083.39 603.705 1079.94 603.705C1077.58 603.705 1075.47 604.206 1073.6 605.207C1071.75 606.209 1070.29 607.678 1069.23 609.614C1068.18 611.527 1067.66 613.842 1067.66 616.557ZM1137.22 595.727V603.739H1109.21V595.727H1137.22ZM1116.72 583.443H1126.7V631.945C1126.7 633.881 1126.99 635.339 1127.57 636.318C1128.15 637.275 1128.89 637.932 1129.81 638.288C1130.74 638.621 1131.75 638.788 1132.84 638.788C1133.65 638.788 1134.35 638.733 1134.95 638.621C1135.55 638.51 1136.02 638.421 1136.35 638.354L1138.15 646.599C1137.57 646.822 1136.75 647.045 1135.68 647.267C1134.61 647.512 1133.28 647.645 1131.68 647.668C1129.05 647.712 1126.6 647.245 1124.33 646.266C1122.06 645.286 1120.23 643.773 1118.82 641.726C1117.42 639.679 1116.72 637.108 1116.72 634.015V583.443ZM1168.86 648.035C1163.81 648.035 1159.46 646.955 1155.81 644.797C1152.19 642.616 1149.38 639.556 1147.4 635.617C1145.44 631.656 1144.46 627.016 1144.46 621.697C1144.46 616.446 1145.44 611.817 1147.4 607.811C1149.38 603.805 1152.14 600.679 1155.68 598.431C1159.24 596.183 1163.4 595.06 1168.16 595.06C1171.06 595.06 1173.86 595.538 1176.58 596.495C1179.29 597.452 1181.73 598.954 1183.89 601.001C1186.04 603.049 1187.75 605.708 1188.99 608.979C1190.24 612.228 1190.86 616.179 1190.86 620.83V624.368H1150.1V616.891H1181.08C1181.08 614.265 1180.55 611.939 1179.48 609.914C1178.41 607.867 1176.91 606.253 1174.97 605.074C1173.06 603.894 1170.81 603.305 1168.23 603.305C1165.43 603.305 1162.98 603.995 1160.89 605.374C1158.82 606.732 1157.21 608.512 1156.08 610.715C1154.97 612.896 1154.41 615.266 1154.41 617.825V623.667C1154.41 627.094 1155.01 630.009 1156.21 632.413C1157.44 634.816 1159.14 636.652 1161.32 637.92C1163.5 639.167 1166.05 639.79 1168.96 639.79C1170.86 639.79 1172.58 639.523 1174.14 638.989C1175.7 638.432 1177.04 637.609 1178.18 636.518C1179.31 635.428 1180.18 634.082 1180.78 632.479L1190.23 634.182C1189.47 636.964 1188.11 639.4 1186.16 641.492C1184.22 643.562 1181.78 645.175 1178.85 646.332C1175.93 647.467 1172.6 648.035 1168.86 648.035ZM1201 647V595.727H1210.64V603.872H1211.18C1212.11 601.113 1213.76 598.943 1216.12 597.363C1218.5 595.761 1221.19 594.96 1224.2 594.96C1224.82 594.96 1225.55 594.982 1226.4 595.026C1227.27 595.071 1227.95 595.126 1228.44 595.193V604.74C1228.03 604.629 1227.32 604.506 1226.3 604.373C1225.28 604.217 1224.25 604.139 1223.23 604.139C1220.87 604.139 1218.77 604.64 1216.92 605.641C1215.09 606.621 1213.65 607.989 1212.58 609.747C1211.51 611.483 1210.98 613.464 1210.98 615.689V647H1201ZM1303.93 595.727L1285.34 647H1274.66L1256.03 595.727H1266.75L1279.73 635.183H1280.26L1293.22 595.727H1303.93ZM1332.73 648.035C1327.67 648.035 1323.32 646.955 1319.67 644.797C1316.05 642.616 1313.24 639.556 1311.26 635.617C1309.3 631.656 1308.32 627.016 1308.32 621.697C1308.32 616.446 1309.3 611.817 1311.26 607.811C1313.24 603.805 1316 600.679 1319.54 598.431C1323.1 596.183 1327.26 595.06 1332.02 595.06C1334.92 595.06 1337.72 595.538 1340.44 596.495C1343.15 597.452 1345.59 598.954 1347.75 601.001C1349.91 603.049 1351.61 605.708 1352.85 608.979C1354.1 612.228 1354.72 616.179 1354.72 620.83V624.368H1313.97V616.891H1344.94C1344.94 614.265 1344.41 611.939 1343.34 609.914C1342.27 607.867 1340.77 606.253 1338.83 605.074C1336.92 603.894 1334.67 603.305 1332.09 603.305C1329.29 603.305 1326.84 603.995 1324.75 605.374C1322.68 606.732 1321.08 608.512 1319.94 610.715C1318.83 612.896 1318.27 615.266 1318.27 617.825V623.667C1318.27 627.094 1318.87 630.009 1320.07 632.413C1321.3 634.816 1323 636.652 1325.18 637.92C1327.36 639.167 1329.91 639.79 1332.83 639.79C1334.72 639.79 1336.44 639.523 1338 638.989C1339.56 638.432 1340.9 637.609 1342.04 636.518C1343.17 635.428 1344.04 634.082 1344.64 632.479L1354.09 634.182C1353.33 636.964 1351.98 639.4 1350.02 641.492C1348.08 643.562 1345.64 645.175 1342.71 646.332C1339.79 647.467 1336.46 648.035 1332.73 648.035ZM1364.86 647V595.727H1374.5V603.872H1375.04C1375.97 601.113 1377.62 598.943 1379.98 597.363C1382.36 595.761 1385.05 594.96 1388.06 594.96C1388.68 594.96 1389.41 594.982 1390.26 595.026C1391.13 595.071 1391.81 595.126 1392.3 595.193V604.74C1391.9 604.629 1391.18 604.506 1390.16 604.373C1389.14 604.217 1388.11 604.139 1387.09 604.139C1384.73 604.139 1382.63 604.64 1380.78 605.641C1378.96 606.621 1377.51 607.989 1376.44 609.747C1375.37 611.483 1374.84 613.464 1374.84 615.689V647H1364.86ZM1438.41 608.245L1429.37 609.847C1428.99 608.69 1428.39 607.589 1427.57 606.543C1426.77 605.497 1425.67 604.64 1424.29 603.972C1422.92 603.305 1421.19 602.971 1419.12 602.971C1416.29 602.971 1413.94 603.605 1412.04 604.874C1410.15 606.12 1409.21 607.733 1409.21 609.714C1409.21 611.427 1409.84 612.807 1411.11 613.853C1412.38 614.899 1414.43 615.756 1417.25 616.423L1425.4 618.293C1430.11 619.383 1433.63 621.063 1435.94 623.333C1438.26 625.603 1439.42 628.552 1439.42 632.179C1439.42 635.25 1438.53 637.987 1436.75 640.391C1434.99 642.772 1432.53 644.641 1429.37 645.999C1426.23 647.356 1422.59 648.035 1418.45 648.035C1412.71 648.035 1408.03 646.811 1404.4 644.363C1400.77 641.893 1398.55 638.388 1397.72 633.848L1407.37 632.379C1407.97 634.894 1409.21 636.797 1411.08 638.087C1412.95 639.356 1415.38 639.99 1418.39 639.99C1421.66 639.99 1424.27 639.311 1426.23 637.954C1428.19 636.574 1429.17 634.894 1429.17 632.913C1429.17 631.311 1428.57 629.965 1427.37 628.874C1426.19 627.784 1424.37 626.96 1421.92 626.404L1413.25 624.501C1408.46 623.411 1404.92 621.675 1402.63 619.294C1400.36 616.913 1399.23 613.897 1399.23 610.248C1399.23 607.221 1400.07 604.573 1401.76 602.303C1403.45 600.033 1405.79 598.264 1408.77 596.996C1411.75 595.705 1415.17 595.06 1419.02 595.06C1424.56 595.06 1428.92 596.261 1432.11 598.665C1435.29 601.046 1437.39 604.239 1438.41 608.245ZM1449.45 647V595.727H1459.43V647H1449.45ZM1454.49 587.816C1452.76 587.816 1451.26 587.237 1450.02 586.08C1448.79 584.901 1448.18 583.499 1448.18 581.874C1448.18 580.228 1448.79 578.826 1450.02 577.668C1451.26 576.489 1452.76 575.899 1454.49 575.899C1456.23 575.899 1457.71 576.489 1458.93 577.668C1460.18 578.826 1460.8 580.228 1460.8 581.874C1460.8 583.499 1460.18 584.901 1458.93 586.08C1457.71 587.237 1456.23 587.816 1454.49 587.816ZM1493.52 648.035C1488.71 648.035 1484.51 646.933 1480.93 644.73C1477.35 642.527 1474.57 639.445 1472.59 635.484C1470.61 631.522 1469.62 626.894 1469.62 621.597C1469.62 616.279 1470.61 611.628 1472.59 607.644C1474.57 603.661 1477.35 600.567 1480.93 598.364C1484.51 596.161 1488.71 595.06 1493.52 595.06C1498.32 595.06 1502.52 596.161 1506.1 598.364C1509.68 600.567 1512.46 603.661 1514.45 607.644C1516.43 611.628 1517.42 616.279 1517.42 621.597C1517.42 626.894 1516.43 631.522 1514.45 635.484C1512.46 639.445 1509.68 642.527 1506.1 644.73C1502.52 646.933 1498.32 648.035 1493.52 648.035ZM1493.55 639.656C1496.66 639.656 1499.25 638.833 1501.29 637.186C1503.34 635.539 1504.85 633.347 1505.83 630.61C1506.83 627.873 1507.34 624.857 1507.34 621.564C1507.34 618.293 1506.83 615.288 1505.83 612.551C1504.85 609.792 1503.34 607.577 1501.29 605.908C1499.25 604.239 1496.66 603.405 1493.55 603.405C1490.41 603.405 1487.81 604.239 1485.74 605.908C1483.69 607.577 1482.17 609.792 1481.16 612.551C1480.19 615.288 1479.7 618.293 1479.7 621.564C1479.7 624.857 1480.19 627.873 1481.16 630.61C1482.17 633.347 1483.69 635.539 1485.74 637.186C1487.81 638.833 1490.41 639.656 1493.55 639.656ZM1537.6 616.557V647H1527.62V595.727H1537.2V604.072H1537.83C1539.01 601.357 1540.86 599.177 1543.37 597.53C1545.91 595.883 1549.1 595.06 1552.95 595.06C1556.45 595.06 1559.51 595.794 1562.13 597.263C1564.76 598.709 1566.8 600.868 1568.24 603.739C1569.69 606.609 1570.41 610.159 1570.41 614.387V647H1560.43V615.589C1560.43 611.872 1559.46 608.968 1557.53 606.876C1555.59 604.762 1552.93 603.705 1549.55 603.705C1547.23 603.705 1545.18 604.206 1543.37 605.207C1541.59 606.209 1540.18 607.678 1539.13 609.614C1538.11 611.527 1537.6 613.842 1537.6 616.557ZM491.852 762.035C487.045 762.035 482.851 760.933 479.268 758.73C475.685 756.527 472.903 753.445 470.922 749.484C468.942 745.522 467.952 740.894 467.952 735.597C467.952 730.279 468.942 725.628 470.922 721.644C472.903 717.661 475.685 714.567 479.268 712.364C482.851 710.161 487.045 709.06 491.852 709.06C496.659 709.06 500.854 710.161 504.437 712.364C508.02 714.567 510.801 717.661 512.782 721.644C514.762 725.628 515.753 730.279 515.753 735.597C515.753 740.894 514.762 745.522 512.782 749.484C510.801 753.445 508.02 756.527 504.437 758.73C500.854 760.933 496.659 762.035 491.852 762.035ZM491.886 753.656C495.001 753.656 497.583 752.833 499.63 751.186C501.677 749.539 503.19 747.347 504.17 744.61C505.171 741.873 505.672 738.857 505.672 735.564C505.672 732.293 505.171 729.288 504.17 726.551C503.19 723.792 501.677 721.577 499.63 719.908C497.583 718.239 495.001 717.405 491.886 717.405C488.748 717.405 486.144 718.239 484.074 719.908C482.027 721.577 480.503 723.792 479.501 726.551C478.522 729.288 478.033 732.293 478.033 735.564C478.033 738.857 478.522 741.873 479.501 744.61C480.503 747.347 482.027 749.539 484.074 751.186C486.144 752.833 488.748 753.656 491.886 753.656ZM550.355 709.727V717.739H521.38V709.727H550.355ZM529.325 761V703.786C529.325 700.581 530.026 697.922 531.428 695.808C532.83 693.671 534.688 692.08 537.003 691.034C539.317 689.966 541.832 689.432 544.547 689.432C546.549 689.432 548.263 689.599 549.687 689.933C551.111 690.244 552.168 690.533 552.858 690.8L550.522 698.879C550.054 698.745 549.454 698.589 548.719 698.411C547.985 698.211 547.095 698.111 546.049 698.111C543.623 698.111 541.887 698.712 540.841 699.913C539.818 701.115 539.306 702.851 539.306 705.121V761H529.325ZM607.584 709.727V717.739H579.577V709.727H607.584ZM587.088 697.443H597.069V745.945C597.069 747.881 597.358 749.339 597.937 750.318C598.515 751.275 599.261 751.932 600.173 752.288C601.108 752.621 602.12 752.788 603.211 752.788C604.012 752.788 604.713 752.733 605.314 752.621C605.915 752.51 606.382 752.421 606.716 752.354L608.518 760.599C607.94 760.822 607.116 761.045 606.048 761.267C604.98 761.512 603.645 761.645 602.042 761.668C599.417 761.712 596.969 761.245 594.699 760.266C592.429 759.286 590.593 757.773 589.191 755.726C587.789 753.679 587.088 751.108 587.088 748.015V697.443ZM628.767 730.557V761H618.786V692.636H628.633V718.072H629.267C630.469 715.313 632.305 713.121 634.775 711.496C637.245 709.872 640.472 709.06 644.456 709.06C647.972 709.06 651.043 709.783 653.669 711.229C656.317 712.676 658.364 714.835 659.811 717.705C661.279 720.554 662.014 724.114 662.014 728.387V761H652.033V729.589C652.033 725.828 651.065 722.913 649.129 720.843C647.193 718.751 644.5 717.705 641.051 717.705C638.692 717.705 636.578 718.206 634.708 719.207C632.861 720.209 631.404 721.678 630.336 723.614C629.29 725.527 628.767 727.842 628.767 730.557ZM696.491 762.035C691.439 762.035 687.089 760.955 683.439 758.797C679.812 756.616 677.008 753.556 675.027 749.617C673.069 745.656 672.089 741.016 672.089 735.697C672.089 730.446 673.069 725.817 675.027 721.811C677.008 717.805 679.767 714.679 683.305 712.431C686.866 710.183 691.027 709.06 695.79 709.06C698.683 709.06 701.487 709.538 704.202 710.495C706.917 711.452 709.353 712.954 711.512 715.001C713.671 717.049 715.373 719.708 716.619 722.979C717.866 726.228 718.489 730.179 718.489 734.83V738.368H677.731V730.891H708.708C708.708 728.265 708.174 725.939 707.106 723.914C706.038 721.867 704.536 720.253 702.599 719.074C700.686 717.894 698.438 717.305 695.857 717.305C693.053 717.305 690.605 717.995 688.513 719.374C686.443 720.732 684.841 722.512 683.706 724.715C682.593 726.896 682.037 729.266 682.037 731.825V737.667C682.037 741.094 682.638 744.009 683.839 746.413C685.063 748.816 686.766 750.652 688.947 751.92C691.128 753.167 693.676 753.79 696.591 753.79C698.482 753.79 700.207 753.523 701.765 752.989C703.323 752.432 704.669 751.609 705.804 750.518C706.939 749.428 707.807 748.082 708.408 746.479L717.854 748.182C717.098 750.964 715.74 753.4 713.782 755.492C711.846 757.562 709.409 759.175 706.472 760.332C703.556 761.467 700.229 762.035 696.491 762.035ZM753.361 692.636H765.879L787.643 745.778H788.444L810.208 692.636H822.726V761H812.912V711.53H812.278L792.116 760.9H783.971L763.809 711.496H763.175V761H753.361V692.636ZM858.079 762.035C853.027 762.035 848.677 760.955 845.027 758.797C841.4 756.616 838.596 753.556 836.615 749.617C834.657 745.656 833.678 741.016 833.678 735.697C833.678 730.446 834.657 725.817 836.615 721.811C838.596 717.805 841.355 714.679 844.894 712.431C848.454 710.183 852.616 709.06 857.378 709.06C860.271 709.06 863.075 709.538 865.79 710.495C868.505 711.452 870.942 712.954 873.1 715.001C875.259 717.049 876.961 719.708 878.208 722.979C879.454 726.228 880.077 730.179 880.077 734.83V738.368H839.319V730.891H870.296C870.296 728.265 869.762 725.939 868.694 723.914C867.626 721.867 866.124 720.253 864.188 719.074C862.274 717.894 860.026 717.305 857.445 717.305C854.641 717.305 852.193 717.995 850.101 719.374C848.031 720.732 846.429 722.512 845.294 724.715C844.181 726.896 843.625 729.266 843.625 731.825V737.667C843.625 741.094 844.226 744.009 845.428 746.413C846.652 748.816 848.354 750.652 850.535 751.92C852.716 753.167 855.264 753.79 858.179 753.79C860.071 753.79 861.795 753.523 863.353 752.989C864.911 752.432 866.257 751.609 867.392 750.518C868.527 749.428 869.395 748.082 869.996 746.479L879.443 748.182C878.686 750.964 877.329 753.4 875.37 755.492C873.434 757.562 870.997 759.175 868.06 760.332C865.145 761.467 861.818 762.035 858.079 762.035ZM914.145 709.727V717.739H886.138V709.727H914.145ZM893.649 697.443H903.63V745.945C903.63 747.881 903.919 749.339 904.498 750.318C905.076 751.275 905.822 751.932 906.734 752.288C907.669 752.621 908.682 752.788 909.772 752.788C910.573 752.788 911.274 752.733 911.875 752.621C912.476 752.51 912.943 752.421 913.277 752.354L915.079 760.599C914.501 760.822 913.677 761.045 912.609 761.267C911.541 761.512 910.206 761.645 908.604 761.668C905.978 761.712 903.53 761.245 901.26 760.266C898.99 759.286 897.154 757.773 895.752 755.726C894.35 753.679 893.649 751.108 893.649 748.015V697.443ZM939.167 762.135C935.918 762.135 932.98 761.534 930.354 760.332C927.728 759.108 925.648 757.339 924.112 755.025C922.599 752.71 921.842 749.873 921.842 746.513C921.842 743.62 922.398 741.239 923.511 739.369C924.624 737.5 926.126 736.02 928.018 734.93C929.909 733.839 932.023 733.016 934.36 732.46C936.697 731.903 939.078 731.48 941.503 731.191C944.574 730.835 947.067 730.546 948.981 730.323C950.894 730.078 952.285 729.689 953.153 729.155C954.021 728.621 954.455 727.753 954.455 726.551V726.317C954.455 723.402 953.632 721.143 951.985 719.541C950.36 717.939 947.935 717.138 944.708 717.138C941.348 717.138 938.699 717.883 936.763 719.374C934.849 720.843 933.525 722.479 932.791 724.281L923.411 722.145C924.524 719.029 926.148 716.515 928.285 714.601C930.443 712.665 932.925 711.263 935.728 710.395C938.532 709.505 941.481 709.06 944.574 709.06C946.622 709.06 948.791 709.304 951.084 709.794C953.398 710.261 955.557 711.129 957.559 712.398C959.585 713.666 961.242 715.48 962.533 717.839C963.824 720.175 964.469 723.213 964.469 726.952V761H954.722V753.99H954.322C953.676 755.281 952.708 756.549 951.417 757.795C950.127 759.042 948.469 760.076 946.444 760.9C944.419 761.723 941.993 762.135 939.167 762.135ZM941.336 754.124C944.096 754.124 946.455 753.578 948.413 752.488C950.394 751.397 951.896 749.973 952.92 748.215C953.965 746.435 954.488 744.532 954.488 742.507V735.898C954.132 736.254 953.442 736.588 952.419 736.899C951.417 737.188 950.271 737.444 948.981 737.667C947.69 737.867 946.433 738.056 945.209 738.234C943.985 738.39 942.961 738.524 942.138 738.635C940.201 738.88 938.432 739.291 936.83 739.87C935.25 740.449 933.982 741.283 933.025 742.374C932.09 743.442 931.623 744.866 931.623 746.646C931.623 749.116 932.535 750.986 934.36 752.254C936.185 753.5 938.51 754.124 941.336 754.124ZM976.823 780.227V709.727H986.57V718.039H987.405C987.983 716.971 988.818 715.736 989.908 714.334C990.999 712.932 992.512 711.708 994.448 710.662C996.384 709.594 998.943 709.06 1002.13 709.06C1006.26 709.06 1009.96 710.106 1013.21 712.197C1016.46 714.289 1019.01 717.305 1020.85 721.244C1022.72 725.183 1023.66 729.923 1023.66 735.464C1023.66 741.005 1022.73 745.756 1020.89 749.717C1019.04 753.656 1016.5 756.694 1013.27 758.83C1010.05 760.944 1006.36 762.001 1002.23 762.001C999.11 762.001 996.562 761.478 994.582 760.433C992.623 759.387 991.088 758.163 989.975 756.761C988.862 755.359 988.006 754.112 987.405 753.022H986.804V780.227H976.823ZM986.604 735.364C986.604 738.969 987.127 742.129 988.172 744.844C989.218 747.559 990.732 749.684 992.712 751.219C994.693 752.733 997.118 753.489 999.989 753.489C1002.97 753.489 1005.46 752.699 1007.47 751.119C1009.47 749.517 1010.98 747.347 1012.01 744.61C1013.05 741.873 1013.58 738.791 1013.58 735.364C1013.58 731.981 1013.06 728.943 1012.04 726.251C1011.04 723.558 1009.52 721.433 1007.5 719.875C1005.5 718.317 1002.99 717.538 999.989 717.538C997.096 717.538 994.648 718.284 992.645 719.775C990.665 721.266 989.163 723.347 988.139 726.017C987.115 728.687 986.604 731.803 986.604 735.364ZM1043.88 692.636V761H1033.9V692.636H1043.88ZM1078.46 762.035C1073.41 762.035 1069.06 760.955 1065.41 758.797C1061.79 756.616 1058.98 753.556 1057 749.617C1055.04 745.656 1054.06 741.016 1054.06 735.697C1054.06 730.446 1055.04 725.817 1057 721.811C1058.98 717.805 1061.74 714.679 1065.28 712.431C1068.84 710.183 1073 709.06 1077.76 709.06C1080.66 709.06 1083.46 709.538 1086.18 710.495C1088.89 711.452 1091.33 712.954 1093.49 715.001C1095.64 717.049 1097.35 719.708 1098.59 722.979C1099.84 726.228 1100.46 730.179 1100.46 734.83V738.368H1059.7V730.891H1090.68C1090.68 728.265 1090.15 725.939 1089.08 723.914C1088.01 721.867 1086.51 720.253 1084.57 719.074C1082.66 717.894 1080.41 717.305 1077.83 717.305C1075.03 717.305 1072.58 717.995 1070.49 719.374C1068.42 720.732 1066.82 722.512 1065.68 724.715C1064.57 726.896 1064.01 729.266 1064.01 731.825V737.667C1064.01 741.094 1064.61 744.009 1065.81 746.413C1067.04 748.816 1068.74 750.652 1070.92 751.92C1073.1 753.167 1075.65 753.79 1078.57 753.79C1080.46 753.79 1082.18 753.523 1083.74 752.989C1085.3 752.432 1086.64 751.609 1087.78 750.518C1088.91 749.428 1089.78 748.082 1090.38 746.479L1099.83 748.182C1099.07 750.964 1097.71 753.4 1095.76 755.492C1093.82 757.562 1091.38 759.175 1088.45 760.332C1085.53 761.467 1082.2 762.035 1078.46 762.035ZM1117.28 709.727L1128.6 729.689L1140.01 709.727H1150.93L1134.94 735.364L1151.06 761H1140.15L1128.6 741.839L1117.08 761H1106.13L1122.09 735.364L1106.33 709.727H1117.28ZM1207.11 761H1184.98V692.636H1207.81C1214.51 692.636 1220.26 694.005 1225.07 696.742C1229.87 699.457 1233.56 703.363 1236.11 708.459C1238.7 713.533 1239.99 719.619 1239.99 726.718C1239.99 733.839 1238.68 739.959 1236.08 745.077C1233.5 750.196 1229.76 754.135 1224.86 756.894C1219.97 759.631 1214.05 761 1207.11 761ZM1195.29 751.987H1206.54C1211.75 751.987 1216.07 751.008 1219.52 749.05C1222.97 747.069 1225.55 744.21 1227.27 740.471C1228.98 736.71 1229.84 732.126 1229.84 726.718C1229.84 721.355 1228.98 716.804 1227.27 713.065C1225.58 709.327 1223.05 706.489 1219.69 704.553C1216.33 702.617 1212.16 701.649 1207.17 701.649H1195.29V751.987ZM1251.07 761V709.727H1261.05V761H1251.07ZM1256.11 701.816C1254.38 701.816 1252.89 701.237 1251.64 700.08C1250.42 698.901 1249.8 697.499 1249.8 695.874C1249.8 694.228 1250.42 692.826 1251.64 691.668C1252.89 690.489 1254.38 689.899 1256.11 689.899C1257.85 689.899 1259.33 690.489 1260.55 691.668C1261.8 692.826 1262.42 694.228 1262.42 695.874C1262.42 697.499 1261.8 698.901 1260.55 700.08C1259.33 701.237 1257.85 701.816 1256.11 701.816ZM1295.04 781.295C1290.96 781.295 1287.46 780.761 1284.52 779.693C1281.61 778.625 1279.23 777.212 1277.38 775.454C1275.53 773.696 1274.15 771.771 1273.24 769.679L1281.82 766.141C1282.42 767.12 1283.22 768.155 1284.22 769.245C1285.25 770.358 1286.63 771.304 1288.36 772.082C1290.12 772.861 1292.38 773.251 1295.14 773.251C1298.92 773.251 1302.05 772.327 1304.52 770.48C1306.99 768.655 1308.22 765.74 1308.22 761.734V751.653H1307.59C1306.99 752.744 1306.12 753.957 1304.98 755.292C1303.87 756.627 1302.34 757.784 1300.38 758.763C1298.42 759.743 1295.87 760.232 1292.73 760.232C1288.68 760.232 1285.03 759.286 1281.78 757.395C1278.56 755.481 1276 752.666 1274.11 748.95C1272.24 745.211 1271.3 740.616 1271.3 735.163C1271.3 729.711 1272.23 725.038 1274.07 721.143C1275.94 717.249 1278.5 714.267 1281.75 712.197C1285 710.106 1288.68 709.06 1292.8 709.06C1295.98 709.06 1298.55 709.594 1300.51 710.662C1302.47 711.708 1303.99 712.932 1305.08 714.334C1306.2 715.736 1307.05 716.971 1307.66 718.039H1308.39V709.727H1318.17V762.135C1318.17 766.541 1317.15 770.157 1315.1 772.984C1313.05 775.81 1310.28 777.902 1306.79 779.259C1303.32 780.617 1299.4 781.295 1295.04 781.295ZM1294.94 751.954C1297.81 751.954 1300.23 751.286 1302.21 749.951C1304.22 748.594 1305.73 746.657 1306.75 744.143C1307.8 741.606 1308.32 738.568 1308.32 735.03C1308.32 731.58 1307.81 728.543 1306.79 725.917C1305.76 723.291 1304.26 721.244 1302.28 719.775C1300.3 718.284 1297.85 717.538 1294.94 717.538C1291.93 717.538 1289.43 718.317 1287.43 719.875C1285.42 721.411 1283.91 723.502 1282.89 726.151C1281.89 728.799 1281.38 731.759 1281.38 735.03C1281.38 738.39 1281.9 741.339 1282.92 743.876C1283.94 746.413 1285.46 748.393 1287.46 749.817C1289.48 751.242 1291.98 751.954 1294.94 751.954ZM1330.62 761V709.727H1340.6V761H1330.62ZM1335.66 701.816C1333.92 701.816 1332.43 701.237 1331.18 700.08C1329.96 698.901 1329.35 697.499 1329.35 695.874C1329.35 694.228 1329.96 692.826 1331.18 691.668C1332.43 690.489 1333.92 689.899 1335.66 689.899C1337.39 689.899 1338.87 690.489 1340.1 691.668C1341.34 692.826 1341.97 694.228 1341.97 695.874C1341.97 697.499 1341.34 698.901 1340.1 700.08C1338.87 701.237 1337.39 701.816 1335.66 701.816ZM1377.02 709.727V717.739H1349.01V709.727H1377.02ZM1356.52 697.443H1366.5V745.945C1366.5 747.881 1366.79 749.339 1367.37 750.318C1367.95 751.275 1368.69 751.932 1369.61 752.288C1370.54 752.621 1371.55 752.788 1372.64 752.788C1373.45 752.788 1374.15 752.733 1374.75 752.621C1375.35 752.51 1375.82 752.421 1376.15 752.354L1377.95 760.599C1377.37 760.822 1376.55 761.045 1375.48 761.267C1374.41 761.512 1373.08 761.645 1371.48 761.668C1368.85 761.712 1366.4 761.245 1364.13 760.266C1361.86 759.286 1360.03 757.773 1358.62 755.726C1357.22 753.679 1356.52 751.108 1356.52 748.015V697.443ZM1402.04 762.135C1398.79 762.135 1395.85 761.534 1393.23 760.332C1390.6 759.108 1388.52 757.339 1386.98 755.025C1385.47 752.71 1384.72 749.873 1384.72 746.513C1384.72 743.62 1385.27 741.239 1386.38 739.369C1387.5 737.5 1389 736.02 1390.89 734.93C1392.78 733.839 1394.9 733.016 1397.23 732.46C1399.57 731.903 1401.95 731.48 1404.38 731.191C1407.45 730.835 1409.94 730.546 1411.85 730.323C1413.77 730.078 1415.16 729.689 1416.03 729.155C1416.89 728.621 1417.33 727.753 1417.33 726.551V726.317C1417.33 723.402 1416.5 721.143 1414.86 719.541C1413.23 717.939 1410.81 717.138 1407.58 717.138C1404.22 717.138 1401.57 717.883 1399.64 719.374C1397.72 720.843 1396.4 722.479 1395.66 724.281L1386.28 722.145C1387.4 719.029 1389.02 716.515 1391.16 714.601C1393.32 712.665 1395.8 711.263 1398.6 710.395C1401.41 709.505 1404.35 709.06 1407.45 709.06C1409.49 709.06 1411.66 709.304 1413.96 709.794C1416.27 710.261 1418.43 711.129 1420.43 712.398C1422.46 713.666 1424.12 715.48 1425.41 717.839C1426.7 720.175 1427.34 723.213 1427.34 726.952V761H1417.6V753.99H1417.19C1416.55 755.281 1415.58 756.549 1414.29 757.795C1413 759.042 1411.34 760.076 1409.32 760.9C1407.29 761.723 1404.87 762.135 1402.04 762.135ZM1404.21 754.124C1406.97 754.124 1409.33 753.578 1411.29 752.488C1413.27 751.397 1414.77 749.973 1415.79 748.215C1416.84 746.435 1417.36 744.532 1417.36 742.507V735.898C1417.01 736.254 1416.32 736.588 1415.29 736.899C1414.29 737.188 1413.14 737.444 1411.85 737.667C1410.56 737.867 1409.31 738.056 1408.08 738.234C1406.86 738.39 1405.83 738.524 1405.01 738.635C1403.07 738.88 1401.31 739.291 1399.7 739.87C1398.12 740.449 1396.85 741.283 1395.9 742.374C1394.96 743.442 1394.5 744.866 1394.5 746.646C1394.5 749.116 1395.41 750.986 1397.23 752.254C1399.06 753.5 1401.38 754.124 1404.21 754.124ZM1449.68 692.636V761H1439.7V692.636H1449.68ZM654.796 875H643.847L668.448 806.636H680.365L704.967 875H694.018L674.691 819.054H674.156L654.796 875ZM656.632 848.229H692.149V856.908H656.632V848.229ZM751.152 836.245L742.106 837.847C741.728 836.69 741.127 835.589 740.303 834.543C739.502 833.497 738.412 832.64 737.032 831.972C735.652 831.305 733.928 830.971 731.858 830.971C729.032 830.971 726.673 831.605 724.781 832.874C722.89 834.12 721.944 835.733 721.944 837.714C721.944 839.427 722.578 840.807 723.847 841.853C725.115 842.899 727.162 843.756 729.989 844.423L738.134 846.293C742.851 847.383 746.367 849.063 748.682 851.333C750.996 853.603 752.153 856.552 752.153 860.179C752.153 863.25 751.263 865.987 749.483 868.391C747.725 870.772 745.266 872.641 742.106 873.999C738.968 875.356 735.33 876.035 731.19 876.035C725.449 876.035 720.764 874.811 717.137 872.363C713.51 869.893 711.284 866.388 710.461 861.848L720.108 860.379C720.709 862.894 721.944 864.797 723.813 866.087C725.683 867.356 728.119 867.99 731.124 867.99C734.395 867.99 737.01 867.311 738.968 865.954C740.926 864.574 741.906 862.894 741.906 860.913C741.906 859.311 741.305 857.965 740.103 856.874C738.924 855.784 737.11 854.96 734.662 854.404L725.983 852.501C721.198 851.411 717.66 849.675 715.368 847.294C713.098 844.913 711.963 841.897 711.963 838.248C711.963 835.221 712.809 832.573 714.5 830.303C716.191 828.033 718.528 826.264 721.51 824.996C724.492 823.705 727.908 823.06 731.758 823.06C737.299 823.06 741.661 824.261 744.843 826.665C748.025 829.046 750.128 832.239 751.152 836.245ZM800.608 836.245L791.562 837.847C791.184 836.69 790.583 835.589 789.76 834.543C788.959 833.497 787.868 832.64 786.488 831.972C785.109 831.305 783.384 830.971 781.314 830.971C778.488 830.971 776.129 831.605 774.238 832.874C772.346 834.12 771.4 835.733 771.4 837.714C771.4 839.427 772.035 840.807 773.303 841.853C774.572 842.899 776.619 843.756 779.445 844.423L787.59 846.293C792.308 847.383 795.824 849.063 798.138 851.333C800.453 853.603 801.61 856.552 801.61 860.179C801.61 863.25 800.72 865.987 798.939 868.391C797.181 870.772 794.722 872.641 791.562 873.999C788.425 875.356 784.786 876.035 780.647 876.035C774.905 876.035 770.221 874.811 766.594 872.363C762.966 869.893 760.741 866.388 759.917 861.848L769.564 860.379C770.165 862.894 771.4 864.797 773.27 866.087C775.139 867.356 777.576 867.99 780.58 867.99C783.851 867.99 786.466 867.311 788.425 865.954C790.383 864.574 791.362 862.894 791.362 860.913C791.362 859.311 790.761 857.965 789.559 856.874C788.38 855.784 786.566 854.96 784.118 854.404L775.439 852.501C770.655 851.411 767.117 849.675 764.824 847.294C762.554 844.913 761.42 841.897 761.42 838.248C761.42 835.221 762.265 832.573 763.956 830.303C765.648 828.033 767.984 826.264 770.966 824.996C773.948 823.705 777.364 823.06 781.214 823.06C786.755 823.06 791.117 824.261 794.3 826.665C797.482 829.046 799.585 832.239 800.608 836.245ZM833.742 876.035C828.69 876.035 824.34 874.955 820.69 872.797C817.063 870.616 814.259 867.556 812.278 863.617C810.32 859.656 809.341 855.016 809.341 849.697C809.341 844.446 810.32 839.817 812.278 835.811C814.259 831.805 817.018 828.679 820.556 826.431C824.117 824.183 828.278 823.06 833.041 823.06C835.934 823.06 838.738 823.538 841.453 824.495C844.168 825.452 846.604 826.954 848.763 829.001C850.922 831.049 852.624 833.708 853.87 836.979C855.117 840.228 855.74 844.179 855.74 848.83V852.368H814.982V844.891H845.959C845.959 842.265 845.425 839.939 844.357 837.914C843.289 835.867 841.787 834.253 839.85 833.074C837.937 831.894 835.689 831.305 833.108 831.305C830.304 831.305 827.856 831.995 825.764 833.374C823.694 834.732 822.092 836.512 820.957 838.715C819.844 840.896 819.288 843.266 819.288 845.825V851.667C819.288 855.094 819.889 858.009 821.091 860.413C822.314 862.816 824.017 864.652 826.198 865.92C828.379 867.167 830.927 867.79 833.842 867.79C835.734 867.79 837.458 867.523 839.016 866.989C840.574 866.432 841.92 865.609 843.055 864.518C844.19 863.428 845.058 862.082 845.659 860.479L855.105 862.182C854.349 864.964 852.991 867.4 851.033 869.492C849.097 871.562 846.66 873.175 843.723 874.332C840.807 875.467 837.48 876.035 833.742 876.035ZM889.808 823.727V831.739H861.801V823.727H889.808ZM869.312 811.443H879.293V859.945C879.293 861.881 879.582 863.339 880.161 864.318C880.739 865.275 881.485 865.932 882.397 866.288C883.332 866.621 884.344 866.788 885.435 866.788C886.236 866.788 886.937 866.733 887.538 866.621C888.139 866.51 888.606 866.421 888.94 866.354L890.742 874.599C890.164 874.822 889.34 875.045 888.272 875.267C887.204 875.512 885.869 875.645 884.266 875.668C881.641 875.712 879.193 875.245 876.923 874.266C874.653 873.286 872.817 871.773 871.415 869.726C870.013 867.679 869.312 865.108 869.312 862.015V811.443ZM924.646 875V806.636H949.014C954.311 806.636 958.706 807.549 962.2 809.374C965.716 811.198 968.342 813.724 970.078 816.951C971.813 820.156 972.681 823.861 972.681 828.067C972.681 832.25 971.802 835.933 970.044 839.116C968.308 842.276 965.682 844.735 962.166 846.493C958.672 848.251 954.277 849.13 948.981 849.13H930.521V840.251H948.046C951.384 840.251 954.099 839.772 956.191 838.815C958.305 837.858 959.852 836.468 960.831 834.643C961.81 832.818 962.3 830.626 962.3 828.067C962.3 825.485 961.799 823.249 960.798 821.357C959.819 819.466 958.272 818.019 956.158 817.018C954.066 815.994 951.318 815.482 947.913 815.482H934.961V875H924.646ZM958.394 844.156L975.285 875H963.535L946.978 844.156H958.394ZM984.292 875V806.636H1008.66C1013.98 806.636 1018.39 807.604 1021.88 809.54C1025.37 811.477 1027.99 814.125 1029.72 817.485C1031.46 820.823 1032.33 824.584 1032.33 828.768C1032.33 832.974 1031.45 836.757 1029.69 840.117C1027.95 843.455 1025.33 846.103 1021.81 848.062C1018.32 849.998 1013.92 850.966 1008.63 850.966H991.87V842.22H1007.69C1011.05 842.22 1013.78 841.642 1015.87 840.484C1017.96 839.305 1019.5 837.703 1020.48 835.678C1021.46 833.652 1021.95 831.349 1021.95 828.768C1021.95 826.186 1021.46 823.894 1020.48 821.891C1019.5 819.888 1017.95 818.32 1015.84 817.185C1013.75 816.05 1010.99 815.482 1007.56 815.482H994.607V875H984.292ZM1100.26 828.868H1089.85C1089.44 826.643 1088.7 824.684 1087.61 822.993C1086.52 821.302 1085.18 819.866 1083.6 818.687C1082.02 817.507 1080.25 816.617 1078.3 816.016C1076.36 815.415 1074.3 815.115 1072.12 815.115C1068.18 815.115 1064.65 816.105 1061.54 818.086C1058.44 820.067 1056 822.971 1054.19 826.798C1052.41 830.626 1051.52 835.299 1051.52 840.818C1051.52 846.382 1052.41 851.077 1054.19 854.905C1056 858.732 1058.46 861.625 1061.57 863.584C1064.69 865.542 1068.19 866.521 1072.09 866.521C1074.25 866.521 1076.29 866.232 1078.23 865.653C1080.19 865.053 1081.96 864.174 1083.54 863.016C1085.12 861.859 1086.45 860.446 1087.54 858.777C1088.65 857.086 1089.42 855.15 1089.85 852.969L1100.26 853.002C1099.7 856.362 1098.62 859.456 1097.02 862.282C1095.44 865.086 1093.41 867.512 1090.91 869.559C1088.44 871.584 1085.62 873.153 1082.43 874.266C1079.25 875.378 1075.78 875.935 1072.02 875.935C1066.1 875.935 1060.83 874.533 1056.2 871.729C1051.57 868.902 1047.92 864.863 1045.25 859.612C1042.6 854.36 1041.28 848.095 1041.28 840.818C1041.28 833.519 1042.61 827.254 1045.28 822.025C1047.95 816.773 1051.6 812.745 1056.23 809.941C1060.86 807.115 1066.12 805.702 1072.02 805.702C1075.65 805.702 1079.03 806.225 1082.17 807.271C1085.33 808.294 1088.16 809.808 1090.68 811.81C1093.19 813.791 1095.27 816.217 1096.92 819.087C1098.57 821.936 1099.68 825.196 1100.26 828.868ZM1141.37 875H1130.43L1155.03 806.636H1166.94L1191.55 875H1180.6L1161.27 819.054H1160.73L1141.37 875ZM1143.21 848.229H1178.73V856.908H1143.21V848.229ZM1200.48 875V806.636H1224.85C1230.16 806.636 1234.57 807.604 1238.06 809.54C1241.56 811.477 1244.17 814.125 1245.91 817.485C1247.64 820.823 1248.51 824.584 1248.51 828.768C1248.51 832.974 1247.63 836.757 1245.88 840.117C1244.14 843.455 1241.51 846.103 1238 848.062C1234.5 849.998 1230.11 850.966 1224.81 850.966H1208.06V842.22H1223.88C1227.24 842.22 1229.96 841.642 1232.06 840.484C1234.15 839.305 1235.68 837.703 1236.66 835.678C1237.64 833.652 1238.13 831.349 1238.13 828.768C1238.13 826.186 1237.64 823.894 1236.66 821.891C1235.68 819.888 1234.14 818.32 1232.02 817.185C1229.93 816.05 1227.17 815.482 1223.74 815.482H1210.79V875H1200.48ZM1269.98 806.636V875H1259.66V806.636H1269.98Z" fill="white"/>
</g>
<defs>
<filter id="filter0_d_1_253" x="-56.5286" y="292.496" width="2032.06" height="1748.78" filterUnits="userSpaceOnUse" color-interpolation-filters="sRGB">
<feFlood flood-opacity="0" result="BackgroundImageFix"/>
<feColorMatrix in="SourceAlpha" type="matrix" values="0 0 0 0 0 0 0 0 0 0 0 0 0 0 0 0 0 0 127 0" result="hardAlpha"/>
<feOffset dy="87.0247"/>
<feGaussianBlur stdDeviation="50.2643"/>
<feColorMatrix type="matrix" values="0 0 0 0 0 0 0 0 0 0 0 0 0 0 0 0 0 0 0.09 0"/>
<feBlend mode="normal" in2="BackgroundImageFix" result="effect1_dropShadow_1_253"/>
<feBlend mode="normal" in="SourceGraphic" in2="effect1_dropShadow_1_253" result="shape"/>
</filter>
<filter id="filter1_b_1_253" x="-16.0171" y="245.983" width="1951.03" height="204.278" filterUnits="userSpaceOnUse" color-interpolation-filters="sRGB">
<feFlood flood-opacity="0" result="BackgroundImageFix"/>
<feGaussianBlur in="BackgroundImageFix" stdDeviation="30.0085"/>
<feComposite in2="SourceAlpha" operator="in" result="effect1_backgroundBlur_1_253"/>
<feBlend mode="normal" in="SourceGraphic" in2="effect1_backgroundBlur_1_253" result="shape"/>
</filter>
<filter id="filter2_i_1_253" x="79.1609" y="338.737" width="23.0369" height="23.0369" filterUnits="userSpaceOnUse" color-interpolation-filters="sRGB">
<feFlood flood-opacity="0" result="BackgroundImageFix"/>
<feBlend mode="normal" in="SourceGraphic" in2="BackgroundImageFix" result="shape"/>
<feColorMatrix in="SourceAlpha" type="matrix" values="0 0 0 0 0 0 0 0 0 0 0 0 0 0 0 0 0 0 127 0" result="hardAlpha"/>
<feOffset/>
<feGaussianBlur stdDeviation="4.50128"/>
<feComposite in2="hardAlpha" operator="arithmetic" k2="-1" k3="1"/>
<feColorMatrix type="matrix" values="0 0 0 0 0.92549 0 0 0 0 0.427451 0 0 0 0 0.384314 0 0 0 1 0"/>
<feBlend mode="normal" in2="shape" result="effect1_innerShadow_1_253"/>
</filter>
<filter id="filter3_i_1_253" x="121.597" y="338.737" width="23.0369" height="23.0369" filterUnits="userSpaceOnUse" color-interpolation-filters="sRGB">
<feFlood flood-opacity="0" result="BackgroundImageFix"/>
<feBlend mode="normal" in="SourceGraphic" in2="BackgroundImageFix" result="shape"/>
<feColorMatrix in="SourceAlpha" type="matrix" values="0 0 0 0 0 0 0 0 0 0 0 0 0 0 0 0 0 0 127 0" result="hardAlpha"/>
<feOffset/>
<feGaussianBlur stdDeviation="4.50128"/>
<feComposite in2="hardAlpha" operator="arithmetic" k2="-1" k3="1"/>
<feColorMatrix type="matrix" values="0 0 0 0 0.960784 0 0 0 0 0.768627 0 0 0 0 0.317647 0 0 0 1 0"/>
<feBlend mode="normal" in2="shape" result="effect1_innerShadow_1_253"/>
</filter>
<filter id="filter4_i_1_253" x="164.033" y="338.737" width="23.0369" height="23.0369" filterUnits="userSpaceOnUse" color-interpolation-filters="sRGB">
<feFlood flood-opacity="0" result="BackgroundImageFix"/>
<feBlend mode="normal" in="SourceGraphic" in2="BackgroundImageFix" result="shape"/>
<feColorMatrix in="SourceAlpha" type="matrix" values="0 0 0 0 0 0 0 0 0 0 0 0 0 0 0 0 0 0 127 0" result="hardAlpha"/>
<feOffset/>
<feGaussianBlur stdDeviation="4.50128"/>
<feComposite in2="hardAlpha" operator="arithmetic" k2="-1" k3="1"/>
<feColorMatrix type="matrix" values="0 0 0 0 0.407843 0 0 0 0 0.8 0 0 0 0 0.345098 0 0 0 1 0"/>
<feBlend mode="normal" in2="shape" result="effect1_innerShadow_1_253"/>
</filter>
<linearGradient id="paint0_linear_1_253" x1="721.957" y1="116" x2="721.957" y2="189.55" gradientUnits="userSpaceOnUse">
<stop offset="0.102191" stop-color="#FF7B15"/>
<stop offset="0.86224" stop-color="#FF7B15"/>
</linearGradient>
<clipPath id="clip0_1_253">
<rect width="1920" height="1080" fill="white"/>
</clipPath>
<clipPath id="clip1_1_253">
<rect x="44" y="306" width="1831" height="1547.72" rx="29.5736" fill="white"/>
</clipPath>
<clipPath id="clip2_1_253">
<rect width="111.032" height="42.012" fill="white" transform="translate(1746.66 329.035)"/>
</clipPath>
<clipPath id="clip3_1_253">
<rect width="99.0282" height="42.012" fill="white" transform="translate(224.657 329.035)"/>
</clipPath>
<clipPath id="clip4_1_253">
<rect width="1831" height="2051.44" fill="white" transform="translate(44 389.858)"/>
</clipPath>
</defs>
</svg>
