<svg width="1920" height="1080" viewBox="0 0 1920 1080" fill="none" xmlns="http://www.w3.org/2000/svg">
<g clip-path="url(#clip0_2_6713)">
<rect width="1920" height="1080" fill="#FF7B15"/>
<g filter="url(#filter0_d_2_6713)">
<g clip-path="url(#clip1_2_6713)">
<g filter="url(#filter1_b_2_6713)">
<path d="M44 321.004C44 312.718 50.7176 306 59.0043 306H1860C1868.28 306 1875 312.718 1875 321.004V390.244H44V321.004Z" fill="white"/>
<g clip-path="url(#clip2_2_6713)">
<path d="M1771.41 353.439C1771.95 353.439 1772.4 352.991 1772.4 352.468V339.677L1772.32 337.808L1773.17 338.693L1775.05 340.71C1775.23 340.91 1775.49 341.009 1775.72 341.009C1776.25 341.009 1776.63 340.636 1776.63 340.125C1776.63 339.863 1776.53 339.664 1776.35 339.477L1772.14 335.417C1771.89 335.168 1771.66 335.081 1771.41 335.081C1771.17 335.081 1770.94 335.168 1770.69 335.417L1766.48 339.477C1766.3 339.664 1766.18 339.863 1766.18 340.125C1766.18 340.636 1766.57 341.009 1767.08 341.009C1767.33 341.009 1767.59 340.91 1767.77 340.71L1769.66 338.693L1770.51 337.808L1770.42 339.677V352.468C1770.42 352.991 1770.88 353.439 1771.41 353.439ZM1764.27 363.191H1778.55C1781.15 363.191 1782.46 361.896 1782.46 359.33V346.9C1782.46 344.335 1781.15 343.039 1778.55 343.039H1775.08V345.045H1778.51C1779.75 345.045 1780.46 345.717 1780.46 347.012V359.218C1780.46 360.513 1779.75 361.186 1778.51 361.186H1764.29C1763.05 361.186 1762.36 360.513 1762.36 359.218V347.012C1762.36 345.717 1763.05 345.045 1764.29 345.045H1767.74V343.039H1764.27C1761.66 343.039 1760.35 344.335 1760.35 346.9V359.33C1760.35 361.896 1761.66 363.191 1764.27 363.191Z" fill="white"/>
<path d="M1823.66 357.349H1825.79V359.254C1825.79 361.82 1827.09 363.115 1829.7 363.115H1842.21C1844.8 363.115 1846.11 361.82 1846.11 359.254V346.65C1846.11 344.084 1844.8 342.789 1842.21 342.789H1840.06V340.883C1840.06 338.318 1838.76 337.022 1836.17 337.022H1823.66C1821.05 337.022 1819.75 338.318 1819.75 340.883V353.488C1819.75 356.053 1821.05 357.349 1823.66 357.349ZM1823.69 355.343C1822.44 355.343 1821.76 354.671 1821.76 353.376V340.996C1821.76 339.7 1822.44 339.028 1823.69 339.028H1836.13C1837.36 339.028 1838.06 339.7 1838.06 340.996V342.789H1829.7C1827.09 342.789 1825.79 344.072 1825.79 346.65V355.343H1823.69ZM1829.73 361.11C1828.49 361.11 1827.8 360.437 1827.8 359.142V346.762C1827.8 345.467 1828.49 344.794 1829.73 344.794H1842.17C1843.4 344.794 1844.1 345.467 1844.1 346.762V359.142C1844.1 360.437 1843.4 361.11 1842.17 361.11H1829.73Z" fill="white"/>
</g>
<g clip-path="url(#clip3_2_6713)">
<path d="M253.56 360.526L243.684 350.886C243.447 350.649 243.323 350.363 243.323 350.051C243.323 349.728 243.46 349.416 243.696 349.217L253.56 339.565C253.772 339.353 254.046 339.228 254.37 339.228C255.018 339.228 255.503 339.726 255.503 340.374C255.503 340.673 255.379 340.972 255.18 341.184L246.113 350.051L255.18 358.919C255.379 359.131 255.503 359.417 255.503 359.729C255.503 360.376 255.018 360.862 254.37 360.862C254.046 360.862 253.772 360.738 253.56 360.526Z" fill="#9D9D9D"/>
<path d="M293.989 360.875C294.312 360.875 294.586 360.75 294.798 360.538L304.675 350.886C304.911 350.649 305.036 350.363 305.036 350.051C305.036 349.728 304.911 349.429 304.675 349.217L294.811 339.577C294.586 339.353 294.312 339.228 293.989 339.228C293.341 339.228 292.855 339.726 292.855 340.374C292.855 340.673 292.98 340.972 293.179 341.184L302.246 350.051L293.179 358.919C292.98 359.131 292.855 359.417 292.855 359.729C292.855 360.376 293.341 360.875 293.989 360.875Z" fill="#7A7A7A" fill-opacity="0.25"/>
</g>
<g filter="url(#filter2_i_2_6713)">
<path fill-rule="evenodd" clip-rule="evenodd" d="M90.6792 361.774C97.0406 361.774 102.198 356.617 102.198 350.255C102.198 343.894 97.0406 338.737 90.6792 338.737C84.3177 338.737 79.1608 343.894 79.1608 350.255C79.1608 356.617 84.3177 361.774 90.6792 361.774Z" fill="#F06959"/>
</g>
<path d="M101.823 350.255C101.823 356.41 96.8335 361.399 90.6792 361.399C84.5249 361.399 79.5359 356.41 79.5359 350.255C79.5359 344.101 84.5249 339.112 90.6792 339.112C96.8335 339.112 101.823 344.101 101.823 350.255Z" stroke="#CE5347" stroke-width="0.750214"/>
<g filter="url(#filter3_i_2_6713)">
<path fill-rule="evenodd" clip-rule="evenodd" d="M133.116 361.774C139.477 361.774 144.634 356.617 144.634 350.255C144.634 343.894 139.477 338.737 133.116 338.737C126.754 338.737 121.597 343.894 121.597 350.255C121.597 356.617 126.754 361.774 133.116 361.774Z" fill="#F4C151"/>
</g>
<path d="M144.259 350.255C144.259 356.41 139.27 361.399 133.116 361.399C126.961 361.399 121.972 356.41 121.972 350.255C121.972 344.101 126.961 339.112 133.116 339.112C139.27 339.112 144.259 344.101 144.259 350.255Z" stroke="#D6A243" stroke-width="0.750214"/>
<g filter="url(#filter4_i_2_6713)">
<path fill-rule="evenodd" clip-rule="evenodd" d="M175.552 361.774C181.913 361.774 187.07 356.617 187.07 350.255C187.07 343.894 181.913 338.737 175.552 338.737C169.19 338.737 164.033 343.894 164.033 350.255C164.033 356.617 169.19 361.774 175.552 361.774Z" fill="#61C454"/>
</g>
<path d="M186.695 350.255C186.695 356.41 181.706 361.399 175.552 361.399C169.398 361.399 164.408 356.41 164.408 350.255C164.408 344.101 169.398 339.112 175.552 339.112C181.706 339.112 186.695 344.101 186.695 350.255Z" stroke="#5BC74B" stroke-width="0.750214"/>
<path d="M382.893 337.872C382.893 330.171 389.136 323.928 396.836 323.928H1542.62C1550.32 323.928 1556.56 330.171 1556.56 337.872V357.271C1556.56 364.972 1550.32 371.214 1542.62 371.214H396.836C389.136 371.214 382.893 364.972 382.893 357.271V337.872Z" fill="white" stroke="#E6E6E6" stroke-width="1.21247"/>
<path d="M413.446 347.319C413.666 347.319 413.833 347.248 413.956 347.116L417.578 343.477C417.737 343.327 417.798 343.151 417.798 342.949C417.798 342.756 417.719 342.562 417.578 342.422L413.956 338.747C413.833 338.606 413.657 338.536 413.446 338.536C413.051 338.536 412.752 338.852 412.752 339.257C412.752 339.441 412.822 339.617 412.945 339.758L415.293 342.061C414.791 341.973 414.282 341.921 413.772 341.921C409.464 341.921 406 345.376 406 349.684C406 354 409.464 357.464 413.772 357.464C418.079 357.464 421.535 354 421.535 349.684C421.535 349.262 421.236 348.954 420.805 348.954C420.392 348.954 420.119 349.262 420.119 349.684C420.119 353.218 417.297 356.049 413.772 356.049C410.246 356.049 407.415 353.218 407.415 349.684C407.415 346.158 410.246 343.336 413.772 343.336C414.44 343.336 415.055 343.389 415.583 343.503L412.954 346.114C412.822 346.255 412.752 346.431 412.752 346.615C412.752 347.02 413.051 347.319 413.446 347.319Z" fill="#9B9B9B"/>
<path d="M438.223 356.576H446.592C447.726 356.576 448.28 356.014 448.28 354.783V348.33C448.28 347.222 447.823 346.65 446.882 346.554V344.338C446.882 341.024 444.711 339.424 442.407 339.424C440.104 339.424 437.932 341.024 437.932 344.338V346.598C437.071 346.73 436.535 347.292 436.535 348.33V354.783C436.535 356.014 437.088 356.576 438.223 356.576ZM439.348 344.154C439.348 341.947 440.763 340.778 442.407 340.778C444.051 340.778 445.467 341.947 445.467 344.154V346.545L439.348 346.554V344.154Z" fill="#9B9B9B"/>
<path d="M466.411 340.814V355H464.776V340.814H466.411ZM469.327 355V344.361H470.962V355H469.327ZM470.158 342.587C469.84 342.587 469.565 342.479 469.334 342.262C469.108 342.045 468.995 341.784 468.995 341.479C468.995 341.174 469.108 340.913 469.334 340.696C469.565 340.479 469.84 340.371 470.158 340.371C470.477 340.371 470.749 340.479 470.976 340.696C471.206 340.913 471.322 341.174 471.322 341.479C471.322 341.784 471.206 342.045 470.976 342.262C470.749 342.479 470.477 342.587 470.158 342.587ZM478.172 359.211C477.383 359.211 476.704 359.11 476.136 358.907C475.568 358.708 475.095 358.445 474.716 358.117C474.342 357.794 474.044 357.447 473.822 357.078L475.125 356.164C475.272 356.358 475.459 356.579 475.686 356.829C475.912 357.083 476.221 357.302 476.614 357.487C477.011 357.676 477.53 357.771 478.172 357.771C479.031 357.771 479.74 357.563 480.299 357.147C480.858 356.732 481.137 356.081 481.137 355.194V353.033H480.998C480.878 353.227 480.708 353.467 480.486 353.753C480.269 354.035 479.955 354.287 479.544 354.508C479.137 354.725 478.588 354.834 477.895 354.834C477.036 354.834 476.265 354.631 475.582 354.224C474.903 353.818 474.365 353.227 473.968 352.451C473.575 351.675 473.379 350.733 473.379 349.625C473.379 348.535 473.571 347.586 473.954 346.778C474.337 345.965 474.871 345.337 475.554 344.894C476.237 344.446 477.027 344.222 477.923 344.222C478.616 344.222 479.165 344.338 479.572 344.568C479.983 344.795 480.297 345.053 480.514 345.344C480.735 345.631 480.906 345.866 481.026 346.051H481.192V344.361H482.772V355.305C482.772 356.219 482.564 356.963 482.148 357.535C481.737 358.112 481.183 358.535 480.486 358.803C479.793 359.075 479.022 359.211 478.172 359.211ZM478.117 353.365C478.773 353.365 479.327 353.215 479.779 352.915C480.232 352.615 480.576 352.183 480.811 351.62C481.047 351.056 481.165 350.382 481.165 349.597C481.165 348.831 481.049 348.154 480.818 347.568C480.587 346.981 480.246 346.522 479.793 346.189C479.341 345.857 478.782 345.691 478.117 345.691C477.424 345.691 476.847 345.866 476.385 346.217C475.928 346.568 475.584 347.039 475.353 347.63C475.127 348.221 475.014 348.877 475.014 349.597C475.014 350.336 475.129 350.989 475.36 351.557C475.596 352.121 475.942 352.564 476.399 352.887C476.861 353.206 477.433 353.365 478.117 353.365ZM487.321 348.6V355H485.686V340.814H487.321V346.023H487.459C487.709 345.473 488.083 345.037 488.581 344.714C489.085 344.386 489.754 344.222 490.59 344.222C491.315 344.222 491.95 344.368 492.495 344.658C493.04 344.945 493.462 345.386 493.762 345.981C494.067 346.573 494.22 347.325 494.22 348.24V355H492.585V348.35C492.585 347.505 492.366 346.852 491.927 346.39C491.493 345.924 490.89 345.691 490.119 345.691C489.583 345.691 489.103 345.804 488.678 346.03C488.258 346.256 487.926 346.586 487.681 347.02C487.441 347.455 487.321 347.981 487.321 348.6ZM501.759 344.361V345.746H496.246V344.361H501.759ZM497.853 341.812H499.487V351.952C499.487 352.414 499.554 352.76 499.688 352.991C499.827 353.218 500.002 353.37 500.215 353.448C500.432 353.522 500.66 353.559 500.9 353.559C501.08 353.559 501.228 353.55 501.344 353.532C501.459 353.508 501.551 353.49 501.621 353.476L501.953 354.945C501.842 354.986 501.688 355.028 501.489 355.069C501.291 355.115 501.039 355.139 500.734 355.139C500.272 355.139 499.82 355.039 499.376 354.841C498.938 354.642 498.573 354.34 498.282 353.933C497.996 353.527 497.853 353.014 497.853 352.396V341.812ZM508.043 355.222C507.157 355.222 506.374 354.998 505.695 354.55C505.016 354.097 504.485 353.46 504.102 352.638C503.719 351.811 503.527 350.835 503.527 349.708C503.527 348.591 503.719 347.621 504.102 346.799C504.485 345.977 505.019 345.342 505.702 344.894C506.386 344.446 507.175 344.222 508.071 344.222C508.764 344.222 509.311 344.338 509.713 344.568C510.119 344.795 510.428 345.053 510.641 345.344C510.858 345.631 511.026 345.866 511.147 346.051H511.285V340.814H512.92V355H511.34V353.365H511.147C511.026 353.559 510.856 353.804 510.634 354.1C510.412 354.39 510.096 354.651 509.685 354.882C509.274 355.109 508.727 355.222 508.043 355.222ZM508.265 353.753C508.921 353.753 509.475 353.582 509.927 353.241C510.38 352.894 510.724 352.416 510.96 351.807C511.195 351.193 511.313 350.484 511.313 349.68C511.313 348.886 511.197 348.191 510.966 347.595C510.736 346.995 510.394 346.529 509.941 346.196C509.489 345.859 508.93 345.691 508.265 345.691C507.572 345.691 506.995 345.868 506.533 346.224C506.076 346.575 505.732 347.053 505.501 347.658C505.275 348.258 505.162 348.932 505.162 349.68C505.162 350.438 505.277 351.126 505.508 351.744C505.744 352.359 506.09 352.848 506.547 353.213C507.009 353.573 507.582 353.753 508.265 353.753ZM519.194 355.249C518.519 355.249 517.907 355.122 517.358 354.868C516.808 354.61 516.372 354.238 516.049 353.753C515.726 353.264 515.564 352.673 515.564 351.98C515.564 351.37 515.684 350.876 515.924 350.498C516.164 350.114 516.485 349.814 516.887 349.597C517.289 349.38 517.732 349.219 518.217 349.112C518.706 349.001 519.198 348.914 519.692 348.849C520.339 348.766 520.863 348.704 521.265 348.662C521.671 348.616 521.967 348.54 522.151 348.434C522.341 348.327 522.435 348.143 522.435 347.879V347.824C522.435 347.141 522.248 346.609 521.874 346.231C521.505 345.852 520.944 345.663 520.191 345.663C519.411 345.663 518.799 345.834 518.355 346.175C517.912 346.517 517.6 346.882 517.42 347.27L515.869 346.716C516.146 346.069 516.515 345.566 516.977 345.206C517.443 344.841 517.951 344.587 518.501 344.444C519.055 344.296 519.6 344.222 520.136 344.222C520.477 344.222 520.87 344.264 521.313 344.347C521.761 344.425 522.193 344.589 522.608 344.839C523.029 345.088 523.377 345.464 523.654 345.968C523.931 346.471 524.07 347.145 524.07 347.99V355H522.435V353.559H522.352C522.241 353.79 522.057 354.037 521.798 354.3C521.539 354.564 521.195 354.788 520.766 354.972C520.336 355.157 519.812 355.249 519.194 355.249ZM519.443 353.781C520.089 353.781 520.634 353.654 521.078 353.4C521.526 353.146 521.863 352.818 522.089 352.416C522.32 352.015 522.435 351.592 522.435 351.149V349.653C522.366 349.736 522.214 349.812 521.978 349.881C521.747 349.946 521.479 350.004 521.175 350.054C520.874 350.101 520.581 350.142 520.295 350.179C520.013 350.211 519.785 350.239 519.609 350.262C519.184 350.318 518.787 350.408 518.418 350.532C518.053 350.652 517.757 350.835 517.531 351.079C517.309 351.32 517.199 351.647 517.199 352.063C517.199 352.631 517.409 353.061 517.829 353.351C518.254 353.638 518.792 353.781 519.443 353.781ZM534.512 346.743L533.043 347.159C532.951 346.914 532.815 346.676 532.635 346.446C532.459 346.21 532.219 346.016 531.914 345.864C531.61 345.711 531.219 345.635 530.744 345.635C530.093 345.635 529.55 345.785 529.116 346.085C528.686 346.381 528.472 346.757 528.472 347.214C528.472 347.621 528.619 347.942 528.915 348.177C529.211 348.413 529.672 348.609 530.3 348.766L531.88 349.154C532.831 349.385 533.54 349.738 534.006 350.214C534.473 350.685 534.706 351.292 534.706 352.035C534.706 352.645 534.53 353.19 534.179 353.67C533.833 354.15 533.348 354.529 532.725 354.806C532.101 355.083 531.376 355.222 530.55 355.222C529.465 355.222 528.566 354.986 527.855 354.515C527.144 354.044 526.694 353.356 526.505 352.451L528.056 352.063C528.204 352.636 528.483 353.065 528.894 353.351C529.31 353.638 529.852 353.781 530.522 353.781C531.284 353.781 531.889 353.619 532.337 353.296C532.789 352.968 533.016 352.576 533.016 352.118C533.016 351.749 532.886 351.44 532.628 351.19C532.369 350.936 531.972 350.747 531.436 350.622L529.663 350.207C528.689 349.976 527.973 349.618 527.516 349.133C527.063 348.644 526.837 348.032 526.837 347.298C526.837 346.697 527.006 346.166 527.343 345.704C527.684 345.243 528.148 344.88 528.735 344.617C529.326 344.354 529.996 344.222 530.744 344.222C531.797 344.222 532.623 344.453 533.223 344.915C533.828 345.377 534.258 345.986 534.512 346.743ZM538.28 355.111C537.938 355.111 537.645 354.988 537.4 354.744C537.155 354.499 537.033 354.206 537.033 353.864C537.033 353.522 537.155 353.229 537.4 352.984C537.645 352.74 537.938 352.617 538.28 352.617C538.622 352.617 538.915 352.74 539.159 352.984C539.404 353.229 539.527 353.522 539.527 353.864C539.527 354.09 539.469 354.298 539.353 354.487C539.243 354.677 539.093 354.829 538.903 354.945C538.718 355.055 538.511 355.111 538.28 355.111ZM546.704 355.222C545.707 355.222 544.848 354.986 544.128 354.515C543.407 354.044 542.853 353.395 542.465 352.569C542.077 351.742 541.883 350.798 541.883 349.736C541.883 348.655 542.082 347.702 542.479 346.875C542.881 346.044 543.44 345.395 544.155 344.929C544.876 344.458 545.716 344.222 546.677 344.222C547.425 344.222 548.099 344.361 548.699 344.638C549.299 344.915 549.791 345.303 550.175 345.801C550.558 346.3 550.796 346.882 550.888 347.547H549.253C549.129 347.062 548.852 346.633 548.422 346.259C547.997 345.88 547.425 345.691 546.704 345.691C546.067 345.691 545.508 345.857 545.028 346.189C544.552 346.517 544.181 346.981 543.913 347.582C543.65 348.177 543.518 348.877 543.518 349.68C543.518 350.502 543.647 351.218 543.906 351.828C544.169 352.437 544.539 352.91 545.014 353.248C545.494 353.585 546.058 353.753 546.704 353.753C547.129 353.753 547.515 353.679 547.861 353.532C548.207 353.384 548.501 353.171 548.741 352.894C548.981 352.617 549.152 352.285 549.253 351.897H550.888C550.796 352.525 550.567 353.091 550.202 353.594C549.842 354.093 549.364 354.49 548.768 354.785C548.177 355.076 547.489 355.222 546.704 355.222ZM557.522 355.222C556.561 355.222 555.719 354.993 554.994 354.536C554.273 354.079 553.71 353.439 553.304 352.617C552.902 351.795 552.701 350.835 552.701 349.736C552.701 348.627 552.902 347.66 553.304 346.833C553.71 346.007 554.273 345.365 554.994 344.908C555.719 344.451 556.561 344.222 557.522 344.222C558.482 344.222 559.323 344.451 560.043 344.908C560.768 345.365 561.332 346.007 561.733 346.833C562.14 347.66 562.343 348.627 562.343 349.736C562.343 350.835 562.14 351.795 561.733 352.617C561.332 353.439 560.768 354.079 560.043 354.536C559.323 354.993 558.482 355.222 557.522 355.222ZM557.522 353.753C558.252 353.753 558.852 353.566 559.323 353.192C559.794 352.818 560.143 352.326 560.369 351.717C560.595 351.107 560.708 350.447 560.708 349.736C560.708 349.025 560.595 348.362 560.369 347.748C560.143 347.134 559.794 346.637 559.323 346.259C558.852 345.88 558.252 345.691 557.522 345.691C556.792 345.691 556.192 345.88 555.721 346.259C555.25 346.637 554.901 347.134 554.675 347.748C554.449 348.362 554.336 349.025 554.336 349.736C554.336 350.447 554.449 351.107 554.675 351.717C554.901 352.326 555.25 352.818 555.721 353.192C556.192 353.566 556.792 353.753 557.522 353.753Z" fill="#9B9B9B"/>
</g>
<rect width="1831" height="2051.44" transform="translate(44 389.858)" fill="#FAFAFA"/>
</g>
</g>
<path d="M823.136 143.075H832.001V206.708C832.001 209.03 833.161 210.191 835.483 210.191H840.337V218H834.111C827.568 218 823.136 213.568 823.136 207.131V143.075ZM851.967 162.07H860.831V218H851.967V162.07ZM851.756 153.311V143.18H861.042V153.311H851.756ZM897.887 215.045C883.429 215.045 873.193 203.859 873.193 187.924C873.193 171.99 883.324 160.804 897.781 160.804C905.379 160.804 911.816 164.708 914.349 170.934V162.07H922.791V212.513C922.791 227.287 912.661 235.096 898.098 235.096C886.173 235.096 877.309 228.658 874.776 218.844L884.062 218.211C886.278 223.487 891.133 226.653 898.098 226.653C907.912 226.653 913.927 222.432 913.927 214.518V205.337C911.183 211.246 904.957 215.045 897.887 215.045ZM882.479 187.924C882.479 199.427 888.6 206.603 898.414 206.603C907.806 206.603 913.927 199.427 914.033 187.924C914.244 176.422 908.123 169.246 898.414 169.246C888.6 169.246 882.479 176.422 882.479 187.924ZM937.041 143.075H945.905V169.668C949.071 163.547 955.614 160.804 962.579 160.804C974.187 160.804 981.469 169.035 981.469 182.015V218H972.604V185.181C972.604 174.522 968.7 169.246 960.679 169.246C951.815 169.246 945.905 174.839 945.905 185.181V218H937.041V143.075ZM1000.22 149.406H1009.08V162.07H1023.96V169.879H1009.08V203.12C1009.08 207.764 1011.3 210.191 1015.73 210.191H1023.75V218H1015.73C1005.7 218 1000.22 212.618 1000.22 203.12V169.879H991.986V162.07H1000.22V149.406ZM1085.01 143.075C1108.02 143.075 1121 156.582 1121 180.643C1121 204.598 1108.33 218 1085.65 218H1061.8V143.075H1085.01ZM1070.87 209.136H1085.01C1102.64 209.136 1111.5 199.638 1111.5 180.643C1111.5 161.437 1102.64 151.939 1085.01 151.939H1070.87V209.136ZM1124.15 218L1151.17 143.075H1163.41L1190.42 218H1180.5L1173.01 196.683H1141.56L1134.07 218H1124.15ZM1144.62 187.819H1169.95L1157.29 150.989L1144.62 187.819ZM1204.1 193.412C1206 203.543 1213.18 210.402 1225 210.402C1234.6 210.402 1241.04 206.603 1241.04 199.11C1241.04 191.512 1234.5 186.869 1219.51 183.07C1207.27 180.01 1196.19 173.995 1196.19 161.964C1196.19 149.301 1206.32 141.386 1220.67 141.386C1236.71 141.386 1247.37 151.411 1248.95 165.236L1239.46 165.869C1238.08 156.477 1230.91 150.251 1220.57 150.251C1212.02 150.251 1205.69 154.788 1205.69 161.964C1205.69 171.04 1216.56 173.572 1226.05 176.211C1239.67 180.01 1250.54 186.764 1250.54 198.161C1250.54 212.09 1237.87 219.266 1224.26 219.266C1207.9 219.266 1195.87 209.241 1194.61 194.045L1204.1 193.412Z" fill="white"/>
<path fill-rule="evenodd" clip-rule="evenodd" d="M715.561 116C713.795 116 712.363 117.432 712.363 119.198V156.796L685.777 130.21C684.529 128.961 682.504 128.961 681.255 130.21L672.21 139.255C670.961 140.504 670.961 142.529 672.21 143.777L698.796 170.363L661.198 170.363C659.432 170.363 658 171.795 658 173.561V186.352C658 188.118 659.432 189.55 661.198 189.55L782.716 189.55C784.482 189.55 785.913 188.118 785.913 186.352V173.561C785.913 171.795 784.482 170.363 782.716 170.363H745.118L771.703 143.777C772.952 142.529 772.952 140.504 771.703 139.255L762.659 130.21C761.41 128.961 759.385 128.961 758.136 130.21L731.55 156.796V119.198C731.55 117.432 730.118 116 728.352 116H715.561Z" fill="url(#paint0_linear_2_6713)" fill-opacity="0.31"/>
<path fill-rule="evenodd" clip-rule="evenodd" d="M685.777 229.703L721.957 193.524L758.136 229.703C759.385 230.952 761.41 230.952 762.658 229.703L771.703 220.659C772.952 219.41 772.952 217.385 771.703 216.136L724.206 168.639C722.957 167.39 720.933 167.39 719.684 168.639L710.639 177.684C710.561 177.762 710.487 177.843 710.419 177.927L672.21 216.136C670.961 217.385 670.961 219.41 672.21 220.659L681.255 229.703C682.504 230.952 684.528 230.952 685.777 229.703ZM715.561 218.331C713.795 218.331 712.363 219.763 712.363 221.529V240.716C712.363 242.482 713.795 243.913 715.561 243.913H728.352C730.118 243.913 731.55 242.482 731.55 240.716V221.529C731.55 219.763 730.118 218.331 728.352 218.331H715.561Z" fill="white"/>
<path d="M467.341 655V586.636H477.655V646.121H508.633V655H467.341ZM518.658 655V603.727H528.639V655H518.658ZM523.699 595.816C521.963 595.816 520.472 595.237 519.226 594.08C518.002 592.901 517.39 591.499 517.39 589.874C517.39 588.228 518.002 586.826 519.226 585.668C520.472 584.489 521.963 583.899 523.699 583.899C525.434 583.899 526.914 584.489 528.138 585.668C529.384 586.826 530.007 588.228 530.007 589.874C530.007 591.499 529.384 592.901 528.138 594.08C526.914 595.237 525.434 595.816 523.699 595.816ZM579.547 616.245L570.501 617.847C570.123 616.69 569.522 615.589 568.699 614.543C567.898 613.497 566.807 612.64 565.427 611.972C564.048 611.305 562.323 610.971 560.253 610.971C557.427 610.971 555.068 611.605 553.177 612.874C551.285 614.12 550.339 615.733 550.339 617.714C550.339 619.427 550.974 620.807 552.242 621.853C553.51 622.899 555.558 623.756 558.384 624.423L566.529 626.293C571.247 627.383 574.763 629.063 577.077 631.333C579.392 633.603 580.549 636.552 580.549 640.179C580.549 643.25 579.659 645.987 577.878 648.391C576.12 650.772 573.661 652.641 570.501 653.999C567.363 655.356 563.725 656.035 559.586 656.035C553.844 656.035 549.16 654.811 545.533 652.363C541.905 649.893 539.68 646.388 538.856 641.848L548.503 640.379C549.104 642.894 550.339 644.797 552.209 646.087C554.078 647.356 556.515 647.99 559.519 647.99C562.79 647.99 565.405 647.311 567.363 645.954C569.322 644.574 570.301 642.894 570.301 640.913C570.301 639.311 569.7 637.965 568.498 636.874C567.319 635.784 565.505 634.96 563.057 634.404L554.378 632.501C549.594 631.411 546.055 629.675 543.763 627.294C541.493 624.913 540.359 621.897 540.359 618.248C540.359 615.221 541.204 612.573 542.895 610.303C544.587 608.033 546.923 606.264 549.905 604.996C552.887 603.705 556.303 603.06 560.153 603.06C565.694 603.06 570.056 604.261 573.238 606.665C576.421 609.046 578.524 612.239 579.547 616.245ZM614.517 603.727V611.739H586.51V603.727H614.517ZM594.021 591.443H604.002V639.945C604.002 641.881 604.291 643.339 604.87 644.318C605.448 645.275 606.194 645.932 607.106 646.288C608.041 646.621 609.053 646.788 610.144 646.788C610.945 646.788 611.646 646.733 612.247 646.621C612.848 646.51 613.315 646.421 613.649 646.354L615.451 654.599C614.873 654.822 614.049 655.045 612.981 655.267C611.913 655.512 610.578 655.645 608.976 655.668C606.35 655.712 603.902 655.245 601.632 654.266C599.362 653.286 597.526 651.773 596.124 649.726C594.722 647.679 594.021 645.108 594.021 642.015V591.443ZM646.165 656.035C641.113 656.035 636.762 654.955 633.113 652.797C629.485 650.616 626.681 647.556 624.701 643.617C622.742 639.656 621.763 635.016 621.763 629.697C621.763 624.446 622.742 619.817 624.701 615.811C626.681 611.805 629.441 608.679 632.979 606.431C636.54 604.183 640.701 603.06 645.464 603.06C648.357 603.06 651.161 603.538 653.876 604.495C656.59 605.452 659.027 606.954 661.186 609.001C663.345 611.049 665.047 613.708 666.293 616.979C667.539 620.228 668.162 624.179 668.162 628.83V632.368H627.405V624.891H658.382C658.382 622.265 657.848 619.939 656.78 617.914C655.711 615.867 654.209 614.253 652.273 613.074C650.359 611.894 648.112 611.305 645.53 611.305C642.726 611.305 640.278 611.995 638.187 613.374C636.117 614.732 634.515 616.512 633.38 618.715C632.267 620.896 631.711 623.266 631.711 625.825V631.667C631.711 635.094 632.312 638.009 633.513 640.413C634.737 642.816 636.44 644.652 638.621 645.92C640.801 647.167 643.349 647.79 646.265 647.79C648.156 647.79 649.881 647.523 651.439 646.989C652.996 646.432 654.343 645.609 655.478 644.518C656.613 643.428 657.481 642.082 658.081 640.479L667.528 642.182C666.772 644.964 665.414 647.4 663.456 649.492C661.52 651.562 659.083 653.175 656.145 654.332C653.23 655.467 649.903 656.035 646.165 656.035ZM688.277 624.557V655H678.296V603.727H687.877V612.072H688.511C689.69 609.357 691.537 607.177 694.052 605.53C696.589 603.883 699.783 603.06 703.632 603.06C707.126 603.06 710.186 603.794 712.812 605.263C715.438 606.709 717.474 608.868 718.921 611.739C720.367 614.609 721.091 618.159 721.091 622.387V655H711.11V623.589C711.11 619.872 710.142 616.968 708.206 614.876C706.27 612.762 703.61 611.705 700.228 611.705C697.913 611.705 695.855 612.206 694.052 613.207C692.272 614.209 690.859 615.678 689.813 617.614C688.789 619.527 688.277 621.842 688.277 624.557ZM779.07 656.035C774.264 656.035 770.069 654.933 766.486 652.73C762.903 650.527 760.121 647.445 758.141 643.484C756.16 639.522 755.17 634.894 755.17 629.597C755.17 624.279 756.16 619.628 758.141 615.644C760.121 611.661 762.903 608.567 766.486 606.364C770.069 604.161 774.264 603.06 779.07 603.06C783.877 603.06 788.072 604.161 791.655 606.364C795.238 608.567 798.02 611.661 800 615.644C801.981 619.628 802.971 624.279 802.971 629.597C802.971 634.894 801.981 639.522 800 643.484C798.02 647.445 795.238 650.527 791.655 652.73C788.072 654.933 783.877 656.035 779.07 656.035ZM779.104 647.656C782.219 647.656 784.801 646.833 786.848 645.186C788.896 643.539 790.409 641.347 791.388 638.61C792.389 635.873 792.89 632.857 792.89 629.564C792.89 626.293 792.389 623.288 791.388 620.551C790.409 617.792 788.896 615.577 786.848 613.908C784.801 612.239 782.219 611.405 779.104 611.405C775.966 611.405 773.362 612.239 771.293 613.908C769.245 615.577 767.721 617.792 766.72 620.551C765.74 623.288 765.251 626.293 765.251 629.564C765.251 632.857 765.74 635.873 766.72 638.61C767.721 641.347 769.245 643.539 771.293 645.186C773.362 646.833 775.966 647.656 779.104 647.656ZM823.153 624.557V655H813.172V603.727H822.752V612.072H823.386C824.566 609.357 826.413 607.177 828.927 605.53C831.464 603.883 834.658 603.06 838.508 603.06C842.002 603.06 845.061 603.794 847.687 605.263C850.313 606.709 852.35 608.868 853.796 611.739C855.243 614.609 855.966 618.159 855.966 622.387V655H845.985V623.589C845.985 619.872 845.017 616.968 843.081 614.876C841.145 612.762 838.485 611.705 835.103 611.705C832.789 611.705 830.73 612.206 828.927 613.207C827.147 614.209 825.734 615.678 824.688 617.614C823.664 619.527 823.153 621.842 823.153 624.557ZM893.15 586.636H905.667L927.432 639.778H928.233L949.997 586.636H962.515V655H952.701V605.53H952.066L931.905 654.9H923.76L903.598 605.496H902.963V655H893.15V586.636ZM997.868 656.035C992.816 656.035 988.466 654.955 984.816 652.797C981.189 650.616 978.385 647.556 976.404 643.617C974.446 639.656 973.467 635.016 973.467 629.697C973.467 624.446 974.446 619.817 976.404 615.811C978.385 611.805 981.144 608.679 984.682 606.431C988.243 604.183 992.405 603.06 997.167 603.06C1000.06 603.06 1002.86 603.538 1005.58 604.495C1008.29 605.452 1010.73 606.954 1012.89 609.001C1015.05 611.049 1016.75 613.708 1018 616.979C1019.24 620.228 1019.87 624.179 1019.87 628.83V632.368H979.108V624.891H1010.09C1010.09 622.265 1009.55 619.939 1008.48 617.914C1007.41 615.867 1005.91 614.253 1003.98 613.074C1002.06 611.894 999.815 611.305 997.234 611.305C994.43 611.305 991.982 611.995 989.89 613.374C987.82 614.732 986.218 616.512 985.083 618.715C983.97 620.896 983.414 623.266 983.414 625.825V631.667C983.414 635.094 984.015 638.009 985.217 640.413C986.441 642.816 988.143 644.652 990.324 645.92C992.505 647.167 995.053 647.79 997.968 647.79C999.86 647.79 1001.58 647.523 1003.14 646.989C1004.7 646.432 1006.05 645.609 1007.18 644.518C1008.32 643.428 1009.18 642.082 1009.78 640.479L1019.23 642.182C1018.47 644.964 1017.12 647.4 1015.16 649.492C1013.22 651.562 1010.79 653.175 1007.85 654.332C1004.93 655.467 1001.61 656.035 997.868 656.035ZM1030 655V603.727H1039.65V611.872H1040.18C1041.12 609.113 1042.76 606.943 1045.12 605.363C1047.5 603.761 1050.19 602.96 1053.2 602.96C1053.82 602.96 1054.56 602.982 1055.4 603.026C1056.27 603.071 1056.95 603.126 1057.44 603.193V612.74C1057.04 612.629 1056.33 612.506 1055.3 612.373C1054.28 612.217 1053.25 612.139 1052.23 612.139C1049.87 612.139 1047.77 612.64 1045.92 613.641C1044.1 614.621 1042.65 615.989 1041.58 617.747C1040.51 619.483 1039.98 621.464 1039.98 623.689V655H1030ZM1074.32 637.609L1074.25 625.425H1075.98L1096.41 603.727H1108.36L1085.06 628.429H1083.5L1074.32 637.609ZM1065.14 655V586.636H1075.12V655H1065.14ZM1097.52 655L1079.16 630.632L1086.03 623.656L1109.77 655H1097.52ZM1126.5 586.636V655H1116.52V586.636H1126.5ZM1161.09 656.035C1156.03 656.035 1151.68 654.955 1148.03 652.797C1144.41 650.616 1141.6 647.556 1139.62 643.617C1137.66 639.656 1136.69 635.016 1136.69 629.697C1136.69 624.446 1137.66 619.817 1139.62 615.811C1141.6 611.805 1144.36 608.679 1147.9 606.431C1151.46 604.183 1155.62 603.06 1160.39 603.06C1163.28 603.06 1166.08 603.538 1168.8 604.495C1171.51 605.452 1173.95 606.954 1176.11 609.001C1178.27 611.049 1179.97 613.708 1181.21 616.979C1182.46 620.228 1183.08 624.179 1183.08 628.83V632.368H1142.33V624.891H1173.3C1173.3 622.265 1172.77 619.939 1171.7 617.914C1170.63 615.867 1169.13 614.253 1167.2 613.074C1165.28 611.894 1163.03 611.305 1160.45 611.305C1157.65 611.305 1155.2 611.995 1153.11 613.374C1151.04 614.732 1149.44 616.512 1148.3 618.715C1147.19 620.896 1146.63 623.266 1146.63 625.825V631.667C1146.63 635.094 1147.23 638.009 1148.44 640.413C1149.66 642.816 1151.36 644.652 1153.54 645.92C1155.72 647.167 1158.27 647.79 1161.19 647.79C1163.08 647.79 1164.8 647.523 1166.36 646.989C1167.92 646.432 1169.26 645.609 1170.4 644.518C1171.53 643.428 1172.4 642.082 1173 640.479L1182.45 642.182C1181.69 644.964 1180.34 647.4 1178.38 649.492C1176.44 651.562 1174 653.175 1171.07 654.332C1168.15 655.467 1164.82 656.035 1161.09 656.035ZM1214.58 595.516V586.636H1267.49V595.516H1246.16V655H1235.88V595.516H1214.58ZM1272.12 655V603.727H1281.77V611.872H1282.3C1283.24 609.113 1284.88 606.943 1287.24 605.363C1289.62 603.761 1292.31 602.96 1295.32 602.96C1295.94 602.96 1296.68 602.982 1297.52 603.026C1298.39 603.071 1299.07 603.126 1299.56 603.193V612.74C1299.16 612.629 1298.45 612.506 1297.42 612.373C1296.4 612.217 1295.37 612.139 1294.35 612.139C1291.99 612.139 1289.89 612.64 1288.04 613.641C1286.22 614.621 1284.77 615.989 1283.7 617.747C1282.63 619.483 1282.1 621.464 1282.1 623.689V655H1272.12ZM1327.52 656.035C1322.47 656.035 1318.12 654.955 1314.47 652.797C1310.84 650.616 1308.03 647.556 1306.05 643.617C1304.1 639.656 1303.12 635.016 1303.12 629.697C1303.12 624.446 1304.1 619.817 1306.05 615.811C1308.03 611.805 1310.79 608.679 1314.33 606.431C1317.89 604.183 1322.05 603.06 1326.82 603.06C1329.71 603.06 1332.51 603.538 1335.23 604.495C1337.94 605.452 1340.38 606.954 1342.54 609.001C1344.7 611.049 1346.4 613.708 1347.65 616.979C1348.89 620.228 1349.52 624.179 1349.52 628.83V632.368H1308.76V624.891H1339.74C1339.74 622.265 1339.2 619.939 1338.13 617.914C1337.06 615.867 1335.56 614.253 1333.63 613.074C1331.71 611.894 1329.46 611.305 1326.88 611.305C1324.08 611.305 1321.63 611.995 1319.54 613.374C1317.47 614.732 1315.87 616.512 1314.73 618.715C1313.62 620.896 1313.06 623.266 1313.06 625.825V631.667C1313.06 635.094 1313.66 638.009 1314.87 640.413C1316.09 642.816 1317.79 644.652 1319.97 645.92C1322.15 647.167 1324.7 647.79 1327.62 647.79C1329.51 647.79 1331.23 647.523 1332.79 646.989C1334.35 646.432 1335.7 645.609 1336.83 644.518C1337.97 643.428 1338.83 642.082 1339.43 640.479L1348.88 642.182C1348.12 644.964 1346.77 647.4 1344.81 649.492C1342.87 651.562 1340.44 653.175 1337.5 654.332C1334.58 655.467 1331.26 656.035 1327.52 656.035ZM1381.75 656.035C1376.7 656.035 1372.35 654.955 1368.7 652.797C1365.07 650.616 1362.26 647.556 1360.28 643.617C1358.33 639.656 1357.35 635.016 1357.35 629.697C1357.35 624.446 1358.33 619.817 1360.28 615.811C1362.26 611.805 1365.02 608.679 1368.56 606.431C1372.12 604.183 1376.28 603.06 1381.05 603.06C1383.94 603.06 1386.74 603.538 1389.46 604.495C1392.17 605.452 1394.61 606.954 1396.77 609.001C1398.93 611.049 1400.63 613.708 1401.88 616.979C1403.12 620.228 1403.75 624.179 1403.75 628.83V632.368H1362.99V624.891H1393.97C1393.97 622.265 1393.43 619.939 1392.36 617.914C1391.29 615.867 1389.79 614.253 1387.86 613.074C1385.94 611.894 1383.69 611.305 1381.11 611.305C1378.31 611.305 1375.86 611.995 1373.77 613.374C1371.7 614.732 1370.1 616.512 1368.96 618.715C1367.85 620.896 1367.29 623.266 1367.29 625.825V631.667C1367.29 635.094 1367.89 638.009 1369.1 640.413C1370.32 642.816 1372.02 644.652 1374.2 645.92C1376.38 647.167 1378.93 647.79 1381.85 647.79C1383.74 647.79 1385.46 647.523 1387.02 646.989C1388.58 646.432 1389.93 645.609 1391.06 644.518C1392.2 643.428 1393.06 642.082 1393.66 640.479L1403.11 642.182C1402.35 644.964 1401 647.4 1399.04 649.492C1397.1 651.562 1394.67 653.175 1391.73 654.332C1388.81 655.467 1385.49 656.035 1381.75 656.035ZM439.188 770.135C435.939 770.135 433.002 769.534 430.376 768.332C427.75 767.108 425.669 765.339 424.133 763.025C422.62 760.71 421.864 757.873 421.864 754.513C421.864 751.62 422.42 749.239 423.533 747.369C424.645 745.5 426.147 744.02 428.039 742.93C429.931 741.839 432.045 741.016 434.381 740.46C436.718 739.903 439.099 739.48 441.525 739.191C444.596 738.835 447.088 738.546 449.002 738.323C450.916 738.078 452.307 737.689 453.175 737.155C454.043 736.621 454.477 735.753 454.477 734.551V734.317C454.477 731.402 453.653 729.143 452.006 727.541C450.382 725.939 447.956 725.138 444.729 725.138C441.369 725.138 438.721 725.883 436.785 727.374C434.871 728.843 433.547 730.479 432.812 732.281L423.432 730.145C424.545 727.029 426.17 724.515 428.306 722.601C430.465 720.665 432.946 719.263 435.75 718.395C438.554 717.505 441.503 717.06 444.596 717.06C446.643 717.06 448.813 717.304 451.105 717.794C453.419 718.261 455.578 719.129 457.581 720.398C459.606 721.666 461.264 723.48 462.555 725.839C463.845 728.175 464.491 731.213 464.491 734.952V769H454.744V761.99H454.343C453.698 763.281 452.73 764.549 451.439 765.795C450.148 767.042 448.49 768.076 446.465 768.9C444.44 769.723 442.014 770.135 439.188 770.135ZM441.358 762.124C444.117 762.124 446.476 761.578 448.435 760.488C450.415 759.397 451.917 757.973 452.941 756.215C453.987 754.435 454.51 752.532 454.51 750.507V743.898C454.154 744.254 453.464 744.588 452.44 744.899C451.439 745.188 450.293 745.444 449.002 745.667C447.711 745.867 446.454 746.056 445.23 746.234C444.006 746.39 442.982 746.524 442.159 746.635C440.223 746.88 438.454 747.291 436.852 747.87C435.272 748.449 434.003 749.283 433.046 750.374C432.111 751.442 431.644 752.866 431.644 754.646C431.644 757.116 432.557 758.986 434.381 760.254C436.206 761.5 438.532 762.124 441.358 762.124ZM496.038 770.001C491.899 770.001 488.205 768.944 484.956 766.83C481.729 764.694 479.192 761.656 477.345 757.717C475.52 753.756 474.608 749.005 474.608 743.464C474.608 737.923 475.532 733.183 477.379 729.244C479.248 725.305 481.807 722.289 485.056 720.197C488.305 718.106 491.988 717.06 496.105 717.06C499.288 717.06 501.847 717.594 503.783 718.662C505.741 719.708 507.254 720.932 508.323 722.334C509.413 723.736 510.259 724.971 510.86 726.039H511.46V700.636H521.441V769H511.694V761.022H510.86C510.259 762.112 509.391 763.359 508.256 764.761C507.143 766.163 505.608 767.387 503.649 768.433C501.691 769.478 499.154 770.001 496.038 770.001ZM498.242 761.489C501.112 761.489 503.538 760.733 505.519 759.219C507.521 757.684 509.035 755.559 510.058 752.844C511.104 750.129 511.627 746.969 511.627 743.364C511.627 739.803 511.115 736.687 510.092 734.017C509.068 731.347 507.566 729.266 505.585 727.775C503.605 726.284 501.157 725.538 498.242 725.538C495.237 725.538 492.734 726.317 490.731 727.875C488.728 729.433 487.215 731.558 486.191 734.251C485.19 736.943 484.689 739.981 484.689 743.364C484.689 746.791 485.201 749.873 486.225 752.61C487.248 755.347 488.761 757.517 490.764 759.119C492.789 760.699 495.282 761.489 498.242 761.489ZM553.94 770.001C549.801 770.001 546.107 768.944 542.858 766.83C539.631 764.694 537.094 761.656 535.247 757.717C533.422 753.756 532.51 749.005 532.51 743.464C532.51 737.923 533.433 733.183 535.28 729.244C537.15 725.305 539.709 722.289 542.958 720.197C546.207 718.106 549.89 717.06 554.007 717.06C557.189 717.06 559.749 717.594 561.685 718.662C563.643 719.708 565.156 720.932 566.224 722.334C567.315 723.736 568.16 724.971 568.761 726.039H569.362V700.636H579.343V769H569.596V761.022H568.761C568.16 762.112 567.293 763.359 566.158 764.761C565.045 766.163 563.509 767.387 561.551 768.433C559.593 769.478 557.056 770.001 553.94 770.001ZM556.143 761.489C559.014 761.489 561.44 760.733 563.42 759.219C565.423 757.684 566.936 755.559 567.96 752.844C569.006 750.129 569.529 746.969 569.529 743.364C569.529 739.803 569.017 736.687 567.994 734.017C566.97 731.347 565.468 729.266 563.487 727.775C561.507 726.284 559.059 725.538 556.143 725.538C553.139 725.538 550.636 726.317 548.633 727.875C546.63 729.433 545.117 731.558 544.093 734.251C543.092 736.943 542.591 739.981 542.591 743.364C542.591 746.791 543.103 749.873 544.126 752.61C545.15 755.347 546.663 757.517 548.666 759.119C550.691 760.699 553.184 761.489 556.143 761.489ZM592.648 769V717.727H602.295V725.872H602.829C603.764 723.113 605.411 720.943 607.77 719.363C610.151 717.761 612.843 716.96 615.848 716.96C616.471 716.96 617.205 716.982 618.051 717.026C618.919 717.071 619.598 717.126 620.087 717.193V726.74C619.687 726.629 618.974 726.506 617.951 726.373C616.927 726.217 615.903 726.139 614.88 726.139C612.521 726.139 610.418 726.64 608.571 727.641C606.746 728.621 605.299 729.989 604.231 731.747C603.163 733.483 602.629 735.464 602.629 737.689V769H592.648ZM648.046 770.035C642.995 770.035 638.644 768.955 634.995 766.797C631.367 764.616 628.563 761.556 626.583 757.617C624.624 753.656 623.645 749.016 623.645 743.697C623.645 738.446 624.624 733.817 626.583 729.811C628.563 725.805 631.323 722.679 634.861 720.431C638.422 718.183 642.583 717.06 647.345 717.06C650.238 717.06 653.042 717.538 655.757 718.495C658.472 719.452 660.909 720.954 663.068 723.001C665.226 725.049 666.929 727.708 668.175 730.979C669.421 734.228 670.044 738.179 670.044 742.83V746.368H629.286V738.891H660.264C660.264 736.265 659.73 733.939 658.661 731.914C657.593 729.867 656.091 728.253 654.155 727.074C652.241 725.894 649.994 725.305 647.412 725.305C644.608 725.305 642.16 725.995 640.068 727.374C637.999 728.732 636.397 730.512 635.262 732.715C634.149 734.896 633.593 737.266 633.593 739.825V745.667C633.593 749.094 634.193 752.009 635.395 754.413C636.619 756.816 638.322 758.652 640.502 759.92C642.683 761.167 645.231 761.79 648.147 761.79C650.038 761.79 651.763 761.523 653.321 760.989C654.878 760.432 656.225 759.609 657.36 758.518C658.495 757.428 659.362 756.082 659.963 754.479L669.41 756.182C668.653 758.964 667.296 761.4 665.338 763.492C663.402 765.562 660.965 767.175 658.027 768.332C655.112 769.467 651.785 770.035 648.046 770.035ZM718.599 730.245L709.553 731.847C709.175 730.69 708.574 729.589 707.751 728.543C706.95 727.497 705.859 726.64 704.479 725.972C703.1 725.305 701.375 724.971 699.305 724.971C696.479 724.971 694.12 725.605 692.229 726.874C690.337 728.12 689.391 729.733 689.391 731.714C689.391 733.427 690.026 734.807 691.294 735.853C692.563 736.899 694.61 737.756 697.436 738.423L705.581 740.293C710.299 741.383 713.815 743.063 716.129 745.333C718.444 747.603 719.601 750.552 719.601 754.179C719.601 757.25 718.711 759.987 716.93 762.391C715.172 764.772 712.713 766.641 709.553 767.999C706.416 769.356 702.777 770.035 698.638 770.035C692.896 770.035 688.212 768.811 684.585 766.363C680.957 763.893 678.732 760.388 677.908 755.848L687.555 754.379C688.156 756.894 689.391 758.797 691.261 760.087C693.13 761.356 695.567 761.99 698.571 761.99C701.842 761.99 704.457 761.311 706.416 759.954C708.374 758.574 709.353 756.894 709.353 754.913C709.353 753.311 708.752 751.965 707.55 750.874C706.371 749.784 704.557 748.96 702.109 748.404L693.43 746.501C688.646 745.411 685.108 743.675 682.815 741.294C680.546 738.913 679.411 735.897 679.411 732.248C679.411 729.221 680.256 726.573 681.948 724.303C683.639 722.033 685.975 720.264 688.957 718.996C691.939 717.705 695.355 717.06 699.205 717.06C704.747 717.06 709.108 718.261 712.291 720.665C715.473 723.046 717.576 726.239 718.599 730.245ZM768.056 730.245L759.01 731.847C758.631 730.69 758.031 729.589 757.207 728.543C756.406 727.497 755.316 726.64 753.936 725.972C752.556 725.305 750.832 724.971 748.762 724.971C745.936 724.971 743.577 725.605 741.685 726.874C739.794 728.12 738.848 729.733 738.848 731.714C738.848 733.427 739.482 734.807 740.751 735.853C742.019 736.899 744.066 737.756 746.893 738.423L755.038 740.293C759.755 741.383 763.271 743.063 765.586 745.333C767.9 747.603 769.057 750.552 769.057 754.179C769.057 757.25 768.167 759.987 766.387 762.391C764.629 764.772 762.17 766.641 759.01 767.999C755.872 769.356 752.234 770.035 748.094 770.035C742.353 770.035 737.668 768.811 734.041 766.363C730.414 763.893 728.188 760.388 727.365 755.848L737.012 754.379C737.613 756.894 738.848 758.797 740.717 760.087C742.587 761.356 745.023 761.99 748.028 761.99C751.299 761.99 753.914 761.311 755.872 759.954C757.83 758.574 758.81 756.894 758.81 754.913C758.81 753.311 758.209 751.965 757.007 750.874C755.828 749.784 754.014 748.96 751.566 748.404L742.887 746.501C738.102 745.411 734.564 743.675 732.272 741.294C730.002 738.913 728.867 735.897 728.867 732.248C728.867 729.221 729.713 726.573 731.404 724.303C733.095 722.033 735.432 720.264 738.414 718.996C741.396 717.705 744.812 717.06 748.662 717.06C754.203 717.06 758.565 718.261 761.747 720.665C764.929 723.046 767.032 726.239 768.056 730.245ZM801.189 770.035C796.138 770.035 791.787 768.955 788.138 766.797C784.51 764.616 781.706 761.556 779.726 757.617C777.767 753.656 776.788 749.016 776.788 743.697C776.788 738.446 777.767 733.817 779.726 729.811C781.706 725.805 784.466 722.679 788.004 720.431C791.565 718.183 795.726 717.06 800.488 717.06C803.381 717.06 806.185 717.538 808.9 718.495C811.615 719.452 814.052 720.954 816.211 723.001C818.369 725.049 820.072 727.708 821.318 730.979C822.564 734.228 823.187 738.179 823.187 742.83V746.368H782.429V738.891H813.407C813.407 736.265 812.873 733.939 811.804 731.914C810.736 729.867 809.234 728.253 807.298 727.074C805.384 725.894 803.137 725.305 800.555 725.305C797.751 725.305 795.303 725.995 793.211 727.374C791.142 728.732 789.54 730.512 788.405 732.715C787.292 734.896 786.736 737.266 786.736 739.825V745.667C786.736 749.094 787.336 752.009 788.538 754.413C789.762 756.816 791.464 758.652 793.645 759.92C795.826 761.167 798.374 761.79 801.29 761.79C803.181 761.79 804.906 761.523 806.464 760.989C808.021 760.432 809.368 759.609 810.503 758.518C811.638 757.428 812.505 756.082 813.106 754.479L822.553 756.182C821.796 758.964 820.439 761.4 818.481 763.492C816.544 765.562 814.108 767.175 811.17 768.332C808.255 769.467 804.928 770.035 801.189 770.035ZM871.742 730.245L862.696 731.847C862.318 730.69 861.717 729.589 860.894 728.543C860.093 727.497 859.002 726.64 857.622 725.972C856.243 725.305 854.518 724.971 852.448 724.971C849.622 724.971 847.263 725.605 845.372 726.874C843.48 728.12 842.534 729.733 842.534 731.714C842.534 733.427 843.169 734.807 844.437 735.853C845.705 736.899 847.753 737.756 850.579 738.423L858.724 740.293C863.442 741.383 866.958 743.063 869.272 745.333C871.587 747.603 872.744 750.552 872.744 754.179C872.744 757.25 871.854 759.987 870.073 762.391C868.315 764.772 865.856 766.641 862.696 767.999C859.558 769.356 855.92 770.035 851.781 770.035C846.039 770.035 841.355 768.811 837.727 766.363C834.1 763.893 831.875 760.388 831.051 755.848L840.698 754.379C841.299 756.894 842.534 758.797 844.404 760.087C846.273 761.356 848.71 761.99 851.714 761.99C854.985 761.99 857.6 761.311 859.558 759.954C861.517 758.574 862.496 756.894 862.496 754.913C862.496 753.311 861.895 751.965 860.693 750.874C859.514 749.784 857.7 748.96 855.252 748.404L846.573 746.501C841.789 745.411 838.25 743.675 835.958 741.294C833.688 738.913 832.553 735.897 832.553 732.248C832.553 729.221 833.399 726.573 835.09 724.303C836.782 722.033 839.118 720.264 842.1 718.996C845.082 717.705 848.498 717.06 852.348 717.06C857.889 717.06 862.251 718.261 865.433 720.665C868.616 723.046 870.719 726.239 871.742 730.245ZM950.577 717.727L931.984 769H921.302L902.676 717.727H913.391L926.376 757.183H926.91L939.862 717.727H950.577ZM959.017 769V717.727H968.998V769H959.017ZM964.057 709.816C962.322 709.816 960.831 709.237 959.584 708.08C958.36 706.901 957.748 705.499 957.748 703.874C957.748 702.228 958.36 700.826 959.584 699.668C960.831 698.489 962.322 697.899 964.057 697.899C965.793 697.899 967.273 698.489 968.497 699.668C969.743 700.826 970.366 702.228 970.366 703.874C970.366 705.499 969.743 706.901 968.497 708.08C967.273 709.237 965.793 709.816 964.057 709.816ZM996.406 770.135C993.157 770.135 990.22 769.534 987.594 768.332C984.968 767.108 982.887 765.339 981.352 763.025C979.838 760.71 979.082 757.873 979.082 754.513C979.082 751.62 979.638 749.239 980.751 747.369C981.863 745.5 983.365 744.02 985.257 742.93C987.149 741.839 989.263 741.016 991.599 740.46C993.936 739.903 996.317 739.48 998.743 739.191C1001.81 738.835 1004.31 738.546 1006.22 738.323C1008.13 738.078 1009.52 737.689 1010.39 737.155C1011.26 736.621 1011.69 735.753 1011.69 734.551V734.317C1011.69 731.402 1010.87 729.143 1009.22 727.541C1007.6 725.939 1005.17 725.138 1001.95 725.138C998.587 725.138 995.939 725.883 994.003 727.374C992.089 728.843 990.765 730.479 990.03 732.281L980.651 730.145C981.763 727.029 983.388 724.515 985.524 722.601C987.683 720.665 990.164 719.263 992.968 718.395C995.772 717.505 998.721 717.06 1001.81 717.06C1003.86 717.06 1006.03 717.304 1008.32 717.794C1010.64 718.261 1012.8 719.129 1014.8 720.398C1016.82 721.666 1018.48 723.48 1019.77 725.839C1021.06 728.175 1021.71 731.213 1021.71 734.952V769H1011.96V761.99H1011.56C1010.92 763.281 1009.95 764.549 1008.66 765.795C1007.37 767.042 1005.71 768.076 1003.68 768.9C1001.66 769.723 999.232 770.135 996.406 770.135ZM998.576 762.124C1001.34 762.124 1003.69 761.578 1005.65 760.488C1007.63 759.397 1009.14 757.973 1010.16 756.215C1011.2 754.435 1011.73 752.532 1011.73 750.507V743.898C1011.37 744.254 1010.68 744.588 1009.66 744.899C1008.66 745.188 1007.51 745.444 1006.22 745.667C1004.93 745.867 1003.67 746.056 1002.45 746.234C1001.22 746.39 1000.2 746.524 999.377 746.635C997.441 746.88 995.672 747.291 994.07 747.87C992.49 748.449 991.221 749.283 990.264 750.374C989.329 751.442 988.862 752.866 988.862 754.646C988.862 757.116 989.775 758.986 991.599 760.254C993.424 761.5 995.75 762.124 998.576 762.124ZM1058.8 769V700.636H1083.17C1088.47 700.636 1092.86 701.549 1096.35 703.374C1099.87 705.198 1102.5 707.724 1104.23 710.951C1105.97 714.156 1106.84 717.861 1106.84 722.067C1106.84 726.25 1105.96 729.933 1104.2 733.116C1102.46 736.276 1099.84 738.735 1096.32 740.493C1092.83 742.251 1088.43 743.13 1083.14 743.13H1064.68V734.251H1082.2C1085.54 734.251 1088.25 733.772 1090.35 732.815C1092.46 731.858 1094.01 730.468 1094.99 728.643C1095.96 726.818 1096.45 724.626 1096.45 722.067C1096.45 719.485 1095.95 717.249 1094.95 715.357C1093.97 713.466 1092.43 712.019 1090.31 711.018C1088.22 709.994 1085.47 709.482 1082.07 709.482H1069.12V769H1058.8ZM1092.55 738.156L1109.44 769H1097.69L1081.13 738.156H1092.55ZM1118.45 769V700.636H1142.81C1148.13 700.636 1152.54 701.604 1156.03 703.54C1159.53 705.477 1162.14 708.125 1163.88 711.485C1165.61 714.823 1166.48 718.584 1166.48 722.768C1166.48 726.974 1165.6 730.757 1163.84 734.117C1162.11 737.455 1159.48 740.103 1155.97 742.062C1152.47 743.998 1148.08 744.966 1142.78 744.966H1126.02V736.22H1141.85C1145.21 736.22 1147.93 735.642 1150.02 734.484C1152.12 733.305 1153.65 731.703 1154.63 729.678C1155.61 727.652 1156.1 725.349 1156.1 722.768C1156.1 720.186 1155.61 717.894 1154.63 715.891C1153.65 713.888 1152.11 712.32 1149.99 711.185C1147.9 710.05 1145.14 709.482 1141.71 709.482H1128.76V769H1118.45ZM1234.41 722.868H1224C1223.6 720.643 1222.85 718.684 1221.76 716.993C1220.67 715.302 1219.34 713.866 1217.76 712.687C1216.18 711.507 1214.41 710.617 1212.45 710.016C1210.51 709.415 1208.46 709.115 1206.27 709.115C1202.34 709.115 1198.81 710.105 1195.69 712.086C1192.6 714.067 1190.15 716.971 1188.35 720.798C1186.57 724.626 1185.68 729.299 1185.68 734.818C1185.68 740.382 1186.57 745.077 1188.35 748.905C1190.15 752.732 1192.61 755.625 1195.73 757.584C1198.84 759.542 1202.35 760.521 1206.24 760.521C1208.4 760.521 1210.45 760.232 1212.38 759.653C1214.34 759.053 1216.11 758.174 1217.69 757.016C1219.27 755.859 1220.61 754.446 1221.7 752.777C1222.81 751.086 1223.58 749.15 1224 746.969L1234.41 747.002C1233.86 750.362 1232.78 753.456 1231.18 756.282C1229.6 759.086 1227.56 761.512 1225.07 763.559C1222.6 765.584 1219.77 767.153 1216.59 768.266C1213.41 769.378 1209.94 769.935 1206.17 769.935C1200.25 769.935 1194.98 768.533 1190.35 765.729C1185.72 762.902 1182.07 758.863 1179.4 753.612C1176.75 748.36 1175.43 742.095 1175.43 734.818C1175.43 727.519 1176.77 721.254 1179.44 716.025C1182.11 710.773 1185.76 706.745 1190.39 703.941C1195.01 701.115 1200.28 699.702 1206.17 699.702C1209.8 699.702 1213.18 700.225 1216.32 701.271C1219.48 702.294 1222.32 703.808 1224.83 705.81C1227.35 707.791 1229.43 710.217 1231.08 713.087C1232.72 715.936 1233.84 719.196 1234.41 722.868ZM1280.07 769L1264.98 717.727H1275.29L1285.34 755.381H1285.84L1295.92 717.727H1306.24L1316.25 755.214H1316.75L1326.73 717.727H1337.05L1321.99 769H1311.81L1301.4 731.981H1300.63L1290.22 769H1280.07ZM1366.12 770.035C1361.07 770.035 1356.72 768.955 1353.07 766.797C1349.44 764.616 1346.64 761.556 1344.65 757.617C1342.7 753.656 1341.72 749.016 1341.72 743.697C1341.72 738.446 1342.7 733.817 1344.65 729.811C1346.64 725.805 1349.39 722.679 1352.93 720.431C1356.49 718.183 1360.66 717.06 1365.42 717.06C1368.31 717.06 1371.11 717.538 1373.83 718.495C1376.54 719.452 1378.98 720.954 1381.14 723.001C1383.3 725.049 1385 727.708 1386.25 730.979C1387.49 734.228 1388.12 738.179 1388.12 742.83V746.368H1347.36V738.891H1378.34C1378.34 736.265 1377.8 733.939 1376.73 731.914C1375.67 729.867 1374.16 728.253 1372.23 727.074C1370.31 725.894 1368.07 725.305 1365.48 725.305C1362.68 725.305 1360.23 725.995 1358.14 727.374C1356.07 728.732 1354.47 730.512 1353.33 732.715C1352.22 734.896 1351.66 737.266 1351.66 739.825V745.667C1351.66 749.094 1352.27 752.009 1353.47 754.413C1354.69 756.816 1356.39 758.652 1358.57 759.92C1360.76 761.167 1363.3 761.79 1366.22 761.79C1368.11 761.79 1369.83 761.523 1371.39 760.989C1372.95 760.432 1374.3 759.609 1375.43 758.518C1376.57 757.428 1377.43 756.082 1378.04 754.479L1387.48 756.182C1386.73 758.964 1385.37 761.4 1383.41 763.492C1381.47 765.562 1379.04 767.175 1376.1 768.332C1373.18 769.467 1369.86 770.035 1366.12 770.035ZM1399.05 769V700.636H1409.03V726.039H1409.63C1410.21 724.971 1411.05 723.736 1412.14 722.334C1413.23 720.932 1414.74 719.708 1416.68 718.662C1418.61 717.594 1421.17 717.06 1424.35 717.06C1428.49 717.06 1432.19 718.106 1435.44 720.197C1438.69 722.289 1441.23 725.305 1443.08 729.244C1444.95 733.183 1445.88 737.923 1445.88 743.464C1445.88 749.005 1444.96 753.756 1443.11 757.717C1441.27 761.656 1438.73 764.694 1435.5 766.83C1432.28 768.944 1428.59 770.001 1424.45 770.001C1421.34 770.001 1418.79 769.478 1416.81 768.433C1414.85 767.387 1413.32 766.163 1412.2 764.761C1411.09 763.359 1410.23 762.112 1409.63 761.022H1408.8V769H1399.05ZM1408.83 743.364C1408.83 746.969 1409.35 750.129 1410.4 752.844C1411.45 755.559 1412.96 757.684 1414.94 759.219C1416.92 760.733 1419.35 761.489 1422.22 761.489C1425.2 761.489 1427.69 760.699 1429.69 759.119C1431.7 757.517 1433.21 755.347 1434.23 752.61C1435.28 749.873 1435.8 746.791 1435.8 743.364C1435.8 739.981 1435.29 736.943 1434.27 734.251C1433.27 731.558 1431.75 729.433 1429.73 727.875C1427.73 726.317 1425.22 725.538 1422.22 725.538C1419.32 725.538 1416.88 726.284 1414.87 727.775C1412.89 729.266 1411.39 731.347 1410.37 734.017C1409.34 736.687 1408.83 739.803 1408.83 743.364ZM806.302 844.245L797.256 845.847C796.878 844.69 796.277 843.589 795.454 842.543C794.652 841.497 793.562 840.64 792.182 839.972C790.802 839.305 789.078 838.971 787.008 838.971C784.182 838.971 781.823 839.605 779.932 840.874C778.04 842.12 777.094 843.733 777.094 845.714C777.094 847.427 777.728 848.807 778.997 849.853C780.265 850.899 782.313 851.756 785.139 852.423L793.284 854.293C798.002 855.383 801.518 857.063 803.832 859.333C806.146 861.603 807.304 864.552 807.304 868.179C807.304 871.25 806.414 873.987 804.633 876.391C802.875 878.772 800.416 880.641 797.256 881.999C794.118 883.356 790.48 884.035 786.341 884.035C780.599 884.035 775.915 882.811 772.287 880.363C768.66 877.893 766.435 874.388 765.611 869.848L775.258 868.379C775.859 870.894 777.094 872.797 778.963 874.087C780.833 875.356 783.27 875.99 786.274 875.99C789.545 875.99 792.16 875.311 794.118 873.954C796.077 872.574 797.056 870.894 797.056 868.913C797.056 867.311 796.455 865.965 795.253 864.874C794.074 863.784 792.26 862.96 789.812 862.404L781.133 860.501C776.349 859.411 772.81 857.675 770.518 855.294C768.248 852.913 767.113 849.897 767.113 846.248C767.113 843.221 767.959 840.573 769.65 838.303C771.342 836.033 773.678 834.264 776.66 832.996C779.642 831.705 783.058 831.06 786.908 831.06C792.449 831.06 796.811 832.261 799.993 834.665C803.176 837.046 805.279 840.239 806.302 844.245ZM838.935 884.035C834.128 884.035 829.933 882.933 826.35 880.73C822.767 878.527 819.986 875.445 818.005 871.484C816.025 867.522 815.034 862.894 815.034 857.597C815.034 852.279 816.025 847.628 818.005 843.644C819.986 839.661 822.767 836.567 826.35 834.364C829.933 832.161 834.128 831.06 838.935 831.06C843.742 831.06 847.937 832.161 851.519 834.364C855.102 836.567 857.884 839.661 859.865 843.644C861.845 847.628 862.835 852.279 862.835 857.597C862.835 862.894 861.845 867.522 859.865 871.484C857.884 875.445 855.102 878.527 851.519 880.73C847.937 882.933 843.742 884.035 838.935 884.035ZM838.968 875.656C842.084 875.656 844.665 874.833 846.713 873.186C848.76 871.539 850.273 869.347 851.252 866.61C852.254 863.873 852.754 860.857 852.754 857.564C852.754 854.293 852.254 851.288 851.252 848.551C850.273 845.792 848.76 843.577 846.713 841.908C844.665 840.239 842.084 839.405 838.968 839.405C835.83 839.405 833.227 840.239 831.157 841.908C829.11 843.577 827.585 845.792 826.584 848.551C825.605 851.288 825.115 854.293 825.115 857.564C825.115 860.857 825.605 863.873 826.584 866.61C827.585 869.347 829.11 871.539 831.157 873.186C833.227 874.833 835.83 875.656 838.968 875.656ZM894.634 884.035C889.671 884.035 885.398 882.911 881.815 880.663C878.255 878.393 875.518 875.267 873.604 871.283C871.69 867.3 870.733 862.738 870.733 857.597C870.733 852.39 871.712 847.795 873.67 843.811C875.629 839.805 878.388 836.679 881.949 834.431C885.509 832.183 889.704 831.06 894.533 831.06C898.428 831.06 901.899 831.783 904.948 833.229C907.997 834.654 910.456 836.656 912.325 839.238C914.217 841.819 915.341 844.835 915.697 848.284H905.983C905.449 845.881 904.225 843.811 902.311 842.075C900.42 840.339 897.883 839.472 894.7 839.472C891.919 839.472 889.482 840.206 887.39 841.675C885.32 843.121 883.707 845.191 882.55 847.884C881.393 850.554 880.814 853.714 880.814 857.364C880.814 861.102 881.381 864.329 882.516 867.044C883.651 869.759 885.254 871.862 887.323 873.353C889.415 874.844 891.874 875.589 894.7 875.589C896.592 875.589 898.305 875.245 899.841 874.555C901.399 873.843 902.701 872.83 903.746 871.517C904.815 870.204 905.56 868.624 905.983 866.777H915.697C915.341 870.093 914.261 873.053 912.459 875.656C910.656 878.26 908.242 880.307 905.215 881.798C902.211 883.289 898.684 884.035 894.634 884.035ZM934.61 865.609L934.543 853.425H936.279L956.708 831.727H968.658L945.358 856.429H943.79L934.61 865.609ZM925.43 883V814.636H935.411V883H925.43ZM957.809 883L939.45 858.632L946.327 851.656L970.06 883H957.809ZM996.801 884.035C991.75 884.035 987.399 882.955 983.749 880.797C980.122 878.616 977.318 875.556 975.337 871.617C973.379 867.656 972.4 863.016 972.4 857.697C972.4 852.446 973.379 847.817 975.337 843.811C977.318 839.805 980.077 836.679 983.616 834.431C987.176 832.183 991.338 831.06 996.1 831.06C998.993 831.06 1001.8 831.538 1004.51 832.495C1007.23 833.452 1009.66 834.954 1011.82 837.001C1013.98 839.049 1015.68 841.708 1016.93 844.979C1018.18 848.228 1018.8 852.179 1018.8 856.83V860.368H978.041V852.891H1009.02C1009.02 850.265 1008.48 847.939 1007.42 845.914C1006.35 843.867 1004.85 842.253 1002.91 841.074C1001 839.894 998.748 839.305 996.167 839.305C993.363 839.305 990.915 839.995 988.823 841.374C986.754 842.732 985.151 844.512 984.016 846.715C982.904 848.896 982.347 851.266 982.347 853.825V859.667C982.347 863.094 982.948 866.009 984.15 868.413C985.374 870.816 987.076 872.652 989.257 873.92C991.438 875.167 993.986 875.79 996.901 875.79C998.793 875.79 1000.52 875.523 1002.08 874.989C1003.63 874.432 1004.98 873.609 1006.11 872.518C1007.25 871.428 1008.12 870.082 1008.72 868.479L1018.16 870.182C1017.41 872.964 1016.05 875.4 1014.09 877.492C1012.16 879.562 1009.72 881.175 1006.78 882.332C1003.87 883.467 1000.54 884.035 996.801 884.035ZM1052.87 831.727V839.739H1024.86V831.727H1052.87ZM1032.37 819.443H1042.35V867.945C1042.35 869.881 1042.64 871.339 1043.22 872.318C1043.8 873.275 1044.54 873.932 1045.46 874.288C1046.39 874.621 1047.4 874.788 1048.49 874.788C1049.3 874.788 1050 874.733 1050.6 874.621C1051.2 874.51 1051.67 874.421 1052 874.354L1053.8 882.599C1053.22 882.822 1052.4 883.045 1051.33 883.267C1050.26 883.512 1048.93 883.645 1047.33 883.668C1044.7 883.712 1042.25 883.245 1039.98 882.266C1037.71 881.286 1035.88 879.773 1034.47 877.726C1033.07 875.679 1032.37 873.108 1032.37 870.015V819.443ZM1100.56 844.245L1091.52 845.847C1091.14 844.69 1090.54 843.589 1089.71 842.543C1088.91 841.497 1087.82 840.64 1086.44 839.972C1085.06 839.305 1083.34 838.971 1081.27 838.971C1078.44 838.971 1076.08 839.605 1074.19 840.874C1072.3 842.12 1071.35 843.733 1071.35 845.714C1071.35 847.427 1071.99 848.807 1073.26 849.853C1074.53 850.899 1076.57 851.756 1079.4 852.423L1087.54 854.293C1092.26 855.383 1095.78 857.063 1098.09 859.333C1100.41 861.603 1101.56 864.552 1101.56 868.179C1101.56 871.25 1100.67 873.987 1098.89 876.391C1097.14 878.772 1094.68 880.641 1091.52 881.999C1088.38 883.356 1084.74 884.035 1080.6 884.035C1074.86 884.035 1070.18 882.811 1066.55 880.363C1062.92 877.893 1060.69 874.388 1059.87 869.848L1069.52 868.379C1070.12 870.894 1071.35 872.797 1073.22 874.087C1075.09 875.356 1077.53 875.99 1080.53 875.99C1083.81 875.99 1086.42 875.311 1088.38 873.954C1090.34 872.574 1091.32 870.894 1091.32 868.913C1091.32 867.311 1090.72 865.965 1089.51 864.874C1088.33 863.784 1086.52 862.96 1084.07 862.404L1075.39 860.501C1070.61 859.411 1067.07 857.675 1064.78 855.294C1062.51 852.913 1061.37 849.897 1061.37 846.248C1061.37 843.221 1062.22 840.573 1063.91 838.303C1065.6 836.033 1067.94 834.264 1070.92 832.996C1073.9 831.705 1077.32 831.06 1081.17 831.06C1086.71 831.06 1091.07 832.261 1094.25 834.665C1097.44 837.046 1099.54 840.239 1100.56 844.245Z" fill="#FF7B15"/>
</g>
<defs>
<filter id="filter0_d_2_6713" x="-56.5286" y="292.496" width="2032.06" height="1748.78" filterUnits="userSpaceOnUse" color-interpolation-filters="sRGB">
<feFlood flood-opacity="0" result="BackgroundImageFix"/>
<feColorMatrix in="SourceAlpha" type="matrix" values="0 0 0 0 0 0 0 0 0 0 0 0 0 0 0 0 0 0 127 0" result="hardAlpha"/>
<feOffset dy="87.0247"/>
<feGaussianBlur stdDeviation="50.2643"/>
<feColorMatrix type="matrix" values="0 0 0 0 0 0 0 0 0 0 0 0 0 0 0 0 0 0 0.09 0"/>
<feBlend mode="normal" in2="BackgroundImageFix" result="effect1_dropShadow_2_6713"/>
<feBlend mode="normal" in="SourceGraphic" in2="effect1_dropShadow_2_6713" result="shape"/>
</filter>
<filter id="filter1_b_2_6713" x="-16.0171" y="245.983" width="1951.03" height="204.278" filterUnits="userSpaceOnUse" color-interpolation-filters="sRGB">
<feFlood flood-opacity="0" result="BackgroundImageFix"/>
<feGaussianBlur in="BackgroundImageFix" stdDeviation="30.0085"/>
<feComposite in2="SourceAlpha" operator="in" result="effect1_backgroundBlur_2_6713"/>
<feBlend mode="normal" in="SourceGraphic" in2="effect1_backgroundBlur_2_6713" result="shape"/>
</filter>
<filter id="filter2_i_2_6713" x="79.1608" y="338.737" width="23.0369" height="23.0369" filterUnits="userSpaceOnUse" color-interpolation-filters="sRGB">
<feFlood flood-opacity="0" result="BackgroundImageFix"/>
<feBlend mode="normal" in="SourceGraphic" in2="BackgroundImageFix" result="shape"/>
<feColorMatrix in="SourceAlpha" type="matrix" values="0 0 0 0 0 0 0 0 0 0 0 0 0 0 0 0 0 0 127 0" result="hardAlpha"/>
<feOffset/>
<feGaussianBlur stdDeviation="4.50128"/>
<feComposite in2="hardAlpha" operator="arithmetic" k2="-1" k3="1"/>
<feColorMatrix type="matrix" values="0 0 0 0 0.92549 0 0 0 0 0.427451 0 0 0 0 0.384314 0 0 0 1 0"/>
<feBlend mode="normal" in2="shape" result="effect1_innerShadow_2_6713"/>
</filter>
<filter id="filter3_i_2_6713" x="121.597" y="338.737" width="23.0369" height="23.0369" filterUnits="userSpaceOnUse" color-interpolation-filters="sRGB">
<feFlood flood-opacity="0" result="BackgroundImageFix"/>
<feBlend mode="normal" in="SourceGraphic" in2="BackgroundImageFix" result="shape"/>
<feColorMatrix in="SourceAlpha" type="matrix" values="0 0 0 0 0 0 0 0 0 0 0 0 0 0 0 0 0 0 127 0" result="hardAlpha"/>
<feOffset/>
<feGaussianBlur stdDeviation="4.50128"/>
<feComposite in2="hardAlpha" operator="arithmetic" k2="-1" k3="1"/>
<feColorMatrix type="matrix" values="0 0 0 0 0.960784 0 0 0 0 0.768627 0 0 0 0 0.317647 0 0 0 1 0"/>
<feBlend mode="normal" in2="shape" result="effect1_innerShadow_2_6713"/>
</filter>
<filter id="filter4_i_2_6713" x="164.033" y="338.737" width="23.0369" height="23.0369" filterUnits="userSpaceOnUse" color-interpolation-filters="sRGB">
<feFlood flood-opacity="0" result="BackgroundImageFix"/>
<feBlend mode="normal" in="SourceGraphic" in2="BackgroundImageFix" result="shape"/>
<feColorMatrix in="SourceAlpha" type="matrix" values="0 0 0 0 0 0 0 0 0 0 0 0 0 0 0 0 0 0 127 0" result="hardAlpha"/>
<feOffset/>
<feGaussianBlur stdDeviation="4.50128"/>
<feComposite in2="hardAlpha" operator="arithmetic" k2="-1" k3="1"/>
<feColorMatrix type="matrix" values="0 0 0 0 0.407843 0 0 0 0 0.8 0 0 0 0 0.345098 0 0 0 1 0"/>
<feBlend mode="normal" in2="shape" result="effect1_innerShadow_2_6713"/>
</filter>
<linearGradient id="paint0_linear_2_6713" x1="721.957" y1="116" x2="721.957" y2="189.55" gradientUnits="userSpaceOnUse">
<stop offset="0.102191" stop-color="white" stop-opacity="0.14"/>
<stop offset="0.86224" stop-color="white"/>
</linearGradient>
<clipPath id="clip0_2_6713">
<rect width="1920" height="1080" fill="white"/>
</clipPath>
<clipPath id="clip1_2_6713">
<rect x="44" y="306" width="1831" height="1547.72" rx="29.5736" fill="white"/>
</clipPath>
<clipPath id="clip2_2_6713">
<rect width="111.032" height="42.012" fill="white" transform="translate(1746.66 329.035)"/>
</clipPath>
<clipPath id="clip3_2_6713">
<rect width="99.0282" height="42.012" fill="white" transform="translate(224.657 329.035)"/>
</clipPath>
</defs>
</svg>
