<svg width="1920" height="1080" viewBox="0 0 1920 1080" fill="none" xmlns="http://www.w3.org/2000/svg">
<g clip-path="url(#clip0_1_216)">
<rect width="1920" height="1080" fill="#FF7B15"/>
<path d="M823.136 143.075H832.001V206.708C832.001 209.03 833.161 210.191 835.483 210.191H840.337V218H834.111C827.568 218 823.136 213.568 823.136 207.131V143.075ZM851.967 162.07H860.831V218H851.967V162.07ZM851.756 153.311V143.18H861.042V153.311H851.756ZM897.887 215.045C883.429 215.045 873.193 203.859 873.193 187.924C873.193 171.99 883.324 160.804 897.781 160.804C905.379 160.804 911.816 164.708 914.349 170.934V162.07H922.791V212.513C922.791 227.287 912.661 235.096 898.098 235.096C886.173 235.096 877.309 228.658 874.776 218.844L884.062 218.211C886.278 223.487 891.133 226.653 898.098 226.653C907.912 226.653 913.927 222.432 913.927 214.518V205.337C911.183 211.246 904.957 215.045 897.887 215.045ZM882.479 187.924C882.479 199.427 888.6 206.603 898.414 206.603C907.806 206.603 913.927 199.427 914.033 187.924C914.244 176.422 908.123 169.246 898.414 169.246C888.6 169.246 882.479 176.422 882.479 187.924ZM937.041 143.075H945.905V169.668C949.071 163.547 955.614 160.804 962.579 160.804C974.187 160.804 981.469 169.035 981.469 182.015V218H972.604V185.181C972.604 174.522 968.7 169.246 960.679 169.246C951.815 169.246 945.905 174.839 945.905 185.181V218H937.041V143.075ZM1000.22 149.406H1009.08V162.07H1023.96V169.879H1009.08V203.12C1009.08 207.764 1011.3 210.191 1015.73 210.191H1023.75V218H1015.73C1005.7 218 1000.22 212.618 1000.22 203.12V169.879H991.986V162.07H1000.22V149.406ZM1085.01 143.075C1108.02 143.075 1121 156.582 1121 180.643C1121 204.598 1108.33 218 1085.65 218H1061.8V143.075H1085.01ZM1070.87 209.136H1085.01C1102.64 209.136 1111.5 199.638 1111.5 180.643C1111.5 161.437 1102.64 151.939 1085.01 151.939H1070.87V209.136ZM1124.15 218L1151.17 143.075H1163.41L1190.42 218H1180.5L1173.01 196.683H1141.56L1134.07 218H1124.15ZM1144.62 187.819H1169.95L1157.29 150.989L1144.62 187.819ZM1204.1 193.412C1206 203.543 1213.18 210.402 1225 210.402C1234.6 210.402 1241.04 206.603 1241.04 199.11C1241.04 191.512 1234.5 186.869 1219.51 183.07C1207.27 180.01 1196.19 173.995 1196.19 161.964C1196.19 149.301 1206.32 141.386 1220.67 141.386C1236.71 141.386 1247.37 151.411 1248.95 165.236L1239.46 165.869C1238.08 156.477 1230.91 150.251 1220.57 150.251C1212.02 150.251 1205.69 154.788 1205.69 161.964C1205.69 171.04 1216.56 173.572 1226.05 176.211C1239.67 180.01 1250.54 186.764 1250.54 198.161C1250.54 212.09 1237.87 219.266 1224.26 219.266C1207.9 219.266 1195.87 209.241 1194.61 194.045L1204.1 193.412Z" fill="white"/>
<path fill-rule="evenodd" clip-rule="evenodd" d="M715.561 116C713.795 116 712.363 117.432 712.363 119.198V156.796L685.777 130.21C684.529 128.961 682.504 128.961 681.255 130.21L672.21 139.255C670.961 140.504 670.961 142.529 672.21 143.777L698.796 170.363L661.198 170.363C659.432 170.363 658 171.795 658 173.561V186.352C658 188.118 659.432 189.55 661.198 189.55L782.716 189.55C784.482 189.55 785.913 188.118 785.913 186.352V173.561C785.913 171.795 784.482 170.363 782.716 170.363H745.118L771.703 143.777C772.952 142.529 772.952 140.504 771.703 139.255L762.659 130.21C761.41 128.961 759.385 128.961 758.136 130.21L731.55 156.796V119.198C731.55 117.432 730.118 116 728.352 116H715.561Z" fill="url(#paint0_linear_1_216)" fill-opacity="0.31"/>
<path fill-rule="evenodd" clip-rule="evenodd" d="M685.777 229.703L721.957 193.524L758.136 229.703C759.385 230.952 761.41 230.952 762.658 229.703L771.703 220.659C772.952 219.41 772.952 217.385 771.703 216.136L724.206 168.639C722.957 167.39 720.933 167.39 719.684 168.639L710.639 177.684C710.561 177.762 710.487 177.843 710.419 177.927L672.21 216.136C670.961 217.385 670.961 219.41 672.21 220.659L681.255 229.703C682.504 230.952 684.528 230.952 685.777 229.703ZM715.561 218.331C713.795 218.331 712.363 219.763 712.363 221.529V240.716C712.363 242.482 713.795 243.913 715.561 243.913H728.352C730.118 243.913 731.55 242.482 731.55 240.716V221.529C731.55 219.763 730.118 218.331 728.352 218.331H715.561Z" fill="white"/>
<g filter="url(#filter0_d_1_216)">
<g clip-path="url(#clip1_1_216)">
<g filter="url(#filter1_b_1_216)">
<path d="M44 321.004C44 312.718 50.7176 306 59.0043 306H1860C1868.28 306 1875 312.718 1875 321.004V390.244H44V321.004Z" fill="white"/>
<g clip-path="url(#clip2_1_216)">
<path d="M1771.41 353.439C1771.95 353.439 1772.4 352.991 1772.4 352.468V339.677L1772.32 337.808L1773.17 338.693L1775.05 340.71C1775.23 340.91 1775.49 341.009 1775.72 341.009C1776.25 341.009 1776.63 340.636 1776.63 340.125C1776.63 339.863 1776.53 339.664 1776.35 339.477L1772.14 335.417C1771.89 335.168 1771.66 335.081 1771.41 335.081C1771.17 335.081 1770.94 335.168 1770.69 335.417L1766.48 339.477C1766.3 339.664 1766.18 339.863 1766.18 340.125C1766.18 340.636 1766.57 341.009 1767.08 341.009C1767.33 341.009 1767.59 340.91 1767.77 340.71L1769.66 338.693L1770.51 337.808L1770.42 339.677V352.468C1770.42 352.991 1770.88 353.439 1771.41 353.439ZM1764.27 363.191H1778.55C1781.15 363.191 1782.46 361.896 1782.46 359.33V346.9C1782.46 344.335 1781.15 343.039 1778.55 343.039H1775.08V345.045H1778.51C1779.75 345.045 1780.46 345.717 1780.46 347.012V359.218C1780.46 360.513 1779.75 361.186 1778.51 361.186H1764.29C1763.05 361.186 1762.36 360.513 1762.36 359.218V347.012C1762.36 345.717 1763.05 345.045 1764.29 345.045H1767.74V343.039H1764.27C1761.66 343.039 1760.35 344.335 1760.35 346.9V359.33C1760.35 361.896 1761.66 363.191 1764.27 363.191Z" fill="white"/>
<path d="M1823.66 357.349H1825.79V359.254C1825.79 361.82 1827.09 363.115 1829.7 363.115H1842.21C1844.8 363.115 1846.11 361.82 1846.11 359.254V346.65C1846.11 344.084 1844.8 342.789 1842.21 342.789H1840.06V340.884C1840.06 338.318 1838.76 337.023 1836.17 337.023H1823.66C1821.05 337.023 1819.75 338.318 1819.75 340.884V353.488C1819.75 356.053 1821.05 357.349 1823.66 357.349ZM1823.69 355.343C1822.44 355.343 1821.76 354.671 1821.76 353.376V340.996C1821.76 339.7 1822.44 339.028 1823.69 339.028H1836.13C1837.36 339.028 1838.06 339.7 1838.06 340.996V342.789H1829.7C1827.09 342.789 1825.79 344.072 1825.79 346.65V355.343H1823.69ZM1829.73 361.11C1828.49 361.11 1827.8 360.437 1827.8 359.142V346.762C1827.8 345.467 1828.49 344.794 1829.73 344.794H1842.17C1843.4 344.794 1844.1 345.467 1844.1 346.762V359.142C1844.1 360.437 1843.4 361.11 1842.17 361.11H1829.73Z" fill="white"/>
</g>
<g clip-path="url(#clip3_1_216)">
<path d="M253.56 360.526L243.684 350.886C243.447 350.649 243.323 350.363 243.323 350.052C243.323 349.728 243.46 349.416 243.696 349.217L253.56 339.565C253.772 339.353 254.046 339.229 254.37 339.229C255.018 339.229 255.503 339.727 255.503 340.374C255.503 340.673 255.379 340.972 255.18 341.184L246.113 350.052L255.18 358.919C255.379 359.131 255.503 359.418 255.503 359.729C255.503 360.377 255.018 360.862 254.37 360.862C254.046 360.862 253.772 360.738 253.56 360.526Z" fill="#9D9D9D"/>
<path d="M293.989 360.875C294.312 360.875 294.586 360.75 294.798 360.539L304.675 350.886C304.911 350.649 305.036 350.363 305.036 350.052C305.036 349.728 304.911 349.429 304.675 349.217L294.811 339.577C294.586 339.353 294.312 339.229 293.989 339.229C293.341 339.229 292.855 339.727 292.855 340.374C292.855 340.673 292.98 340.972 293.179 341.184L302.246 350.052L293.179 358.919C292.98 359.131 292.855 359.418 292.855 359.729C292.855 360.377 293.341 360.875 293.989 360.875Z" fill="#7A7A7A" fill-opacity="0.25"/>
</g>
<g filter="url(#filter2_i_1_216)">
<path fill-rule="evenodd" clip-rule="evenodd" d="M90.6792 361.774C97.0406 361.774 102.198 356.617 102.198 350.255C102.198 343.894 97.0406 338.737 90.6792 338.737C84.3177 338.737 79.1608 343.894 79.1608 350.255C79.1608 356.617 84.3177 361.774 90.6792 361.774Z" fill="#F06959"/>
</g>
<path d="M101.823 350.255C101.823 356.41 96.8335 361.399 90.6792 361.399C84.5249 361.399 79.5359 356.41 79.5359 350.255C79.5359 344.101 84.5249 339.112 90.6792 339.112C96.8335 339.112 101.823 344.101 101.823 350.255Z" stroke="#CE5347" stroke-width="0.750214"/>
<g filter="url(#filter3_i_1_216)">
<path fill-rule="evenodd" clip-rule="evenodd" d="M133.116 361.774C139.477 361.774 144.634 356.617 144.634 350.255C144.634 343.894 139.477 338.737 133.116 338.737C126.754 338.737 121.597 343.894 121.597 350.255C121.597 356.617 126.754 361.774 133.116 361.774Z" fill="#F4C151"/>
</g>
<path d="M144.259 350.255C144.259 356.41 139.27 361.399 133.116 361.399C126.961 361.399 121.972 356.41 121.972 350.255C121.972 344.101 126.961 339.112 133.116 339.112C139.27 339.112 144.259 344.101 144.259 350.255Z" stroke="#D6A243" stroke-width="0.750214"/>
<g filter="url(#filter4_i_1_216)">
<path fill-rule="evenodd" clip-rule="evenodd" d="M175.552 361.774C181.913 361.774 187.07 356.617 187.07 350.255C187.07 343.894 181.913 338.737 175.552 338.737C169.19 338.737 164.033 343.894 164.033 350.255C164.033 356.617 169.19 361.774 175.552 361.774Z" fill="#61C454"/>
</g>
<path d="M186.695 350.255C186.695 356.41 181.706 361.399 175.552 361.399C169.398 361.399 164.408 356.41 164.408 350.255C164.408 344.101 169.398 339.112 175.552 339.112C181.706 339.112 186.695 344.101 186.695 350.255Z" stroke="#5BC74B" stroke-width="0.750214"/>
<path d="M382.893 337.872C382.893 330.171 389.136 323.928 396.836 323.928H1542.62C1550.32 323.928 1556.56 330.171 1556.56 337.872V357.271C1556.56 364.972 1550.32 371.214 1542.62 371.214H396.836C389.136 371.214 382.893 364.972 382.893 357.271V337.872Z" fill="white" stroke="#E6E6E6" stroke-width="1.21247"/>
<path d="M408.446 347.319C408.666 347.319 408.833 347.248 408.956 347.116L412.578 343.477C412.737 343.327 412.798 343.151 412.798 342.949C412.798 342.756 412.719 342.562 412.578 342.422L408.956 338.747C408.833 338.606 408.657 338.536 408.446 338.536C408.051 338.536 407.752 338.852 407.752 339.257C407.752 339.441 407.822 339.617 407.945 339.758L410.293 342.061C409.791 341.973 409.282 341.921 408.772 341.921C404.464 341.921 401 345.376 401 349.684C401 354 404.464 357.464 408.772 357.464C413.079 357.464 416.535 354 416.535 349.684C416.535 349.262 416.236 348.954 415.805 348.954C415.392 348.954 415.119 349.262 415.119 349.684C415.119 353.218 412.297 356.049 408.772 356.049C405.246 356.049 402.415 353.218 402.415 349.684C402.415 346.158 405.246 343.336 408.772 343.336C409.44 343.336 410.055 343.389 410.583 343.503L407.954 346.114C407.822 346.255 407.752 346.431 407.752 346.615C407.752 347.02 408.051 347.319 408.446 347.319Z" fill="#9B9B9B"/>
<path d="M433.223 356.576H441.592C442.726 356.576 443.28 356.014 443.28 354.783V348.33C443.28 347.222 442.823 346.65 441.882 346.554V344.338C441.882 341.024 439.711 339.424 437.407 339.424C435.104 339.424 432.932 341.024 432.932 344.338V346.598C432.071 346.73 431.535 347.292 431.535 348.33V354.783C431.535 356.014 432.088 356.576 433.223 356.576ZM434.348 344.154C434.348 341.947 435.763 340.778 437.407 340.778C439.051 340.778 440.467 341.947 440.467 344.154V346.545L434.348 346.554V344.154Z" fill="#9B9B9B"/>
<path d="M461.411 340.814V355H459.776V340.814H461.411ZM464.327 355V344.361H465.962V355H464.327ZM465.158 342.587C464.84 342.587 464.565 342.479 464.334 342.262C464.108 342.045 463.995 341.784 463.995 341.479C463.995 341.174 464.108 340.913 464.334 340.696C464.565 340.479 464.84 340.371 465.158 340.371C465.477 340.371 465.749 340.479 465.976 340.696C466.206 340.913 466.322 341.174 466.322 341.479C466.322 341.784 466.206 342.045 465.976 342.262C465.749 342.479 465.477 342.587 465.158 342.587ZM473.172 359.211C472.383 359.211 471.704 359.11 471.136 358.907C470.568 358.708 470.095 358.445 469.716 358.117C469.342 357.794 469.044 357.447 468.822 357.078L470.125 356.164C470.272 356.358 470.459 356.579 470.686 356.829C470.912 357.083 471.221 357.302 471.614 357.487C472.011 357.676 472.53 357.771 473.172 357.771C474.031 357.771 474.74 357.563 475.299 357.147C475.858 356.732 476.137 356.081 476.137 355.194V353.033H475.998C475.878 353.227 475.708 353.467 475.486 353.753C475.269 354.035 474.955 354.287 474.544 354.508C474.137 354.725 473.588 354.834 472.895 354.834C472.036 354.834 471.265 354.631 470.582 354.224C469.903 353.818 469.365 353.227 468.968 352.451C468.575 351.675 468.379 350.733 468.379 349.625C468.379 348.535 468.571 347.586 468.954 346.778C469.337 345.965 469.871 345.337 470.554 344.894C471.237 344.446 472.027 344.222 472.923 344.222C473.616 344.222 474.165 344.338 474.572 344.568C474.983 344.795 475.297 345.053 475.514 345.344C475.735 345.631 475.906 345.866 476.026 346.051H476.192V344.361H477.772V355.305C477.772 356.219 477.564 356.963 477.148 357.535C476.737 358.112 476.183 358.535 475.486 358.803C474.793 359.075 474.022 359.211 473.172 359.211ZM473.117 353.365C473.773 353.365 474.327 353.215 474.779 352.915C475.232 352.615 475.576 352.183 475.811 351.62C476.047 351.056 476.165 350.382 476.165 349.597C476.165 348.831 476.049 348.154 475.818 347.568C475.587 346.981 475.246 346.522 474.793 346.189C474.341 345.857 473.782 345.691 473.117 345.691C472.424 345.691 471.847 345.866 471.385 346.217C470.928 346.568 470.584 347.039 470.353 347.63C470.127 348.221 470.014 348.877 470.014 349.597C470.014 350.336 470.129 350.989 470.36 351.557C470.596 352.121 470.942 352.564 471.399 352.887C471.861 353.206 472.433 353.365 473.117 353.365ZM482.321 348.6V355H480.686V340.814H482.321V346.023H482.459C482.709 345.473 483.083 345.037 483.581 344.714C484.085 344.386 484.754 344.222 485.59 344.222C486.315 344.222 486.95 344.368 487.495 344.658C488.04 344.945 488.462 345.386 488.762 345.981C489.067 346.573 489.22 347.325 489.22 348.24V355H487.585V348.35C487.585 347.505 487.366 346.852 486.927 346.39C486.493 345.924 485.89 345.691 485.119 345.691C484.583 345.691 484.103 345.804 483.678 346.03C483.258 346.256 482.926 346.586 482.681 347.02C482.441 347.455 482.321 347.981 482.321 348.6ZM496.759 344.361V345.746H491.246V344.361H496.759ZM492.853 341.812H494.487V351.952C494.487 352.414 494.554 352.76 494.688 352.991C494.827 353.218 495.002 353.37 495.215 353.448C495.432 353.522 495.66 353.559 495.9 353.559C496.08 353.559 496.228 353.55 496.344 353.532C496.459 353.508 496.551 353.49 496.621 353.476L496.953 354.945C496.842 354.986 496.688 355.028 496.489 355.069C496.291 355.115 496.039 355.139 495.734 355.139C495.272 355.139 494.82 355.039 494.376 354.841C493.938 354.642 493.573 354.34 493.282 353.933C492.996 353.527 492.853 353.014 492.853 352.396V341.812ZM503.043 355.222C502.157 355.222 501.374 354.998 500.695 354.55C500.016 354.097 499.485 353.46 499.102 352.638C498.719 351.811 498.527 350.835 498.527 349.708C498.527 348.591 498.719 347.621 499.102 346.799C499.485 345.977 500.019 345.342 500.702 344.894C501.386 344.446 502.175 344.222 503.071 344.222C503.764 344.222 504.311 344.338 504.713 344.568C505.119 344.795 505.428 345.053 505.641 345.344C505.858 345.631 506.026 345.866 506.147 346.051H506.285V340.814H507.92V355H506.34V353.365H506.147C506.026 353.559 505.856 353.804 505.634 354.1C505.412 354.39 505.096 354.651 504.685 354.882C504.274 355.109 503.727 355.222 503.043 355.222ZM503.265 353.753C503.921 353.753 504.475 353.582 504.927 353.241C505.38 352.894 505.724 352.416 505.96 351.807C506.195 351.193 506.313 350.484 506.313 349.68C506.313 348.886 506.197 348.191 505.966 347.595C505.736 346.995 505.394 346.529 504.941 346.196C504.489 345.859 503.93 345.691 503.265 345.691C502.572 345.691 501.995 345.868 501.533 346.224C501.076 346.575 500.732 347.053 500.501 347.658C500.275 348.258 500.162 348.932 500.162 349.68C500.162 350.438 500.277 351.126 500.508 351.744C500.744 352.359 501.09 352.848 501.547 353.213C502.009 353.573 502.582 353.753 503.265 353.753ZM514.194 355.249C513.519 355.249 512.907 355.122 512.358 354.868C511.808 354.61 511.372 354.238 511.049 353.753C510.726 353.264 510.564 352.673 510.564 351.98C510.564 351.37 510.684 350.876 510.924 350.498C511.164 350.114 511.485 349.814 511.887 349.597C512.289 349.38 512.732 349.219 513.217 349.112C513.706 349.001 514.198 348.914 514.692 348.849C515.339 348.766 515.863 348.704 516.265 348.662C516.671 348.616 516.967 348.54 517.151 348.434C517.341 348.327 517.435 348.143 517.435 347.879V347.824C517.435 347.141 517.248 346.609 516.874 346.231C516.505 345.852 515.944 345.663 515.191 345.663C514.411 345.663 513.799 345.834 513.355 346.175C512.912 346.517 512.6 346.882 512.42 347.27L510.869 346.716C511.146 346.069 511.515 345.566 511.977 345.206C512.443 344.841 512.951 344.587 513.501 344.444C514.055 344.296 514.6 344.222 515.136 344.222C515.477 344.222 515.87 344.264 516.313 344.347C516.761 344.425 517.193 344.589 517.608 344.839C518.029 345.088 518.377 345.464 518.654 345.968C518.931 346.471 519.07 347.145 519.07 347.99V355H517.435V353.559H517.352C517.241 353.79 517.057 354.037 516.798 354.3C516.539 354.564 516.195 354.788 515.766 354.972C515.336 355.157 514.812 355.249 514.194 355.249ZM514.443 353.781C515.089 353.781 515.634 353.654 516.078 353.4C516.526 353.146 516.863 352.818 517.089 352.416C517.32 352.015 517.435 351.592 517.435 351.149V349.653C517.366 349.736 517.214 349.812 516.978 349.881C516.747 349.946 516.479 350.004 516.175 350.054C515.874 350.101 515.581 350.142 515.295 350.179C515.013 350.211 514.785 350.239 514.609 350.262C514.184 350.318 513.787 350.408 513.418 350.532C513.053 350.652 512.757 350.835 512.531 351.079C512.309 351.32 512.199 351.647 512.199 352.063C512.199 352.631 512.409 353.061 512.829 353.351C513.254 353.638 513.792 353.781 514.443 353.781ZM529.512 346.743L528.043 347.159C527.951 346.914 527.815 346.676 527.635 346.446C527.459 346.21 527.219 346.016 526.914 345.864C526.61 345.711 526.219 345.635 525.744 345.635C525.093 345.635 524.55 345.785 524.116 346.085C523.686 346.381 523.472 346.757 523.472 347.214C523.472 347.621 523.619 347.942 523.915 348.177C524.211 348.413 524.672 348.609 525.3 348.766L526.88 349.154C527.831 349.385 528.54 349.738 529.006 350.214C529.473 350.685 529.706 351.292 529.706 352.035C529.706 352.645 529.53 353.19 529.179 353.67C528.833 354.15 528.348 354.529 527.725 354.806C527.101 355.083 526.376 355.222 525.55 355.222C524.465 355.222 523.566 354.986 522.855 354.515C522.144 354.044 521.694 353.356 521.505 352.451L523.056 352.063C523.204 352.636 523.483 353.065 523.894 353.351C524.31 353.638 524.852 353.781 525.522 353.781C526.284 353.781 526.889 353.619 527.337 353.296C527.789 352.968 528.016 352.576 528.016 352.118C528.016 351.749 527.886 351.44 527.628 351.19C527.369 350.936 526.972 350.747 526.436 350.622L524.663 350.207C523.689 349.976 522.973 349.618 522.516 349.133C522.063 348.644 521.837 348.032 521.837 347.298C521.837 346.697 522.006 346.166 522.343 345.704C522.684 345.243 523.148 344.88 523.735 344.617C524.326 344.354 524.996 344.222 525.744 344.222C526.797 344.222 527.623 344.453 528.223 344.915C528.828 345.377 529.258 345.986 529.512 346.743ZM533.28 355.111C532.938 355.111 532.645 354.988 532.4 354.744C532.155 354.499 532.033 354.206 532.033 353.864C532.033 353.522 532.155 353.229 532.4 352.984C532.645 352.74 532.938 352.617 533.28 352.617C533.622 352.617 533.915 352.74 534.159 352.984C534.404 353.229 534.527 353.522 534.527 353.864C534.527 354.09 534.469 354.298 534.353 354.487C534.243 354.677 534.093 354.829 533.903 354.945C533.718 355.055 533.511 355.111 533.28 355.111ZM541.704 355.222C540.707 355.222 539.848 354.986 539.128 354.515C538.407 354.044 537.853 353.395 537.465 352.569C537.077 351.742 536.883 350.798 536.883 349.736C536.883 348.655 537.082 347.702 537.479 346.875C537.881 346.044 538.44 345.395 539.155 344.929C539.876 344.458 540.716 344.222 541.677 344.222C542.425 344.222 543.099 344.361 543.699 344.638C544.299 344.915 544.791 345.303 545.175 345.801C545.558 346.3 545.796 346.882 545.888 347.547H544.253C544.129 347.062 543.852 346.633 543.422 346.259C542.997 345.88 542.425 345.691 541.704 345.691C541.067 345.691 540.508 345.857 540.028 346.189C539.552 346.517 539.181 346.981 538.913 347.582C538.65 348.177 538.518 348.877 538.518 349.68C538.518 350.502 538.647 351.218 538.906 351.828C539.169 352.437 539.539 352.91 540.014 353.248C540.494 353.585 541.058 353.753 541.704 353.753C542.129 353.753 542.515 353.679 542.861 353.532C543.207 353.384 543.501 353.171 543.741 352.894C543.981 352.617 544.152 352.285 544.253 351.897H545.888C545.796 352.525 545.567 353.091 545.202 353.594C544.842 354.093 544.364 354.49 543.768 354.785C543.177 355.076 542.489 355.222 541.704 355.222ZM552.522 355.222C551.561 355.222 550.719 354.993 549.994 354.536C549.273 354.079 548.71 353.439 548.304 352.617C547.902 351.795 547.701 350.835 547.701 349.736C547.701 348.627 547.902 347.66 548.304 346.833C548.71 346.007 549.273 345.365 549.994 344.908C550.719 344.451 551.561 344.222 552.522 344.222C553.482 344.222 554.323 344.451 555.043 344.908C555.768 345.365 556.332 346.007 556.733 346.833C557.14 347.66 557.343 348.627 557.343 349.736C557.343 350.835 557.14 351.795 556.733 352.617C556.332 353.439 555.768 354.079 555.043 354.536C554.323 354.993 553.482 355.222 552.522 355.222ZM552.522 353.753C553.252 353.753 553.852 353.566 554.323 353.192C554.794 352.818 555.143 352.326 555.369 351.717C555.595 351.107 555.708 350.447 555.708 349.736C555.708 349.025 555.595 348.362 555.369 347.748C555.143 347.134 554.794 346.637 554.323 346.259C553.852 345.88 553.252 345.691 552.522 345.691C551.792 345.691 551.192 345.88 550.721 346.259C550.25 346.637 549.901 347.134 549.675 347.748C549.449 348.362 549.336 349.025 549.336 349.736C549.336 350.447 549.449 351.107 549.675 351.717C549.901 352.326 550.25 352.818 550.721 353.192C551.192 353.566 551.792 353.753 552.522 353.753Z" fill="#9B9B9B"/>
</g>
<rect width="1831" height="2051.44" transform="translate(44 389.858)" fill="#FAFAFA"/>
</g>
</g>
<path d="M574.957 684V615.636H585.272V675.121H616.249V684H574.957ZM626.275 684V632.727H636.255V684H626.275ZM631.315 624.816C629.579 624.816 628.088 624.237 626.842 623.08C625.618 621.901 625.006 620.499 625.006 618.874C625.006 617.228 625.618 615.826 626.842 614.668C628.088 613.489 629.579 612.899 631.315 612.899C633.051 612.899 634.531 613.489 635.755 614.668C637.001 615.826 637.624 617.228 637.624 618.874C637.624 620.499 637.001 621.901 635.755 623.08C634.531 624.237 633.051 624.816 631.315 624.816ZM670.24 704.295C666.167 704.295 662.663 703.761 659.725 702.693C656.81 701.625 654.429 700.212 652.582 698.454C650.734 696.696 649.355 694.771 648.442 692.679L657.021 689.141C657.622 690.12 658.423 691.155 659.425 692.245C660.448 693.358 661.828 694.304 663.564 695.082C665.322 695.861 667.581 696.251 670.34 696.251C674.123 696.251 677.25 695.327 679.72 693.48C682.19 691.655 683.425 688.74 683.425 684.734V674.653H682.791C682.19 675.744 681.322 676.957 680.187 678.292C679.075 679.627 677.539 680.784 675.581 681.763C673.623 682.743 671.074 683.232 667.937 683.232C663.886 683.232 660.237 682.286 656.988 680.395C653.761 678.481 651.202 675.666 649.31 671.95C647.441 668.211 646.506 663.616 646.506 658.163C646.506 652.711 647.43 648.038 649.277 644.143C651.146 640.249 653.705 637.267 656.954 635.197C660.203 633.106 663.886 632.06 668.003 632.06C671.186 632.06 673.756 632.594 675.714 633.662C677.673 634.708 679.197 635.932 680.288 637.334C681.4 638.736 682.257 639.971 682.858 641.039H683.592V632.727H693.373V685.135C693.373 689.541 692.349 693.157 690.302 695.984C688.254 698.81 685.484 700.902 681.99 702.259C678.518 703.617 674.602 704.295 670.24 704.295ZM670.14 674.954C673.011 674.954 675.436 674.286 677.417 672.951C679.42 671.594 680.933 669.657 681.957 667.143C683.002 664.606 683.525 661.568 683.525 658.03C683.525 654.58 683.014 651.543 681.99 648.917C680.966 646.291 679.464 644.244 677.484 642.775C675.503 641.284 673.055 640.538 670.14 640.538C667.136 640.538 664.632 641.317 662.629 642.875C660.626 644.411 659.113 646.502 658.089 649.151C657.088 651.799 656.587 654.759 656.587 658.03C656.587 661.39 657.099 664.339 658.123 666.876C659.146 669.413 660.66 671.393 662.663 672.817C664.688 674.242 667.18 674.954 670.14 674.954ZM715.799 653.557V684H705.818V615.636H715.666V641.072H716.3C717.502 638.313 719.338 636.121 721.808 634.496C724.278 632.872 727.505 632.06 731.488 632.06C735.004 632.06 738.075 632.783 740.701 634.229C743.349 635.676 745.397 637.835 746.843 640.705C748.312 643.554 749.046 647.114 749.046 651.387V684H739.066V652.589C739.066 648.828 738.098 645.913 736.161 643.843C734.225 641.751 731.533 640.705 728.083 640.705C725.724 640.705 723.61 641.206 721.741 642.207C719.894 643.209 718.436 644.678 717.368 646.614C716.322 648.527 715.799 650.842 715.799 653.557ZM785.359 632.727V640.739H757.353V632.727H785.359ZM764.863 620.443H774.844V668.945C774.844 670.881 775.134 672.339 775.712 673.318C776.291 674.275 777.036 674.932 777.949 675.288C778.883 675.621 779.896 675.788 780.986 675.788C781.787 675.788 782.488 675.733 783.089 675.621C783.69 675.51 784.158 675.421 784.491 675.354L786.294 683.599C785.715 683.822 784.892 684.045 783.824 684.267C782.756 684.512 781.42 684.645 779.818 684.668C777.192 684.712 774.744 684.245 772.474 683.266C770.204 682.286 768.368 680.773 766.966 678.726C765.564 676.679 764.863 674.108 764.863 671.015V620.443ZM806.576 684L791.488 632.727H801.802L811.85 670.381H812.351L822.431 632.727H832.746L842.76 670.214H843.261L853.242 632.727H863.556L848.502 684H838.321L827.906 646.981H827.138L816.723 684H806.576ZM892.626 685.035C887.574 685.035 883.223 683.955 879.574 681.797C875.946 679.616 873.143 676.556 871.162 672.617C869.204 668.656 868.224 664.016 868.224 658.697C868.224 653.446 869.204 648.817 871.162 644.811C873.143 640.805 875.902 637.679 879.44 635.431C883.001 633.183 887.162 632.06 891.925 632.06C894.818 632.06 897.622 632.538 900.337 633.495C903.052 634.452 905.488 635.954 907.647 638.001C909.806 640.049 911.508 642.708 912.754 645.979C914 649.228 914.624 653.179 914.624 657.83V661.368H873.866V653.891H904.843C904.843 651.265 904.309 648.939 903.241 646.914C902.173 644.867 900.67 643.253 898.734 642.074C896.821 640.894 894.573 640.305 891.991 640.305C889.187 640.305 886.74 640.995 884.648 642.374C882.578 643.732 880.976 645.512 879.841 647.715C878.728 649.896 878.172 652.266 878.172 654.825V660.667C878.172 664.094 878.773 667.009 879.974 669.413C881.198 671.816 882.901 673.652 885.082 674.92C887.263 676.167 889.811 676.79 892.726 676.79C894.617 676.79 896.342 676.523 897.9 675.989C899.458 675.432 900.804 674.609 901.939 673.518C903.074 672.428 903.942 671.082 904.543 669.479L913.989 671.182C913.233 673.964 911.875 676.4 909.917 678.492C907.981 680.562 905.544 682.175 902.607 683.332C899.691 684.467 896.364 685.035 892.626 685.035ZM924.758 684V632.727H934.738V684H924.758ZM929.798 624.816C928.062 624.816 926.571 624.237 925.325 623.08C924.101 621.901 923.489 620.499 923.489 618.874C923.489 617.228 924.101 615.826 925.325 614.668C926.571 613.489 928.062 612.899 929.798 612.899C931.534 612.899 933.014 613.489 934.238 614.668C935.484 615.826 936.107 617.228 936.107 618.874C936.107 620.499 935.484 621.901 934.238 623.08C933.014 624.237 931.534 624.816 929.798 624.816ZM968.723 704.295C964.651 704.295 961.146 703.761 958.208 702.693C955.293 701.625 952.912 700.212 951.065 698.454C949.218 696.696 947.838 694.771 946.925 692.679L955.504 689.141C956.105 690.12 956.906 691.155 957.908 692.245C958.931 693.358 960.311 694.304 962.047 695.082C963.805 695.861 966.064 696.251 968.823 696.251C972.606 696.251 975.733 695.327 978.203 693.48C980.673 691.655 981.908 688.74 981.908 684.734V674.653H981.274C980.673 675.744 979.805 676.957 978.67 678.292C977.558 679.627 976.022 680.784 974.064 681.763C972.106 682.743 969.558 683.232 966.42 683.232C962.37 683.232 958.72 682.286 955.471 680.395C952.244 678.481 949.685 675.666 947.793 671.95C945.924 668.211 944.989 663.616 944.989 658.163C944.989 652.711 945.913 648.038 947.76 644.143C949.629 640.249 952.188 637.267 955.437 635.197C958.687 633.106 962.37 632.06 966.486 632.06C969.669 632.06 972.239 632.594 974.197 633.662C976.156 634.708 977.68 635.932 978.771 637.334C979.883 638.736 980.74 639.971 981.341 641.039H982.075V632.727H991.856V685.135C991.856 689.541 990.832 693.157 988.785 695.984C986.737 698.81 983.967 700.902 980.473 702.259C977.001 703.617 973.085 704.295 968.723 704.295ZM968.623 674.954C971.494 674.954 973.919 674.286 975.9 672.951C977.903 671.594 979.416 669.657 980.44 667.143C981.486 664.606 982.009 661.568 982.009 658.03C982.009 654.58 981.497 651.543 980.473 648.917C979.449 646.291 977.947 644.244 975.967 642.775C973.986 641.284 971.538 640.538 968.623 640.538C965.619 640.538 963.115 641.317 961.112 642.875C959.109 644.411 957.596 646.502 956.572 649.151C955.571 651.799 955.07 654.759 955.07 658.03C955.07 661.39 955.582 664.339 956.606 666.876C957.629 669.413 959.143 671.393 961.146 672.817C963.171 674.242 965.663 674.954 968.623 674.954ZM1014.28 653.557V684H1004.3V615.636H1014.15V641.072H1014.78C1015.98 638.313 1017.82 636.121 1020.29 634.496C1022.76 632.872 1025.99 632.06 1029.97 632.06C1033.49 632.06 1036.56 632.783 1039.18 634.229C1041.83 635.676 1043.88 637.835 1045.33 640.705C1046.8 643.554 1047.53 647.114 1047.53 651.387V684H1037.55V652.589C1037.55 648.828 1036.58 645.913 1034.64 643.843C1032.71 641.751 1030.02 640.705 1026.57 640.705C1024.21 640.705 1022.09 641.206 1020.22 642.207C1018.38 643.209 1016.92 644.678 1015.85 646.614C1014.81 648.527 1014.28 650.842 1014.28 653.557ZM1083.84 632.727V640.739H1055.84V632.727H1083.84ZM1063.35 620.443H1073.33V668.945C1073.33 670.881 1073.62 672.339 1074.2 673.318C1074.77 674.275 1075.52 674.932 1076.43 675.288C1077.37 675.621 1078.38 675.788 1079.47 675.788C1080.27 675.788 1080.97 675.733 1081.57 675.621C1082.17 675.51 1082.64 675.421 1082.97 675.354L1084.78 683.599C1084.2 683.822 1083.37 684.045 1082.31 684.267C1081.24 684.512 1079.9 684.645 1078.3 684.668C1075.68 684.712 1073.23 684.245 1070.96 683.266C1068.69 682.286 1066.85 680.773 1065.45 678.726C1064.05 676.679 1063.35 674.108 1063.35 671.015V620.443ZM1140.81 684H1118.68V615.636H1141.51C1148.21 615.636 1153.96 617.005 1158.77 619.742C1163.58 622.457 1167.26 626.363 1169.82 631.459C1172.4 636.533 1173.69 642.619 1173.69 649.718C1173.69 656.839 1172.39 662.959 1169.79 668.077C1167.21 673.196 1163.47 677.135 1158.57 679.894C1153.68 682.631 1147.76 684 1140.81 684ZM1129 674.987H1140.24C1145.45 674.987 1149.78 674.008 1153.23 672.05C1156.68 670.069 1159.26 667.21 1160.97 663.471C1162.69 659.71 1163.54 655.126 1163.54 649.718C1163.54 644.355 1162.69 639.804 1160.97 636.065C1159.28 632.327 1156.76 629.489 1153.4 627.553C1150.04 625.617 1145.86 624.649 1140.88 624.649H1129V674.987ZM1187.96 684H1177.01L1201.61 615.636H1213.53L1238.13 684H1227.18L1207.85 628.054H1207.32L1187.96 684ZM1189.79 657.229H1225.31V665.908H1189.79V657.229ZM1283.8 633.595C1283.44 630.435 1281.97 627.987 1279.39 626.251C1276.81 624.493 1273.56 623.614 1269.64 623.614C1266.84 623.614 1264.41 624.059 1262.37 624.95C1260.32 625.817 1258.73 627.019 1257.59 628.555C1256.48 630.068 1255.92 631.793 1255.92 633.729C1255.92 635.353 1256.3 636.755 1257.06 637.935C1257.84 639.114 1258.85 640.104 1260.1 640.906C1261.36 641.684 1262.72 642.341 1264.17 642.875C1265.61 643.387 1267.01 643.81 1268.34 644.143L1275.02 645.879C1277.2 646.413 1279.43 647.137 1281.73 648.049C1284.02 648.961 1286.14 650.163 1288.1 651.654C1290.06 653.145 1291.64 654.992 1292.84 657.195C1294.07 659.398 1294.68 662.036 1294.68 665.107C1294.68 668.979 1293.68 672.417 1291.67 675.421C1289.69 678.425 1286.81 680.795 1283.03 682.531C1279.27 684.267 1274.72 685.135 1269.38 685.135C1264.26 685.135 1259.83 684.323 1256.09 682.698C1252.35 681.074 1249.43 678.77 1247.31 675.788C1245.2 672.784 1244.03 669.223 1243.81 665.107H1254.15C1254.35 667.577 1255.16 669.635 1256.56 671.282C1257.98 672.906 1259.8 674.119 1262 674.92C1264.22 675.699 1266.66 676.089 1269.31 676.089C1272.22 676.089 1274.82 675.633 1277.09 674.72C1279.38 673.786 1281.18 672.495 1282.49 670.848C1283.81 669.179 1284.46 667.232 1284.46 665.006C1284.46 662.981 1283.89 661.323 1282.73 660.033C1281.59 658.742 1280.05 657.674 1278.09 656.828C1276.15 655.982 1273.96 655.237 1271.51 654.592L1263.43 652.388C1257.96 650.897 1253.62 648.705 1250.42 645.812C1247.23 642.92 1245.64 639.092 1245.64 634.33C1245.64 630.391 1246.71 626.952 1248.85 624.015C1250.98 621.077 1253.88 618.796 1257.53 617.172C1261.18 615.525 1265.29 614.702 1269.88 614.702C1274.51 614.702 1278.59 615.514 1282.13 617.138C1285.69 618.763 1288.49 621 1290.54 623.848C1292.59 626.674 1293.65 629.923 1293.74 633.595H1283.8ZM741.327 746.727V754.739H712.353V746.727H741.327ZM720.297 798V740.786C720.297 737.581 720.998 734.922 722.4 732.808C723.802 730.671 725.66 729.08 727.975 728.034C730.289 726.966 732.804 726.432 735.519 726.432C737.522 726.432 739.235 726.599 740.66 726.933C742.084 727.244 743.141 727.533 743.831 727.8L741.494 735.879C741.027 735.745 740.426 735.589 739.691 735.411C738.957 735.211 738.067 735.111 737.021 735.111C734.595 735.111 732.86 735.712 731.814 736.913C730.79 738.115 730.278 739.851 730.278 742.121V798H720.297ZM770.263 799.035C765.456 799.035 761.261 797.933 757.678 795.73C754.095 793.527 751.314 790.445 749.333 786.484C747.353 782.522 746.362 777.894 746.362 772.597C746.362 767.279 747.353 762.628 749.333 758.644C751.314 754.661 754.095 751.567 757.678 749.364C761.261 747.161 765.456 746.06 770.263 746.06C775.07 746.06 779.264 747.161 782.847 749.364C786.43 751.567 789.212 754.661 791.193 758.644C793.173 762.628 794.163 767.279 794.163 772.597C794.163 777.894 793.173 782.522 791.193 786.484C789.212 790.445 786.43 793.527 782.847 795.73C779.264 797.933 775.07 799.035 770.263 799.035ZM770.296 790.656C773.412 790.656 775.993 789.833 778.041 788.186C780.088 786.539 781.601 784.347 782.58 781.61C783.582 778.873 784.082 775.857 784.082 772.564C784.082 769.293 783.582 766.288 782.58 763.551C781.601 760.792 780.088 758.577 778.041 756.908C775.993 755.239 773.412 754.405 770.296 754.405C767.158 754.405 764.555 755.239 762.485 756.908C760.438 758.577 758.913 760.792 757.912 763.551C756.933 766.288 756.443 769.293 756.443 772.564C756.443 775.857 756.933 778.873 757.912 781.61C758.913 784.347 760.438 786.539 762.485 788.186C764.555 789.833 767.158 790.656 770.296 790.656ZM804.364 798V746.727H814.011V754.872H814.545C815.48 752.113 817.127 749.943 819.486 748.363C821.867 746.761 824.56 745.96 827.564 745.96C828.187 745.96 828.921 745.982 829.767 746.026C830.635 746.071 831.314 746.126 831.803 746.193V755.74C831.403 755.629 830.69 755.506 829.667 755.373C828.643 755.217 827.619 755.139 826.596 755.139C824.237 755.139 822.134 755.64 820.287 756.641C818.462 757.621 817.015 758.989 815.947 760.747C814.879 762.483 814.345 764.464 814.345 766.689V798H804.364ZM901.525 747.595C901.169 744.435 899.7 741.987 897.118 740.251C894.537 738.493 891.288 737.614 887.371 737.614C884.567 737.614 882.142 738.059 880.094 738.95C878.047 739.817 876.456 741.019 875.321 742.555C874.208 744.068 873.652 745.793 873.652 747.729C873.652 749.353 874.03 750.755 874.787 751.935C875.566 753.114 876.578 754.104 877.824 754.906C879.093 755.684 880.45 756.341 881.897 756.875C883.343 757.387 884.734 757.81 886.069 758.143L892.746 759.879C894.926 760.413 897.163 761.137 899.455 762.049C901.747 762.961 903.872 764.163 905.831 765.654C907.789 767.145 909.369 768.992 910.571 771.195C911.795 773.398 912.407 776.036 912.407 779.107C912.407 782.979 911.405 786.417 909.403 789.421C907.422 792.425 904.54 794.795 900.757 796.531C896.996 798.267 892.445 799.135 887.104 799.135C881.986 799.135 877.557 798.323 873.819 796.698C870.08 795.074 867.154 792.77 865.04 789.788C862.925 786.784 861.757 783.223 861.535 779.107H871.883C872.083 781.577 872.884 783.635 874.286 785.282C875.71 786.906 877.524 788.119 879.727 788.92C881.952 789.699 884.389 790.089 887.037 790.089C889.953 790.089 892.545 789.633 894.815 788.72C897.107 787.786 898.91 786.495 900.223 784.848C901.536 783.179 902.192 781.232 902.192 779.006C902.192 776.981 901.614 775.323 900.457 774.033C899.322 772.742 897.775 771.674 895.817 770.828C893.881 769.982 891.689 769.237 889.241 768.592L881.162 766.388C875.688 764.897 871.349 762.705 868.144 759.812C864.962 756.92 863.371 753.092 863.371 748.33C863.371 744.391 864.439 740.952 866.575 738.015C868.711 735.077 871.604 732.796 875.254 731.172C878.904 729.525 883.021 728.702 887.605 728.702C892.234 728.702 896.317 729.514 899.856 731.138C903.416 732.763 906.22 735 908.268 737.848C910.315 740.674 911.383 743.923 911.472 747.595H901.525ZM944.589 799.035C939.782 799.035 935.587 797.933 932.004 795.73C928.421 793.527 925.64 790.445 923.659 786.484C921.678 782.522 920.688 777.894 920.688 772.597C920.688 767.279 921.678 762.628 923.659 758.644C925.64 754.661 928.421 751.567 932.004 749.364C935.587 747.161 939.782 746.06 944.589 746.06C949.396 746.06 953.59 747.161 957.173 749.364C960.756 751.567 963.538 754.661 965.518 758.644C967.499 762.628 968.489 767.279 968.489 772.597C968.489 777.894 967.499 782.522 965.518 786.484C963.538 790.445 960.756 793.527 957.173 795.73C953.59 797.933 949.396 799.035 944.589 799.035ZM944.622 790.656C947.738 790.656 950.319 789.833 952.366 788.186C954.414 786.539 955.927 784.347 956.906 781.61C957.908 778.873 958.408 775.857 958.408 772.564C958.408 769.293 957.908 766.288 956.906 763.551C955.927 760.792 954.414 758.577 952.366 756.908C950.319 755.239 947.738 754.405 944.622 754.405C941.484 754.405 938.881 755.239 936.811 756.908C934.764 758.577 933.239 760.792 932.238 763.551C931.259 766.288 930.769 769.293 930.769 772.564C930.769 775.857 931.259 778.873 932.238 781.61C933.239 784.347 934.764 786.539 936.811 788.186C938.881 789.833 941.484 790.656 944.622 790.656ZM988.671 729.636V798H978.69V729.636H988.671ZM1016.08 799.135C1012.83 799.135 1009.89 798.534 1007.27 797.332C1004.64 796.108 1002.56 794.339 1001.02 792.025C999.512 789.71 998.755 786.873 998.755 783.513C998.755 780.62 999.311 778.239 1000.42 776.369C1001.54 774.5 1003.04 773.02 1004.93 771.93C1006.82 770.839 1008.94 770.016 1011.27 769.46C1013.61 768.903 1015.99 768.48 1018.42 768.191C1021.49 767.835 1023.98 767.546 1025.89 767.323C1027.81 767.078 1029.2 766.689 1030.07 766.155C1030.93 765.621 1031.37 764.753 1031.37 763.551V763.317C1031.37 760.402 1030.54 758.143 1028.9 756.541C1027.27 754.939 1024.85 754.138 1021.62 754.138C1018.26 754.138 1015.61 754.883 1013.68 756.374C1011.76 757.843 1010.44 759.479 1009.7 761.281L1000.32 759.145C1001.44 756.029 1003.06 753.515 1005.2 751.601C1007.36 749.665 1009.84 748.263 1012.64 747.395C1015.45 746.505 1018.39 746.06 1021.49 746.06C1023.53 746.06 1025.7 746.304 1028 746.794C1030.31 747.261 1032.47 748.129 1034.47 749.398C1036.5 750.666 1038.16 752.48 1039.45 754.839C1040.74 757.175 1041.38 760.213 1041.38 763.952V798H1031.63V790.99H1031.23C1030.59 792.281 1029.62 793.549 1028.33 794.795C1027.04 796.042 1025.38 797.076 1023.36 797.9C1021.33 798.723 1018.91 799.135 1016.08 799.135ZM1018.25 791.124C1021.01 791.124 1023.37 790.578 1025.33 789.488C1027.31 788.397 1028.81 786.973 1029.83 785.215C1030.88 783.435 1031.4 781.532 1031.4 779.507V772.898C1031.05 773.254 1030.36 773.588 1029.33 773.899C1028.33 774.188 1027.18 774.444 1025.89 774.667C1024.6 774.867 1023.35 775.056 1022.12 775.234C1020.9 775.39 1019.87 775.524 1019.05 775.635C1017.11 775.88 1015.35 776.291 1013.74 776.87C1012.16 777.449 1010.89 778.283 1009.94 779.374C1009 780.442 1008.54 781.866 1008.54 783.646C1008.54 786.116 1009.45 787.986 1011.27 789.254C1013.1 790.5 1015.42 791.124 1018.25 791.124ZM1063.72 767.557V798H1053.74V746.727H1063.32V755.072H1063.95C1065.13 752.357 1066.98 750.177 1069.49 748.53C1072.03 746.883 1075.22 746.06 1079.07 746.06C1082.57 746.06 1085.63 746.794 1088.25 748.263C1090.88 749.709 1092.91 751.868 1094.36 754.739C1095.81 757.609 1096.53 761.159 1096.53 765.387V798H1086.55V766.589C1086.55 762.872 1085.58 759.968 1083.65 757.876C1081.71 755.762 1079.05 754.705 1075.67 754.705C1073.35 754.705 1071.29 755.206 1069.49 756.207C1067.71 757.209 1066.3 758.678 1065.25 760.614C1064.23 762.527 1063.72 764.842 1063.72 767.557ZM1123.9 799.135C1120.65 799.135 1117.71 798.534 1115.08 797.332C1112.46 796.108 1110.38 794.339 1108.84 792.025C1107.33 789.71 1106.57 786.873 1106.57 783.513C1106.57 780.62 1107.13 778.239 1108.24 776.369C1109.35 774.5 1110.86 773.02 1112.75 771.93C1114.64 770.839 1116.75 770.016 1119.09 769.46C1121.43 768.903 1123.81 768.48 1126.23 768.191C1129.3 767.835 1131.8 767.546 1133.71 767.323C1135.62 767.078 1137.02 766.689 1137.88 766.155C1138.75 765.621 1139.19 764.753 1139.19 763.551V763.317C1139.19 760.402 1138.36 758.143 1136.71 756.541C1135.09 754.939 1132.66 754.138 1129.44 754.138C1126.08 754.138 1123.43 754.883 1121.49 756.374C1119.58 757.843 1118.26 759.479 1117.52 761.281L1108.14 759.145C1109.25 756.029 1110.88 753.515 1113.01 751.601C1115.17 749.665 1117.65 748.263 1120.46 747.395C1123.26 746.505 1126.21 746.06 1129.3 746.06C1131.35 746.06 1133.52 746.304 1135.81 746.794C1138.13 747.261 1140.29 748.129 1142.29 749.398C1144.31 750.666 1145.97 752.48 1147.26 754.839C1148.55 757.175 1149.2 760.213 1149.2 763.952V798H1139.45V790.99H1139.05C1138.41 792.281 1137.44 793.549 1136.15 794.795C1134.86 796.042 1133.2 797.076 1131.17 797.9C1129.15 798.723 1126.72 799.135 1123.9 799.135ZM1126.07 791.124C1128.83 791.124 1131.18 790.578 1133.14 789.488C1135.12 788.397 1136.63 786.973 1137.65 785.215C1138.7 783.435 1139.22 781.532 1139.22 779.507V772.898C1138.86 773.254 1138.17 773.588 1137.15 773.899C1136.15 774.188 1135 774.444 1133.71 774.667C1132.42 774.867 1131.16 775.056 1129.94 775.234C1128.71 775.39 1127.69 775.524 1126.87 775.635C1124.93 775.88 1123.16 776.291 1121.56 776.87C1119.98 777.449 1118.71 778.283 1117.75 779.374C1116.82 780.442 1116.35 781.866 1116.35 783.646C1116.35 786.116 1117.27 787.986 1119.09 789.254C1120.91 790.5 1123.24 791.124 1126.07 791.124Z" fill="#FF7B15"/>
</g>
<defs>
<filter id="filter0_d_1_216" x="-56.5286" y="292.496" width="2032.06" height="1748.78" filterUnits="userSpaceOnUse" color-interpolation-filters="sRGB">
<feFlood flood-opacity="0" result="BackgroundImageFix"/>
<feColorMatrix in="SourceAlpha" type="matrix" values="0 0 0 0 0 0 0 0 0 0 0 0 0 0 0 0 0 0 127 0" result="hardAlpha"/>
<feOffset dy="87.0247"/>
<feGaussianBlur stdDeviation="50.2643"/>
<feColorMatrix type="matrix" values="0 0 0 0 0 0 0 0 0 0 0 0 0 0 0 0 0 0 0.09 0"/>
<feBlend mode="normal" in2="BackgroundImageFix" result="effect1_dropShadow_1_216"/>
<feBlend mode="normal" in="SourceGraphic" in2="effect1_dropShadow_1_216" result="shape"/>
</filter>
<filter id="filter1_b_1_216" x="-16.0171" y="245.983" width="1951.03" height="204.278" filterUnits="userSpaceOnUse" color-interpolation-filters="sRGB">
<feFlood flood-opacity="0" result="BackgroundImageFix"/>
<feGaussianBlur in="BackgroundImageFix" stdDeviation="30.0085"/>
<feComposite in2="SourceAlpha" operator="in" result="effect1_backgroundBlur_1_216"/>
<feBlend mode="normal" in="SourceGraphic" in2="effect1_backgroundBlur_1_216" result="shape"/>
</filter>
<filter id="filter2_i_1_216" x="79.1608" y="338.737" width="23.0369" height="23.0369" filterUnits="userSpaceOnUse" color-interpolation-filters="sRGB">
<feFlood flood-opacity="0" result="BackgroundImageFix"/>
<feBlend mode="normal" in="SourceGraphic" in2="BackgroundImageFix" result="shape"/>
<feColorMatrix in="SourceAlpha" type="matrix" values="0 0 0 0 0 0 0 0 0 0 0 0 0 0 0 0 0 0 127 0" result="hardAlpha"/>
<feOffset/>
<feGaussianBlur stdDeviation="4.50128"/>
<feComposite in2="hardAlpha" operator="arithmetic" k2="-1" k3="1"/>
<feColorMatrix type="matrix" values="0 0 0 0 0.92549 0 0 0 0 0.427451 0 0 0 0 0.384314 0 0 0 1 0"/>
<feBlend mode="normal" in2="shape" result="effect1_innerShadow_1_216"/>
</filter>
<filter id="filter3_i_1_216" x="121.597" y="338.737" width="23.0369" height="23.0369" filterUnits="userSpaceOnUse" color-interpolation-filters="sRGB">
<feFlood flood-opacity="0" result="BackgroundImageFix"/>
<feBlend mode="normal" in="SourceGraphic" in2="BackgroundImageFix" result="shape"/>
<feColorMatrix in="SourceAlpha" type="matrix" values="0 0 0 0 0 0 0 0 0 0 0 0 0 0 0 0 0 0 127 0" result="hardAlpha"/>
<feOffset/>
<feGaussianBlur stdDeviation="4.50128"/>
<feComposite in2="hardAlpha" operator="arithmetic" k2="-1" k3="1"/>
<feColorMatrix type="matrix" values="0 0 0 0 0.960784 0 0 0 0 0.768627 0 0 0 0 0.317647 0 0 0 1 0"/>
<feBlend mode="normal" in2="shape" result="effect1_innerShadow_1_216"/>
</filter>
<filter id="filter4_i_1_216" x="164.033" y="338.737" width="23.0369" height="23.0369" filterUnits="userSpaceOnUse" color-interpolation-filters="sRGB">
<feFlood flood-opacity="0" result="BackgroundImageFix"/>
<feBlend mode="normal" in="SourceGraphic" in2="BackgroundImageFix" result="shape"/>
<feColorMatrix in="SourceAlpha" type="matrix" values="0 0 0 0 0 0 0 0 0 0 0 0 0 0 0 0 0 0 127 0" result="hardAlpha"/>
<feOffset/>
<feGaussianBlur stdDeviation="4.50128"/>
<feComposite in2="hardAlpha" operator="arithmetic" k2="-1" k3="1"/>
<feColorMatrix type="matrix" values="0 0 0 0 0.407843 0 0 0 0 0.8 0 0 0 0 0.345098 0 0 0 1 0"/>
<feBlend mode="normal" in2="shape" result="effect1_innerShadow_1_216"/>
</filter>
<linearGradient id="paint0_linear_1_216" x1="721.957" y1="116" x2="721.957" y2="189.55" gradientUnits="userSpaceOnUse">
<stop offset="0.102191" stop-color="white" stop-opacity="0.14"/>
<stop offset="0.86224" stop-color="white"/>
</linearGradient>
<clipPath id="clip0_1_216">
<rect width="1920" height="1080" fill="white"/>
</clipPath>
<clipPath id="clip1_1_216">
<rect x="44" y="306" width="1831" height="1547.72" rx="29.5736" fill="white"/>
</clipPath>
<clipPath id="clip2_1_216">
<rect width="111.032" height="42.012" fill="white" transform="translate(1746.66 329.035)"/>
</clipPath>
<clipPath id="clip3_1_216">
<rect width="99.0282" height="42.012" fill="white" transform="translate(224.657 329.035)"/>
</clipPath>
</defs>
</svg>
