<svg width="2185" height="1749" viewBox="0 0 2185 1749" fill="none" xmlns="http://www.w3.org/2000/svg">
<g filter="url(#filter0_d_2002_522)">
<g clip-path="url(#clip0_2002_522)">
<g filter="url(#filter1_b_2002_522)">
<path d="M101 29.0043C101 20.7176 107.718 14 116.004 14H2069C2077.28 14 2084 20.7176 2084 29.0043V98.205H101V29.0043Z" fill="#272727"/>
<g clip-path="url(#clip1_2002_522)">
<path d="M1980.41 61.4391C1980.95 61.4391 1981.4 60.9907 1981.4 60.4676V47.6766L1981.32 45.8084L1982.17 46.6927L1984.05 48.7103C1984.23 48.9096 1984.49 49.0093 1984.72 49.0093C1985.25 49.0093 1985.63 48.6356 1985.63 48.125C1985.63 47.8634 1985.53 47.6641 1985.35 47.4773L1981.14 43.4171C1980.89 43.168 1980.66 43.0808 1980.41 43.0808C1980.17 43.0808 1979.94 43.168 1979.69 43.4171L1975.48 47.4773C1975.3 47.6641 1975.18 47.8634 1975.18 48.125C1975.18 48.6356 1975.57 49.0093 1976.08 49.0093C1976.33 49.0093 1976.59 48.9096 1976.77 48.7103L1978.66 46.6927L1979.51 45.8084L1979.42 47.6766V60.4676C1979.42 60.9907 1979.88 61.4391 1980.41 61.4391ZM1973.27 71.1911H1987.55C1990.15 71.1911 1991.46 69.8958 1991.46 67.3301V54.9003C1991.46 52.3347 1990.15 51.0394 1987.55 51.0394H1984.08V53.0446H1987.51C1988.75 53.0446 1989.46 53.7171 1989.46 55.0124V67.2181C1989.46 68.5133 1988.75 69.1859 1987.51 69.1859H1973.29C1972.04 69.1859 1971.36 68.5133 1971.36 67.2181V55.0124C1971.36 53.7171 1972.04 53.0446 1973.29 53.0446H1976.74V51.0394H1973.27C1970.66 51.0394 1969.35 52.3347 1969.35 54.9003V67.3301C1969.35 69.8958 1970.66 71.1911 1973.27 71.1911Z" fill="white"/>
<path d="M2032.66 65.3487H2034.79V67.2542C2034.79 69.8199 2036.09 71.1152 2038.7 71.1152H2051.21C2053.8 71.1152 2055.1 69.8199 2055.1 67.2542V54.6501C2055.1 52.0844 2053.8 50.7891 2051.21 50.7891H2049.06V48.8835C2049.06 46.3179 2047.76 45.0226 2045.17 45.0226H2032.66C2030.05 45.0226 2028.75 46.3179 2028.75 48.8835V61.4877C2028.75 64.0534 2030.05 65.3487 2032.66 65.3487ZM2032.69 63.3435C2031.44 63.3435 2030.76 62.6709 2030.76 61.3756V48.9956C2030.76 47.7003 2031.44 47.0278 2032.69 47.0278H2045.13C2046.36 47.0278 2047.06 47.7003 2047.06 48.9956V50.7891H2038.7C2036.09 50.7891 2034.79 52.072 2034.79 54.6501V63.3435H2032.69ZM2038.73 69.11C2037.49 69.11 2036.8 68.4374 2036.8 67.1422V54.7622C2036.8 53.4669 2037.49 52.7943 2038.73 52.7943H2051.17C2052.4 52.7943 2053.1 53.4669 2053.1 54.7622V67.1422C2053.1 68.4374 2052.4 69.11 2051.17 69.11H2038.73Z" fill="white"/>
</g>
<g clip-path="url(#clip2_2002_522)">
<path d="M310.56 68.5261L300.683 58.8861C300.447 58.6495 300.322 58.363 300.322 58.0517C300.322 57.7278 300.459 57.4165 300.696 57.2172L310.56 47.5648C310.772 47.3531 311.046 47.2285 311.37 47.2285C312.017 47.2285 312.503 47.7267 312.503 48.3743C312.503 48.6733 312.378 48.9722 312.179 49.1839L303.112 58.0517L312.179 66.9194C312.378 67.1312 312.503 67.4176 312.503 67.729C312.503 68.3766 312.017 68.8624 311.37 68.8624C311.046 68.8624 310.772 68.7378 310.56 68.5261Z" fill="#9D9D9D"/>
<path d="M350.988 68.8748C351.312 68.8748 351.586 68.7503 351.797 68.5385L361.674 58.8861C361.911 58.6495 362.035 58.363 362.035 58.0517C362.035 57.7278 361.911 57.4289 361.674 57.2172L351.81 47.5772C351.586 47.3531 351.312 47.2285 350.988 47.2285C350.34 47.2285 349.854 47.7267 349.854 48.3743C349.854 48.6733 349.979 48.9722 350.178 49.1839L359.245 58.0517L350.178 66.9194C349.979 67.1311 349.854 67.4176 349.854 67.729C349.854 68.3766 350.34 68.8748 350.988 68.8748Z" fill="#7A7A7A" fill-opacity="0.25"/>
</g>
<g filter="url(#filter2_i_2002_522)">
<path fill-rule="evenodd" clip-rule="evenodd" d="M147.68 69.7739C154.041 69.7739 159.198 64.6169 159.198 58.2555C159.198 51.894 154.041 46.7371 147.68 46.7371C141.318 46.7371 136.161 51.894 136.161 58.2555C136.161 64.6169 141.318 69.7739 147.68 69.7739Z" fill="#F06959"/>
</g>
<path d="M158.823 58.2555C158.823 64.4098 153.834 69.3988 147.68 69.3988C141.525 69.3988 136.536 64.4098 136.536 58.2555C136.536 52.1012 141.525 47.1122 147.68 47.1122C153.834 47.1122 158.823 52.1012 158.823 58.2555Z" stroke="#CE5347" stroke-width="0.750214"/>
<g filter="url(#filter3_i_2002_522)">
<path fill-rule="evenodd" clip-rule="evenodd" d="M190.116 69.7739C196.478 69.7739 201.635 64.6169 201.635 58.2555C201.635 51.894 196.478 46.7371 190.116 46.7371C183.755 46.7371 178.598 51.894 178.598 58.2555C178.598 64.6169 183.755 69.7739 190.116 69.7739Z" fill="#F4C151"/>
</g>
<path d="M201.259 58.2555C201.259 64.4098 196.27 69.3988 190.116 69.3988C183.962 69.3988 178.973 64.4098 178.973 58.2555C178.973 52.1012 183.962 47.1122 190.116 47.1122C196.27 47.1122 201.259 52.1012 201.259 58.2555Z" stroke="#D6A243" stroke-width="0.750214"/>
<g filter="url(#filter4_i_2002_522)">
<path fill-rule="evenodd" clip-rule="evenodd" d="M232.553 69.7739C238.914 69.7739 244.071 64.6169 244.071 58.2555C244.071 51.894 238.914 46.7371 232.553 46.7371C226.191 46.7371 221.034 51.894 221.034 58.2555C221.034 64.6169 226.191 69.7739 232.553 69.7739Z" fill="#61C454"/>
</g>
<path d="M243.696 58.2555C243.696 64.4098 238.707 69.3988 232.553 69.3988C226.398 69.3988 221.409 64.4098 221.409 58.2555C221.409 52.1012 226.398 47.1122 232.553 47.1122C238.707 47.1122 243.696 52.1012 243.696 58.2555Z" stroke="#5BC74B" stroke-width="0.750214"/>
<path d="M439.892 45.8716C439.892 38.1709 446.135 31.9283 453.836 31.9283H1599.62C1607.32 31.9283 1613.56 38.1709 1613.56 45.8716V65.2711C1613.56 72.9718 1607.32 79.2144 1599.62 79.2144H453.836C446.135 79.2144 439.892 72.9718 439.892 65.2711V45.8716Z" fill="#262626" stroke="#333333" stroke-width="1.21247"/>
<path d="M475.446 53.3187C475.666 53.3187 475.833 53.2483 475.956 53.1165L479.578 49.4767C479.737 49.3273 479.798 49.1515 479.798 48.9493C479.798 48.7558 479.719 48.5624 479.578 48.4218L475.956 44.7469C475.833 44.6062 475.657 44.5359 475.446 44.5359C475.051 44.5359 474.752 44.8524 474.752 45.2568C474.752 45.4414 474.822 45.6173 474.945 45.7579L477.293 48.0613C476.792 47.9734 476.282 47.9206 475.772 47.9206C471.464 47.9206 468 51.3757 468 55.6836C468 60.0003 471.464 63.4641 475.772 63.4641C480.08 63.4641 483.535 60.0003 483.535 55.6836C483.535 55.2616 483.236 54.9539 482.805 54.9539C482.392 54.9539 482.119 55.2616 482.119 55.6836C482.119 59.2178 479.297 62.0487 475.772 62.0487C472.246 62.0487 469.415 59.2178 469.415 55.6836C469.415 52.1582 472.246 49.3361 475.772 49.3361C476.44 49.3361 477.055 49.3888 477.583 49.5031L474.954 52.1142C474.822 52.2549 474.752 52.4307 474.752 52.6153C474.752 53.0197 475.051 53.3187 475.446 53.3187Z" fill="#9B9B9B"/>
<path d="M500.223 62.5762H508.593C509.727 62.5762 510.281 62.0135 510.281 60.7827V54.3297C510.281 53.2219 509.824 52.6505 508.883 52.5538V50.3383C508.883 47.0239 506.711 45.4238 504.408 45.4238C502.105 45.4238 499.933 47.0239 499.933 50.3383V52.5977C499.071 52.7296 498.535 53.2923 498.535 54.3297V60.7827C498.535 62.0135 499.089 62.5762 500.223 62.5762ZM501.348 50.1537C501.348 47.947 502.764 46.7777 504.408 46.7777C506.052 46.7777 507.467 47.947 507.467 50.1537V52.545L501.348 52.5538V50.1537Z" fill="#9B9B9B"/>
<path d="M528.411 46.8141V61H526.776V46.8141H528.411ZM531.327 61V50.3606H532.962V61H531.327ZM532.158 48.5874C531.84 48.5874 531.565 48.4789 531.334 48.2618C531.108 48.0448 530.995 47.7839 530.995 47.4791C530.995 47.1743 531.108 46.9134 531.334 46.6964C531.565 46.4794 531.84 46.3708 532.158 46.3708C532.477 46.3708 532.749 46.4794 532.976 46.6964C533.207 46.9134 533.322 47.1743 533.322 47.4791C533.322 47.7839 533.207 48.0448 532.976 48.2618C532.749 48.4789 532.477 48.5874 532.158 48.5874ZM540.172 65.2114C539.383 65.2114 538.704 65.1098 538.136 64.9067C537.568 64.7081 537.095 64.4449 536.716 64.117C536.342 63.7938 536.044 63.4474 535.822 63.078L537.125 62.1637C537.272 62.3576 537.46 62.5793 537.686 62.8286C537.912 63.0826 538.221 63.302 538.614 63.4867C539.011 63.676 539.531 63.7707 540.172 63.7707C541.031 63.7707 541.74 63.5629 542.299 63.1473C542.858 62.7317 543.137 62.0806 543.137 61.1939V59.0328H542.999C542.878 59.2268 542.708 59.4669 542.486 59.7532C542.269 60.0349 541.955 60.2866 541.544 60.5082C541.138 60.7252 540.588 60.8338 539.895 60.8338C539.036 60.8338 538.265 60.6306 537.582 60.2242C536.903 59.8178 536.365 59.2268 535.968 58.451C535.575 57.6752 535.379 56.7332 535.379 55.6249C535.379 54.5351 535.571 53.5861 535.954 52.778C536.337 51.9653 536.871 51.3373 537.554 50.894C538.238 50.446 539.027 50.2221 539.923 50.2221C540.616 50.2221 541.165 50.3375 541.572 50.5684C541.983 50.7947 542.297 51.0533 542.514 51.3442C542.735 51.6305 542.906 51.866 543.026 52.0507H543.192V50.3606H544.772V61.3048C544.772 62.2191 544.564 62.9626 544.148 63.5352C543.737 64.1124 543.183 64.5349 542.486 64.8028C541.793 65.0752 541.022 65.2114 540.172 65.2114ZM540.117 59.3653C540.773 59.3653 541.327 59.2152 541.779 58.9151C542.232 58.6149 542.576 58.1831 542.812 57.6198C543.047 57.0564 543.165 56.3822 543.165 55.5972C543.165 54.8306 543.049 54.1541 542.818 53.5677C542.588 52.9812 542.246 52.5217 541.793 52.1893C541.341 51.8568 540.782 51.6905 540.117 51.6905C539.424 51.6905 538.847 51.866 538.385 52.217C537.928 52.5679 537.584 53.0389 537.353 53.63C537.127 54.2211 537.014 54.8768 537.014 55.5972C537.014 56.336 537.129 56.9894 537.36 57.5574C537.596 58.1208 537.942 58.5641 538.399 58.8874C538.861 59.206 539.434 59.3653 540.117 59.3653ZM549.321 54.5997V61H547.686V46.8141H549.321V52.023H549.459C549.709 51.4735 550.083 51.0371 550.581 50.7139C551.085 50.386 551.754 50.2221 552.59 50.2221C553.315 50.2221 553.95 50.3675 554.495 50.6585C555.04 50.9448 555.462 51.3858 555.763 51.9815C556.067 52.5725 556.22 53.3252 556.22 54.2396V61H554.585V54.3504C554.585 53.5053 554.366 52.8519 553.927 52.3901C553.493 51.9237 552.89 51.6905 552.119 51.6905C551.583 51.6905 551.103 51.8037 550.678 52.0299C550.258 52.2562 549.926 52.5864 549.681 53.0205C549.441 53.4545 549.321 53.981 549.321 54.5997ZM563.759 50.3606V51.7459H558.246V50.3606H563.759ZM559.853 47.8116H561.487V57.9523C561.487 58.414 561.554 58.7604 561.688 58.9913C561.827 59.2175 562.002 59.3699 562.215 59.4484C562.432 59.5223 562.66 59.5592 562.9 59.5592C563.081 59.5592 563.228 59.55 563.344 59.5315C563.459 59.5085 563.552 59.49 563.621 59.4761L563.953 60.9446C563.842 60.9861 563.688 61.0277 563.489 61.0693C563.291 61.1154 563.039 61.1385 562.734 61.1385C562.272 61.1385 561.82 61.0393 561.377 60.8407C560.938 60.6421 560.573 60.3397 560.282 59.9333C559.996 59.5269 559.853 59.0143 559.853 58.3956V47.8116ZM570.044 61.2217C569.157 61.2217 568.374 60.9977 567.695 60.5498C567.017 60.0972 566.485 59.46 566.102 58.638C565.719 57.8114 565.527 56.8348 565.527 55.708C565.527 54.5905 565.719 53.6208 566.102 52.7988C566.485 51.9768 567.019 51.3419 567.702 50.894C568.386 50.446 569.175 50.2221 570.071 50.2221C570.764 50.2221 571.311 50.3375 571.713 50.5684C572.119 50.7947 572.429 51.0533 572.641 51.3442C572.858 51.6305 573.027 51.866 573.147 52.0507H573.285V46.8141H574.92V61H573.341V59.3653H573.147C573.027 59.5592 572.856 59.804 572.634 60.0995C572.412 60.3905 572.096 60.6514 571.685 60.8822C571.274 61.1085 570.727 61.2217 570.044 61.2217ZM570.265 59.7532C570.921 59.7532 571.475 59.5823 571.928 59.2406C572.38 58.8943 572.724 58.4163 572.96 57.8068C573.195 57.1926 573.313 56.4838 573.313 55.6803C573.313 54.886 573.197 54.1911 572.967 53.5954C572.736 52.9951 572.394 52.5287 571.941 52.1962C571.489 51.8591 570.93 51.6905 570.265 51.6905C569.572 51.6905 568.995 51.8683 568.533 52.2239C568.076 52.5748 567.732 53.0528 567.501 53.6577C567.275 54.258 567.162 54.9322 567.162 55.6803C567.162 56.4376 567.277 57.1257 567.508 57.7445C567.744 58.3586 568.09 58.8481 568.547 59.2129C569.009 59.5731 569.582 59.7532 570.265 59.7532ZM581.194 61.2494C580.519 61.2494 579.908 61.1224 579.358 60.8684C578.809 60.6098 578.372 60.2381 578.049 59.7532C577.726 59.2637 577.564 58.6726 577.564 57.98C577.564 57.3704 577.684 56.8763 577.924 56.4977C578.164 56.1144 578.485 55.8142 578.887 55.5972C579.289 55.3801 579.732 55.2185 580.217 55.1123C580.706 55.0015 581.198 54.9138 581.692 54.8491C582.339 54.766 582.863 54.7036 583.265 54.6621C583.671 54.6159 583.967 54.5397 584.151 54.4335C584.341 54.3273 584.435 54.1426 584.435 53.8794V53.824C584.435 53.1405 584.248 52.6095 583.874 52.2308C583.505 51.8522 582.944 51.6628 582.191 51.6628C581.411 51.6628 580.799 51.8337 580.356 52.1754C579.912 52.5171 579.601 52.8819 579.42 53.2698L577.869 52.7157C578.146 52.0692 578.515 51.5659 578.977 51.2057C579.443 50.8409 579.951 50.5869 580.501 50.4437C581.055 50.296 581.6 50.2221 582.136 50.2221C582.477 50.2221 582.87 50.2636 583.313 50.3468C583.761 50.4253 584.193 50.5892 584.608 50.8385C585.029 51.0879 585.377 51.4643 585.654 51.9676C585.931 52.4709 586.07 53.1451 586.07 53.9902V61H584.435V59.5592H584.352C584.241 59.7901 584.057 60.0372 583.798 60.3004C583.539 60.5636 583.195 60.7876 582.766 60.9723C582.337 61.157 581.812 61.2494 581.194 61.2494ZM581.443 59.7809C582.089 59.7809 582.634 59.6539 583.078 59.3999C583.526 59.146 583.863 58.8181 584.089 58.4163C584.32 58.0146 584.435 57.5921 584.435 57.1488V55.6526C584.366 55.7357 584.214 55.8119 583.978 55.8812C583.747 55.9458 583.479 56.0035 583.175 56.0543C582.875 56.1005 582.581 56.1421 582.295 56.179C582.013 56.2114 581.785 56.2391 581.609 56.2621C581.184 56.3176 580.787 56.4076 580.418 56.5323C580.053 56.6523 579.758 56.8348 579.531 57.0795C579.31 57.3196 579.199 57.6475 579.199 58.0631C579.199 58.6311 579.409 59.0605 579.829 59.3514C580.254 59.6378 580.792 59.7809 581.443 59.7809ZM596.512 52.7434L595.043 53.159C594.951 52.9142 594.815 52.6764 594.635 52.4455C594.459 52.21 594.219 52.0161 593.914 51.8637C593.61 51.7113 593.219 51.6351 592.744 51.6351C592.093 51.6351 591.55 51.7852 591.116 52.0854C590.687 52.3809 590.472 52.7572 590.472 53.2144C590.472 53.6208 590.62 53.9417 590.915 54.1772C591.211 54.4127 591.672 54.609 592.3 54.766L593.88 55.1539C594.831 55.3848 595.54 55.738 596.006 56.2137C596.473 56.6847 596.706 57.2919 596.706 58.0354C596.706 58.6449 596.53 59.1898 596.179 59.6701C595.833 60.1503 595.348 60.529 594.725 60.8061C594.101 61.0831 593.376 61.2217 592.55 61.2217C591.465 61.2217 590.567 60.9861 589.855 60.5151C589.144 60.0441 588.694 59.3561 588.505 58.451L590.056 58.0631C590.204 58.6357 590.483 59.0651 590.894 59.3514C591.31 59.6378 591.853 59.7809 592.522 59.7809C593.284 59.7809 593.889 59.6193 594.337 59.296C594.789 58.9682 595.016 58.5757 595.016 58.1185C595.016 57.7491 594.886 57.4397 594.628 57.1903C594.369 56.9363 593.972 56.747 593.436 56.6223L591.663 56.2067C590.689 55.9758 589.973 55.618 589.516 55.1331C589.063 54.6436 588.837 54.0318 588.837 53.2975C588.837 52.6972 589.006 52.1662 589.343 51.7044C589.685 51.2426 590.149 50.8801 590.735 50.6169C591.326 50.3537 591.996 50.2221 592.744 50.2221C593.797 50.2221 594.623 50.453 595.224 50.9147C595.828 51.3765 596.258 51.9861 596.512 52.7434ZM600.28 61.1108C599.938 61.1108 599.645 60.9885 599.4 60.7437C599.155 60.499 599.033 60.2057 599.033 59.864C599.033 59.5223 599.155 59.2291 599.4 58.9843C599.645 58.7396 599.938 58.6172 600.28 58.6172C600.622 58.6172 600.915 58.7396 601.16 58.9843C601.404 59.2291 601.527 59.5223 601.527 59.864C601.527 60.0903 601.469 60.2981 601.354 60.4874C601.243 60.6768 601.093 60.8291 600.903 60.9446C600.719 61.0554 600.511 61.1108 600.28 61.1108ZM608.704 61.2217C607.707 61.2217 606.848 60.9861 606.128 60.5151C605.407 60.0441 604.853 59.3953 604.465 58.5687C604.077 57.7421 603.883 56.7978 603.883 55.7357C603.883 54.6552 604.082 53.7016 604.479 52.875C604.881 52.0438 605.44 51.395 606.155 50.9286C606.876 50.4576 607.716 50.2221 608.677 50.2221C609.425 50.2221 610.099 50.3606 610.699 50.6377C611.3 50.9147 611.791 51.3026 612.175 51.8014C612.558 52.3001 612.796 52.8819 612.888 53.5469H611.253C611.129 53.062 610.852 52.6326 610.422 52.2585C609.997 51.8799 609.425 51.6905 608.704 51.6905C608.067 51.6905 607.508 51.8568 607.028 52.1893C606.553 52.5171 606.181 52.9812 605.913 53.5815C605.65 54.1772 605.518 54.8768 605.518 55.6803C605.518 56.5023 605.647 57.218 605.906 57.8276C606.169 58.4371 606.539 58.9104 607.014 59.2475C607.495 59.5846 608.058 59.7532 608.704 59.7532C609.129 59.7532 609.515 59.6793 609.861 59.5315C610.208 59.3838 610.501 59.1714 610.741 58.8943C610.981 58.6172 611.152 58.2847 611.253 57.8968H612.888C612.796 58.5249 612.567 59.0905 612.202 59.5939C611.842 60.0926 611.364 60.4897 610.769 60.7853C610.177 61.0762 609.489 61.2217 608.704 61.2217ZM619.522 61.2217C618.562 61.2217 617.719 60.9931 616.994 60.5359C616.273 60.0788 615.71 59.4392 615.304 58.6172C614.902 57.7953 614.701 56.8348 614.701 55.7357C614.701 54.6274 614.902 53.66 615.304 52.8334C615.71 52.0069 616.273 51.365 616.994 50.9078C617.719 50.4507 618.562 50.2221 619.522 50.2221C620.483 50.2221 621.323 50.4507 622.043 50.9078C622.768 51.365 623.332 52.0069 623.734 52.8334C624.14 53.66 624.343 54.6274 624.343 55.7357C624.343 56.8348 624.14 57.7953 623.734 58.6172C623.332 59.4392 622.768 60.0788 622.043 60.5359C621.323 60.9931 620.483 61.2217 619.522 61.2217ZM619.522 59.7532C620.252 59.7532 620.852 59.5662 621.323 59.1921C621.794 58.8181 622.143 58.3263 622.369 57.7168C622.595 57.1072 622.708 56.4469 622.708 55.7357C622.708 55.0246 622.595 54.3619 622.369 53.7478C622.143 53.1336 621.794 52.6372 621.323 52.2585C620.852 51.8799 620.252 51.6905 619.522 51.6905C618.792 51.6905 618.192 51.8799 617.721 52.2585C617.25 52.6372 616.901 53.1336 616.675 53.7478C616.449 54.3619 616.336 55.0246 616.336 55.7357C616.336 56.4469 616.449 57.1072 616.675 57.7168C616.901 58.3263 617.25 58.8181 617.721 59.1921C618.192 59.5662 618.792 59.7532 619.522 59.7532Z" fill="#9B9B9B"/>
</g>
<g clip-path="url(#clip3_2002_522)">
<rect width="1983" height="2050.49" transform="translate(101 97.8193)" fill="#1A1A1A"/>
</g>
</g>
</g>
<path d="M668.376 594.12H679.384V685H668.376V594.12ZM698.185 617.16H708.041L708.297 628.936C711.753 619.72 719.817 615.624 729.161 615.624C744.649 615.624 752.073 627.016 752.073 641.352V685H741.321V644.424C741.321 631.88 737.097 625.096 726.857 625.096C716.105 625.096 708.937 631.88 708.937 644.424V685H698.185V617.16ZM825.469 594.12V685H815.741L815.357 675.272C811.517 682.184 803.325 686.536 793.853 686.536C776.189 686.536 765.181 672.84 765.181 651.08C765.181 629.32 776.189 615.624 793.853 615.624C802.941 615.624 811.005 619.72 814.717 626.12V594.12H825.469ZM776.445 651.08C776.445 666.568 784.125 676.296 796.029 676.296C808.061 676.296 815.741 666.568 815.741 651.08C815.741 635.336 808.061 625.352 796.029 625.352C784.125 625.352 776.445 635.336 776.445 651.08ZM840.401 651.08C840.401 629.576 852.561 615.624 871.505 615.624C886.481 615.624 899.793 625.48 900.817 649.544L900.945 654.408H851.793C852.817 668.232 859.857 676.296 871.505 676.296C878.673 676.296 885.329 672.072 888.401 664.904L899.921 665.8C895.953 678.6 884.433 686.536 871.505 686.536C852.561 686.536 840.401 672.584 840.401 651.08ZM852.049 644.936H889.169C887.377 630.728 879.697 625.864 871.505 625.864C860.753 625.864 853.841 632.904 852.049 644.936ZM953.883 617.16H967.067L943.643 650.312L968.219 685H955.163L936.859 658.632L918.555 685H905.371L930.203 650.184L906.651 617.16H919.835L936.859 641.992L953.883 617.16ZM1020.69 601.8H1031.45V617.16H1049.49V626.632H1031.45V666.952C1031.45 672.584 1034.13 675.528 1039.51 675.528H1049.24V685H1039.51C1027.35 685 1020.69 678.472 1020.69 666.952V626.632H1010.71V617.16H1020.69V601.8ZM1063.13 594.12H1073.88V626.376C1077.72 618.952 1085.66 615.624 1094.11 615.624C1108.19 615.624 1117.02 625.608 1117.02 641.352V685H1106.27V645.192C1106.27 632.264 1101.53 625.864 1091.8 625.864C1081.05 625.864 1073.88 632.648 1073.88 645.192V685H1063.13V594.12ZM1130.13 651.08C1130.13 629.576 1142.29 615.624 1161.23 615.624C1176.21 615.624 1189.52 625.48 1190.54 649.544L1190.67 654.408H1141.52C1142.54 668.232 1149.58 676.296 1161.23 676.296C1168.4 676.296 1175.05 672.072 1178.13 664.904L1189.65 665.8C1185.68 678.6 1174.16 686.536 1161.23 686.536C1142.29 686.536 1130.13 672.584 1130.13 651.08ZM1141.77 644.936H1178.89C1177.1 630.728 1169.42 625.864 1161.23 625.864C1150.48 625.864 1143.57 632.904 1141.77 644.936ZM1243.2 601.8H1253.95V617.16H1272V626.632H1253.95V666.952C1253.95 672.584 1256.64 675.528 1262.02 675.528H1271.74V685H1262.02C1249.86 685 1243.2 678.472 1243.2 666.952V626.632H1233.22V617.16H1243.2V601.8ZM1285.64 617.16H1295.11L1295.49 629.576C1297.8 621.128 1302.79 617.16 1311.62 617.16H1318.28V626.632H1311.62C1301.25 626.632 1296.39 632.904 1296.39 644.552V685H1285.64V617.16ZM1325.13 651.08C1325.13 629.576 1337.29 615.624 1356.23 615.624C1371.21 615.624 1384.52 625.48 1385.55 649.544L1385.67 654.408H1336.52C1337.55 668.232 1344.59 676.296 1356.23 676.296C1363.4 676.296 1370.06 672.072 1373.13 664.904L1384.65 665.8C1380.68 678.6 1369.16 686.536 1356.23 686.536C1337.29 686.536 1325.13 672.584 1325.13 651.08ZM1336.78 644.936H1373.9C1372.11 630.728 1364.43 625.864 1356.23 625.864C1345.48 625.864 1338.57 632.904 1336.78 644.936ZM1396.48 651.08C1396.48 629.576 1408.64 615.624 1427.58 615.624C1442.56 615.624 1455.87 625.48 1456.89 649.544L1457.02 654.408H1407.87C1408.89 668.232 1415.93 676.296 1427.58 676.296C1434.75 676.296 1441.4 672.072 1444.48 664.904L1456 665.8C1452.03 678.6 1440.51 686.536 1427.58 686.536C1408.64 686.536 1396.48 672.584 1396.48 651.08ZM1408.12 644.936H1445.24C1443.45 630.728 1435.77 625.864 1427.58 625.864C1416.83 625.864 1409.92 632.904 1408.12 644.936ZM1511.09 638.152C1509.55 630.472 1502 625.864 1494.45 625.864C1486.89 625.864 1480.75 629.704 1480.75 636.232C1480.75 642.888 1489.58 645.576 1497.01 647.112C1512.37 650.056 1523.63 654.28 1523.63 667.72C1523.63 680.904 1510.06 686.536 1497.13 686.536C1481.13 686.536 1468.85 677.704 1467.82 663.624L1479.09 662.856C1480.49 671.048 1487.02 676.296 1497.13 676.296C1503.79 676.296 1512.37 674.12 1512.37 667.08C1512.37 659.016 1502.77 658.12 1495.09 656.328C1482.67 653.512 1469.49 649.928 1469.49 636.744C1469.49 623.816 1479.98 615.624 1495.6 615.624C1509.04 615.624 1520.17 624.2 1522.35 637.384L1511.09 638.152ZM806.061 776.16H817.581L837.933 832.48L857.773 776.16H869.165L841.645 852.576C839.085 859.872 834.221 863.2 826.541 863.2H817.709V853.728H825.517C828.845 853.728 830.765 852.32 832.045 848.992L834.477 842.72H830.893L806.061 776.16ZM904.585 845.536C885.769 845.536 873.481 831.712 873.481 810.08C873.481 788.448 885.769 774.624 904.585 774.624C923.273 774.624 935.561 788.448 935.561 810.08C935.561 831.712 923.273 845.536 904.585 845.536ZM884.745 810.08C884.745 825.824 892.041 835.296 904.585 835.296C917.001 835.296 924.297 825.824 924.297 810.08C924.297 794.336 917.001 784.864 904.585 784.864C892.041 784.864 884.745 794.336 884.745 810.08ZM1002.42 844H992.18V832.736C988.596 841.568 980.788 845.536 971.828 845.536C956.724 845.536 949.3 834.144 949.3 819.808V776.16H960.052V816.608C960.052 829.28 964.276 836.064 974.132 836.064C984.628 836.064 991.668 829.28 991.668 816.608V776.16H1002.42V844ZM1049.29 796.128C1051.98 782.944 1062.61 774.624 1077.07 774.624C1094.48 774.624 1104.33 784.864 1104.33 803.04V830.304C1104.33 833.12 1105.61 834.528 1108.43 834.528H1111.25V844H1106.64C1099.73 844 1093.71 841.824 1093.71 833.504C1090.77 839.776 1083.34 845.536 1072.59 845.536C1059.02 845.536 1048.14 838.368 1048.14 826.208C1048.14 812.256 1058.64 808.672 1073.74 805.856L1093.58 801.888C1093.45 790.496 1087.95 784.864 1077.07 784.864C1068.49 784.864 1062.73 789.216 1060.69 797.024L1049.29 796.128ZM1059.41 826.208C1059.41 831.584 1064.01 836.064 1074 836.064C1085.01 835.936 1093.84 828.256 1093.84 812.384V811.488L1077.84 814.304C1067.73 816.096 1059.41 816.736 1059.41 826.208ZM1124.71 753.12H1135.46V785.12C1139.17 778.72 1147.24 774.624 1156.33 774.624C1173.99 774.624 1185 788.32 1185 810.08C1185 831.84 1173.99 845.536 1156.33 845.536C1146.85 845.536 1138.66 841.184 1134.82 834.272L1134.44 844H1124.71V753.12ZM1134.44 810.08C1134.44 825.568 1142.12 835.296 1154.15 835.296C1166.05 835.296 1173.73 825.568 1173.73 810.08C1173.73 794.336 1166.05 784.352 1154.15 784.352C1142.12 784.352 1134.44 794.336 1134.44 810.08ZM1226.81 845.536C1207.99 845.536 1195.71 831.712 1195.71 810.08C1195.71 788.448 1207.99 774.624 1226.81 774.624C1245.5 774.624 1257.79 788.448 1257.79 810.08C1257.79 831.712 1245.5 845.536 1226.81 845.536ZM1206.97 810.08C1206.97 825.824 1214.27 835.296 1226.81 835.296C1239.23 835.296 1246.52 825.824 1246.52 810.08C1246.52 794.336 1239.23 784.864 1226.81 784.864C1214.27 784.864 1206.97 794.336 1206.97 810.08ZM1324.65 844H1314.41V832.736C1310.82 841.568 1303.01 845.536 1294.05 845.536C1278.95 845.536 1271.53 834.144 1271.53 819.808V776.16H1282.28V816.608C1282.28 829.28 1286.5 836.064 1296.36 836.064C1306.85 836.064 1313.89 829.28 1313.89 816.608V776.16H1324.65V844ZM1348.28 760.8H1359.03V776.16H1377.08V785.632H1359.03V825.952C1359.03 831.584 1361.72 834.528 1367.1 834.528H1376.82V844H1367.1C1354.94 844 1348.28 837.472 1348.28 825.952V785.632H1338.3V776.16H1348.28V760.8Z" fill="#FF7B15"/>
<defs>
<filter id="filter0_d_2002_522" x="0.471397" y="0.496147" width="2184.06" height="1748.06" filterUnits="userSpaceOnUse" color-interpolation-filters="sRGB">
<feFlood flood-opacity="0" result="BackgroundImageFix"/>
<feColorMatrix in="SourceAlpha" type="matrix" values="0 0 0 0 0 0 0 0 0 0 0 0 0 0 0 0 0 0 127 0" result="hardAlpha"/>
<feOffset dy="87.0247"/>
<feGaussianBlur stdDeviation="50.2643"/>
<feColorMatrix type="matrix" values="0 0 0 0 0 0 0 0 0 0 0 0 0 0 0 0 0 0 0.09 0"/>
<feBlend mode="normal" in2="BackgroundImageFix" result="effect1_dropShadow_2002_522"/>
<feBlend mode="normal" in="SourceGraphic" in2="effect1_dropShadow_2002_522" result="shape"/>
</filter>
<filter id="filter1_b_2002_522" x="-67.0171" y="-332.017" width="2211.03" height="490.239" filterUnits="userSpaceOnUse" color-interpolation-filters="sRGB">
<feFlood flood-opacity="0" result="BackgroundImageFix"/>
<feGaussianBlur in="BackgroundImageFix" stdDeviation="30.0085"/>
<feComposite in2="SourceAlpha" operator="in" result="effect1_backgroundBlur_2002_522"/>
<feBlend mode="normal" in="SourceGraphic" in2="effect1_backgroundBlur_2002_522" result="shape"/>
</filter>
<filter id="filter2_i_2002_522" x="136.161" y="46.7371" width="23.0371" height="23.0369" filterUnits="userSpaceOnUse" color-interpolation-filters="sRGB">
<feFlood flood-opacity="0" result="BackgroundImageFix"/>
<feBlend mode="normal" in="SourceGraphic" in2="BackgroundImageFix" result="shape"/>
<feColorMatrix in="SourceAlpha" type="matrix" values="0 0 0 0 0 0 0 0 0 0 0 0 0 0 0 0 0 0 127 0" result="hardAlpha"/>
<feOffset/>
<feGaussianBlur stdDeviation="4.50128"/>
<feComposite in2="hardAlpha" operator="arithmetic" k2="-1" k3="1"/>
<feColorMatrix type="matrix" values="0 0 0 0 0.92549 0 0 0 0 0.427451 0 0 0 0 0.384314 0 0 0 1 0"/>
<feBlend mode="normal" in2="shape" result="effect1_innerShadow_2002_522"/>
</filter>
<filter id="filter3_i_2002_522" x="178.598" y="46.7371" width="23.0371" height="23.0369" filterUnits="userSpaceOnUse" color-interpolation-filters="sRGB">
<feFlood flood-opacity="0" result="BackgroundImageFix"/>
<feBlend mode="normal" in="SourceGraphic" in2="BackgroundImageFix" result="shape"/>
<feColorMatrix in="SourceAlpha" type="matrix" values="0 0 0 0 0 0 0 0 0 0 0 0 0 0 0 0 0 0 127 0" result="hardAlpha"/>
<feOffset/>
<feGaussianBlur stdDeviation="4.50128"/>
<feComposite in2="hardAlpha" operator="arithmetic" k2="-1" k3="1"/>
<feColorMatrix type="matrix" values="0 0 0 0 0.960784 0 0 0 0 0.768627 0 0 0 0 0.317647 0 0 0 1 0"/>
<feBlend mode="normal" in2="shape" result="effect1_innerShadow_2002_522"/>
</filter>
<filter id="filter4_i_2002_522" x="221.034" y="46.7371" width="23.0371" height="23.0369" filterUnits="userSpaceOnUse" color-interpolation-filters="sRGB">
<feFlood flood-opacity="0" result="BackgroundImageFix"/>
<feBlend mode="normal" in="SourceGraphic" in2="BackgroundImageFix" result="shape"/>
<feColorMatrix in="SourceAlpha" type="matrix" values="0 0 0 0 0 0 0 0 0 0 0 0 0 0 0 0 0 0 127 0" result="hardAlpha"/>
<feOffset/>
<feGaussianBlur stdDeviation="4.50128"/>
<feComposite in2="hardAlpha" operator="arithmetic" k2="-1" k3="1"/>
<feColorMatrix type="matrix" values="0 0 0 0 0.407843 0 0 0 0 0.8 0 0 0 0 0.345098 0 0 0 1 0"/>
<feBlend mode="normal" in2="shape" result="effect1_innerShadow_2002_522"/>
</filter>
<clipPath id="clip0_2002_522">
<rect x="101" y="14" width="1983" height="1547" rx="29.5736" fill="white"/>
</clipPath>
<clipPath id="clip1_2002_522">
<rect width="111.032" height="42.012" fill="white" transform="translate(1955.66 37.035)"/>
</clipPath>
<clipPath id="clip2_2002_522">
<rect width="99.0282" height="42.012" fill="white" transform="translate(281.657 37.035)"/>
</clipPath>
<clipPath id="clip3_2002_522">
<rect width="1983" height="2050.49" fill="white" transform="translate(101 97.8193)"/>
</clipPath>
</defs>
</svg>
